NotoSerifTamilSlanted-Italic.ufo
<glyph name="quotedbl" format="2">
  <advance width="408"/>
  <unicode hex="0022"/>
  <outline>
    <contour>
      <point x="131" y="479" type="line"/>
      <point x="177" y="479" type="line"/>
      <point x="257" y="714" type="line"/>
      <point x="151" y="714" type="line"/>
    </contour>
    <contour>
      <point x="319" y="479" type="line"/>
      <point x="365" y="479" type="line"/>
      <point x="445" y="714" type="line"/>
      <point x="339" y="714" type="line"/>
    </contour>
  </outline>
</glyph>
<glyph name="numbersign" format="2">
  <advance width="559"/>
  <unicode hex="0023"/>
  <outline>
    <contour>
      <point x="56" y="0" type="line"/>
      <point x="116" y="0" type="line"/>
      <point x="175" y="203" type="line"/>
      <point x="314" y="203" type="line"/>
      <point x="255" y="0" type="line"/>
      <point x="315" y="0" type="line"/>
      <point x="374" y="203" type="line"/>
      <point x="495" y="203" type="line"/>
      <point x="502" y="262" type="line"/>
      <point x="393" y="262" type="line"/>
      <point x="450" y="458" type="line"/>
      <point x="553" y="458" type="line"/>
      <point x="559" y="517" type="line"/>
      <point x="467" y="517" type="line"/>
      <point x="525" y="714" type="line"/>
      <point x="465" y="714" type="line"/>
      <point x="407" y="517" type="line"/>
      <point x="268" y="517" type="line"/>
      <point x="326" y="714" type="line"/>
      <point x="265" y="714" type="line"/>
      <point x="208" y="517" type="line"/>
      <point x="88" y="517" type="line"/>
      <point x="82" y="458" type="line"/>
      <point x="191" y="458" type="line"/>
      <point x="133" y="262" type="line"/>
      <point x="30" y="262" type="line"/>
      <point x="23" y="203" type="line"/>
      <point x="115" y="203" type="line"/>
    </contour>
    <contour>
      <point x="194" y="262" type="line"/>
      <point x="251" y="458" type="line"/>
      <point x="390" y="458" type="line"/>
      <point x="333" y="262" type="line"/>
    </contour>
  </outline>
</glyph>
<glyph name="percent" format="2">
  <advance width="896"/>
  <unicode hex="0025"/>
  <outline>
    <contour>
      <point x="167" y="0" type="line"/>
      <point x="241" y="0" type="line"/>
      <point x="739" y="714" type="line"/>
      <point x="669" y="714" type="line"/>
    </contour>
    <contour>
      <point x="195" y="281" type="curve" smooth="yes"/>
      <point x="344" y="281"/>
      <point x="409" y="460"/>
      <point x="409" y="564" type="curve" smooth="yes"/>
      <point x="409" y="659"/>
      <point x="369" y="723"/>
      <point x="276" y="723" type="curve" smooth="yes"/>
      <point x="130" y="723"/>
      <point x="66" y="551"/>
      <point x="66" y="440" type="curve"/>
      <point x="66" y="332"/>
      <point x="116" y="281"/>
    </contour>
    <contour>
      <point x="199" y="322" type="curve" smooth="yes"/>
      <point x="159" y="322"/>
      <point x="145" y="360"/>
      <point x="145" y="425" type="curve" smooth="yes"/>
      <point x="145" y="513"/>
      <point x="188" y="683"/>
      <point x="272" y="683" type="curve" smooth="yes"/>
      <point x="312" y="683"/>
      <point x="326" y="645"/>
      <point x="326" y="580" type="curve" smooth="yes"/>
      <point x="326" y="492"/>
      <point x="283" y="322"/>
    </contour>
    <contour>
      <point x="637" y="-8" type="curve" smooth="yes"/>
      <point x="786" y="-8"/>
      <point x="851" y="171"/>
      <point x="851" y="275" type="curve" smooth="yes"/>
      <point x="851" y="370"/>
      <point x="811" y="434"/>
      <point x="718" y="434" type="curve" smooth="yes"/>
      <point x="572" y="434"/>
      <point x="508" y="262"/>
      <point x="508" y="151" type="curve"/>
      <point x="508" y="43"/>
      <point x="558" y="-8"/>
    </contour>
    <contour>
      <point x="641" y="33" type="curve" smooth="yes"/>
      <point x="601" y="33"/>
      <point x="587" y="71"/>
      <point x="587" y="136" type="curve" smooth="yes"/>
      <point x="587" y="224"/>
      <point x="630" y="394"/>
      <point x="714" y="394" type="curve" smooth="yes"/>
      <point x="754" y="394"/>
      <point x="768" y="356"/>
      <point x="768" y="291" type="curve" smooth="yes"/>
      <point x="768" y="203"/>
      <point x="725" y="33"/>
    </contour>
  </outline>
</glyph>
<glyph name="parenleft" format="2">
  <advance width="346"/>
  <unicode hex="0028"/>
  <outline>
    <contour>
      <point x="219" y="-128" type="curve"/>
      <point x="229" y="-82" type="line"/>
      <point x="159" y="-33"/>
      <point x="136" y="54"/>
      <point x="136" y="139" type="curve" smooth="yes"/>
      <point x="136" y="277"/>
      <point x="187" y="601"/>
      <point x="398" y="715" type="curve"/>
      <point x="408" y="760" type="line"/>
      <point x="161" y="695"/>
      <point x="42" y="429"/>
      <point x="42" y="186" type="curve" smooth="yes"/>
      <point x="42" y="47"/>
      <point x="94" y="-74"/>
    </contour>
  </outline>
</glyph>
<glyph name="comma" format="2">
  <advance width="250"/>
  <unicode hex="002C"/>
  <outline>
    <contour>
      <point x="-28" y="-146" type="line"/>
      <point x="96" y="-121"/>
      <point x="153" y="-45"/>
      <point x="153" y="46" type="curve" smooth="yes"/>
      <point x="153" y="98"/>
      <point x="117" y="128"/>
      <point x="75" y="128" type="curve" smooth="yes"/>
      <point x="41" y="128"/>
      <point x="13" y="108"/>
      <point x="13" y="69" type="curve" smooth="yes"/>
      <point x="13" y="16"/>
      <point x="78" y="16"/>
      <point x="78" y="-20" type="curve" smooth="yes"/>
      <point x="78" y="-60"/>
      <point x="43" y="-89"/>
      <point x="-24" y="-104" type="curve"/>
    </contour>
  </outline>
</glyph>
<glyph name="hyphen" format="2">
  <advance width="310"/>
  <unicode hex="002D"/>
  <outline>
    <contour>
      <point x="14" y="235" type="line"/>
      <point x="274" y="235" type="line"/>
      <point x="290" y="310" type="line"/>
      <point x="30" y="310" type="line"/>
    </contour>
  </outline>
</glyph>
<glyph name="period" format="2">
  <advance width="250"/>
  <unicode hex="002E"/>
  <outline>
    <contour>
      <point x="82" y="-8" type="curve" smooth="yes"/>
      <point x="119" y="-8"/>
      <point x="154" y="17"/>
      <point x="154" y="80" type="curve" smooth="yes"/>
      <point x="154" y="110"/>
      <point x="131" y="129"/>
      <point x="98" y="129" type="curve" smooth="yes"/>
      <point x="65" y="129"/>
      <point x="26" y="104"/>
      <point x="26" y="43" type="curve" smooth="yes"/>
      <point x="26" y="12"/>
      <point x="49" y="-8"/>
    </contour>
  </outline>
</glyph>
<glyph name="zero" format="2">
  <advance width="559"/>
  <unicode hex="0030"/>
  <outline>
    <contour>
      <point x="233" y="-11" type="curve" smooth="yes"/>
      <point x="440" y="-11"/>
      <point x="530" y="294"/>
      <point x="530" y="496" type="curve" smooth="yes"/>
      <point x="530" y="655"/>
      <point x="446" y="725"/>
      <point x="340" y="725" type="curve" smooth="yes"/>
      <point x="134" y="725"/>
      <point x="40" y="438"/>
      <point x="40" y="231" type="curve" smooth="yes"/>
      <point x="40" y="73"/>
      <point x="118" y="-11"/>
    </contour>
    <contour>
      <point x="241" y="44" type="curve" smooth="yes"/>
      <point x="177" y="44"/>
      <point x="137" y="91"/>
      <point x="137" y="202" type="curve" smooth="yes"/>
      <point x="137" y="377"/>
      <point x="191" y="671"/>
      <point x="330" y="671" type="curve" smooth="yes"/>
      <point x="396" y="671"/>
      <point x="433" y="624"/>
      <point x="433" y="515" type="curve" smooth="yes"/>
      <point x="433" y="339"/>
      <point x="381" y="44"/>
    </contour>
  </outline>
</glyph>
<glyph name="two" format="2">
  <advance width="559"/>
  <unicode hex="0032"/>
  <outline>
    <contour>
      <point x="-17" y="0" type="line"/>
      <point x="416" y="0" type="line"/>
      <point x="456" y="171" type="line"/>
      <point x="414" y="171" type="line"/>
      <point x="407" y="155" type="line" smooth="yes"/>
      <point x="390" y="117"/>
      <point x="369" y="80"/>
      <point x="308" y="80" type="curve" smooth="yes"/>
      <point x="76" y="80" type="line"/>
      <point x="301" y="282" type="line" smooth="yes"/>
      <point x="436" y="404"/>
      <point x="509" y="485"/>
      <point x="509" y="578" type="curve" smooth="yes"/>
      <point x="509" y="668"/>
      <point x="445" y="724"/>
      <point x="320" y="724" type="curve" smooth="yes"/>
      <point x="181" y="724"/>
      <point x="102" y="656"/>
      <point x="102" y="587" type="curve" smooth="yes"/>
      <point x="102" y="542"/>
      <point x="132" y="523"/>
      <point x="173" y="523" type="curve"/>
      <point x="186" y="603"/>
      <point x="229" y="674"/>
      <point x="315" y="674" type="curve" smooth="yes"/>
      <point x="374" y="674"/>
      <point x="407" y="633"/>
      <point x="407" y="573" type="curve" smooth="yes"/>
      <point x="407" y="487"/>
      <point x="374" y="414"/>
      <point x="239" y="293" type="curve" smooth="yes"/>
      <point x="4" y="81" type="line"/>
    </contour>
  </outline>
</glyph>
<glyph name="four" format="2">
  <advance width="559"/>
  <unicode hex="0034"/>
  <outline>
    <contour>
      <point x="128" y="0" type="line"/>
      <point x="455" y="0" type="line"/>
      <point x="464" y="42" type="line"/>
      <point x="441" y="42" type="line" smooth="yes"/>
      <point x="399" y="42"/>
      <point x="369" y="48"/>
      <point x="369" y="82" type="curve" smooth="yes"/>
      <point x="369" y="88"/>
      <point x="371" y="102"/>
      <point x="373" y="110" type="curve" smooth="yes"/>
      <point x="501" y="714" type="line"/>
      <point x="405" y="714" type="line"/>
      <point x="-5" y="237" type="line"/>
      <point x="-14" y="196" type="line"/>
      <point x="514" y="196" type="line"/>
      <point x="526" y="252" type="line"/>
      <point x="34" y="252" type="line"/>
      <point x="49" y="217" type="line"/>
      <point x="306" y="518" type="line" smooth="yes"/>
      <point x="327" y="542"/>
      <point x="372" y="599"/>
      <point x="394" y="633" type="curve"/>
      <point x="375" y="571"/>
      <point x="357" y="497"/>
      <point x="345" y="439" type="curve" smooth="yes"/>
      <point x="278" y="114" type="line" smooth="yes"/>
      <point x="265" y="51"/>
      <point x="225" y="42"/>
      <point x="180" y="42" type="curve" smooth="yes"/>
      <point x="136" y="42" type="line"/>
    </contour>
  </outline>
</glyph>
<glyph name="seven" format="2">
  <advance width="559"/>
  <unicode hex="0037"/>
  <outline>
    <contour>
      <point x="108" y="0" type="line"/>
      <point x="183" y="0" type="line"/>
      <point x="574" y="685" type="line"/>
      <point x="580" y="714" type="line"/>
      <point x="133" y="714" type="line"/>
      <point x="90" y="533" type="line"/>
      <point x="132" y="533" type="line"/>
      <point x="146" y="583" type="line" smooth="yes"/>
      <point x="155" y="616"/>
      <point x="179" y="634"/>
      <point x="215" y="634" type="curve" smooth="yes"/>
      <point x="478" y="634" type="line"/>
    </contour>
  </outline>
</glyph>
<glyph name="colon" format="2">
  <advance width="286"/>
  <unicode hex="003A"/>
  <outline>
    <contour>
      <point x="178" y="403" type="curve" smooth="yes"/>
      <point x="215" y="403"/>
      <point x="250" y="428"/>
      <point x="250" y="487" type="curve" smooth="yes"/>
      <point x="250" y="521"/>
      <point x="227" y="540"/>
      <point x="194" y="540" type="curve" smooth="yes"/>
      <point x="161" y="540"/>
      <point x="122" y="515"/>
      <point x="122" y="458" type="curve" smooth="yes"/>
      <point x="122" y="423"/>
      <point x="145" y="403"/>
    </contour>
    <contour>
      <point x="88" y="-8" type="curve" smooth="yes"/>
      <point x="125" y="-8"/>
      <point x="160" y="17"/>
      <point x="160" y="76" type="curve" smooth="yes"/>
      <point x="160" y="110"/>
      <point x="137" y="129"/>
      <point x="104" y="129" type="curve" smooth="yes"/>
      <point x="71" y="129"/>
      <point x="32" y="104"/>
      <point x="32" y="47" type="curve" smooth="yes"/>
      <point x="32" y="12"/>
      <point x="55" y="-8"/>
    </contour>
  </outline>
</glyph>
<glyph name="semicolon" format="2">
  <advance width="286"/>
  <unicode hex="003B"/>
  <outline>
    <contour>
      <point x="-8" y="-146" type="line"/>
      <point x="116" y="-121"/>
      <point x="173" y="-45"/>
      <point x="173" y="46" type="curve" smooth="yes"/>
      <point x="173" y="98"/>
      <point x="137" y="128"/>
      <point x="95" y="128" type="curve" smooth="yes"/>
      <point x="61" y="128"/>
      <point x="33" y="108"/>
      <point x="33" y="69" type="curve" smooth="yes"/>
      <point x="33" y="16"/>
      <point x="98" y="16"/>
      <point x="98" y="-20" type="curve" smooth="yes"/>
      <point x="98" y="-60"/>
      <point x="63" y="-89"/>
      <point x="-4" y="-104" type="curve"/>
    </contour>
    <contour>
      <point x="178" y="403" type="curve" smooth="yes"/>
      <point x="215" y="403"/>
      <point x="250" y="428"/>
      <point x="250" y="487" type="curve" smooth="yes"/>
      <point x="250" y="521"/>
      <point x="227" y="540"/>
      <point x="194" y="540" type="curve" smooth="yes"/>
      <point x="161" y="540"/>
      <point x="122" y="515"/>
      <point x="122" y="458" type="curve" smooth="yes"/>
      <point x="122" y="423"/>
      <point x="145" y="403"/>
    </contour>
  </outline>
</glyph>
<glyph name="greater" format="2">
  <advance width="559"/>
  <unicode hex="003E"/>
  <outline>
    <contour>
      <point x="65" y="110" type="line"/>
      <point x="494" y="340" type="line"/>
      <point x="494" y="375" type="line"/>
      <point x="65" y="606" type="line"/>
      <point x="65" y="539" type="line"/>
      <point x="401" y="357" type="line"/>
      <point x="65" y="177" type="line"/>
    </contour>
  </outline>
</glyph>
<glyph name="question" format="2">
  <advance width="500"/>
  <unicode hex="003F"/>
  <outline>
    <contour>
      <point x="193" y="201" type="line"/>
      <point x="248" y="201" type="line"/>
      <point x="276" y="317" type="line"/>
      <point x="416" y="368"/>
      <point x="522" y="442"/>
      <point x="522" y="558" type="curve" smooth="yes"/>
      <point x="522" y="673"/>
      <point x="449" y="724"/>
      <point x="333" y="724" type="curve" smooth="yes"/>
      <point x="206" y="724"/>
      <point x="131" y="662"/>
      <point x="131" y="592" type="curve" smooth="yes"/>
      <point x="131" y="554"/>
      <point x="156" y="532"/>
      <point x="203" y="532" type="curve"/>
      <point x="215" y="608"/>
      <point x="243" y="674"/>
      <point x="327" y="674" type="curve" smooth="yes"/>
      <point x="383" y="674"/>
      <point x="424" y="635"/>
      <point x="424" y="566" type="curve" smooth="yes"/>
      <point x="424" y="460"/>
      <point x="343" y="394"/>
      <point x="221" y="349" type="curve"/>
    </contour>
    <contour>
      <point x="192" y="-8" type="curve" smooth="yes"/>
      <point x="229" y="-8"/>
      <point x="264" y="17"/>
      <point x="264" y="76" type="curve" smooth="yes"/>
      <point x="264" y="110"/>
      <point x="241" y="129"/>
      <point x="208" y="129" type="curve" smooth="yes"/>
      <point x="175" y="129"/>
      <point x="136" y="104"/>
      <point x="136" y="47" type="curve" smooth="yes"/>
      <point x="136" y="12"/>
      <point x="159" y="-8"/>
    </contour>
  </outline>
</glyph>
<glyph name="bracketleft" format="2">
  <advance width="360"/>
  <unicode hex="005B"/>
  <outline>
    <contour>
      <point x="5" y="-128" type="line"/>
      <point x="228" y="-128" type="line"/>
      <point x="237" y="-86" type="line"/>
      <point x="194" y="-86" type="line" smooth="yes"/>
      <point x="152" y="-86"/>
      <point x="122" y="-80"/>
      <point x="122" y="-46" type="curve" smooth="yes"/>
      <point x="122" y="-40"/>
      <point x="124" y="-26"/>
      <point x="126" y="-18" type="curve"/>
      <point x="268" y="646" type="line"/>
      <point x="281" y="709"/>
      <point x="320" y="718"/>
      <point x="365" y="718" type="curve" smooth="yes"/>
      <point x="408" y="718" type="line"/>
      <point x="417" y="760" type="line"/>
      <point x="194" y="760" type="line"/>
    </contour>
  </outline>
</glyph>
<glyph name="backslash" format="2">
  <advance width="288"/>
  <unicode hex="005C"/>
  <outline>
    <contour>
      <point x="155" y="-121" type="line"/>
      <point x="214" y="-121" type="line"/>
      <point x="171" y="760" type="line"/>
      <point x="113" y="760" type="line"/>
    </contour>
  </outline>
</glyph>
<glyph name="bracketright" format="2">
  <advance width="360"/>
  <unicode hex="005D"/>
  <outline>
    <contour>
      <point x="-47" y="-128" type="line"/>
      <point x="175" y="-128" type="line"/>
      <point x="364" y="760" type="line"/>
      <point x="141" y="760" type="line"/>
      <point x="132" y="718" type="line"/>
      <point x="175" y="718" type="line" smooth="yes"/>
      <point x="217" y="718"/>
      <point x="247" y="712"/>
      <point x="247" y="678" type="curve" smooth="yes"/>
      <point x="247" y="672"/>
      <point x="245" y="658"/>
      <point x="243" y="650" type="curve" smooth="yes"/>
      <point x="101" y="-14" type="line"/>
      <point x="88" y="-77"/>
      <point x="49" y="-86"/>
      <point x="5" y="-86" type="curve" smooth="yes"/>
      <point x="-38" y="-86" type="line"/>
    </contour>
  </outline>
</glyph>
<glyph name="asciicircum" format="2">
  <advance width="559"/>
  <unicode hex="005E"/>
  <outline>
    <contour>
      <point x="51" y="266" type="line"/>
      <point x="118" y="266" type="line"/>
      <point x="278" y="622" type="line"/>
      <point x="440" y="266" type="line"/>
      <point x="507" y="266" type="line"/>
      <point x="296" y="714" type="line"/>
      <point x="261" y="714" type="line"/>
    </contour>
  </outline>
</glyph>
<glyph name="bar" format="2">
  <advance width="559"/>
  <unicode hex="007C"/>
  <outline>
    <contour>
      <point x="249" y="-240" type="line"/>
      <point x="309" y="-240" type="line"/>
      <point x="309" y="760" type="line"/>
      <point x="249" y="760" type="line"/>
    </contour>
  </outline>
</glyph>
<glyph name="braceright" format="2">
  <advance width="428"/>
  <unicode hex="007D"/>
  <outline>
    <contour>
      <point x="-50" y="-128" type="line"/>
      <point x="16" y="-128" type="line" smooth="yes"/>
      <point x="143" y="-128"/>
      <point x="172" y="-72"/>
      <point x="191" y="16" type="curve" smooth="yes"/>
      <point x="228" y="190" type="line" smooth="yes"/>
      <point x="245" y="272"/>
      <point x="302" y="293"/>
      <point x="368" y="296" type="curve"/>
      <point x="377" y="338" type="line"/>
      <point x="321" y="340"/>
      <point x="278" y="356"/>
      <point x="278" y="411" type="curve" smooth="yes"/>
      <point x="278" y="421"/>
      <point x="279" y="431"/>
      <point x="282" y="443" type="curve" smooth="yes"/>
      <point x="319" y="617" type="line" smooth="yes"/>
      <point x="322" y="632"/>
      <point x="324" y="646"/>
      <point x="324" y="659" type="curve" smooth="yes"/>
      <point x="324" y="724"/>
      <point x="283" y="760"/>
      <point x="205" y="760" type="curve" smooth="yes"/>
      <point x="139" y="760" type="line"/>
      <point x="130" y="717" type="line"/>
      <point x="160" y="717" type="line" smooth="yes"/>
      <point x="205" y="717"/>
      <point x="225" y="695"/>
      <point x="225" y="654" type="curve" smooth="yes"/>
      <point x="225" y="642"/>
      <point x="223" y="628"/>
      <point x="220" y="612" type="curve" smooth="yes"/>
      <point x="183" y="441" type="line" smooth="yes"/>
      <point x="181" y="430"/>
      <point x="179" y="420"/>
      <point x="179" y="410" type="curve" smooth="yes"/>
      <point x="179" y="362"/>
      <point x="209" y="330"/>
      <point x="268" y="320" type="curve"/>
      <point x="268" y="316" type="line"/>
      <point x="189" y="303"/>
      <point x="145" y="259"/>
      <point x="131" y="193" type="curve" smooth="yes"/>
      <point x="94" y="20" type="line" smooth="yes"/>
      <point x="79" y="-48"/>
      <point x="48" y="-85"/>
      <point x="-11" y="-85" type="curve" smooth="yes"/>
      <point x="-41" y="-85" type="line"/>
    </contour>
  </outline>
</glyph>
<glyph name="asciitilde" format="2">
  <advance width="559"/>
  <unicode hex="007E"/>
  <outline>
    <contour>
      <point x="54" y="269" type="curve"/>
      <point x="113" y="269" type="line"/>
      <point x="120" y="347"/>
      <point x="137" y="385"/>
      <point x="176" y="385" type="curve" smooth="yes"/>
      <point x="207" y="385"/>
      <point x="231" y="362"/>
      <point x="262" y="332" type="curve" smooth="yes"/>
      <point x="299" y="296"/>
      <point x="335" y="269"/>
      <point x="382" y="269" type="curve" smooth="yes"/>
      <point x="476" y="269"/>
      <point x="496" y="375"/>
      <point x="504" y="444" type="curve"/>
      <point x="444" y="444" type="line"/>
      <point x="435" y="370"/>
      <point x="420" y="328"/>
      <point x="383" y="328" type="curve" smooth="yes"/>
      <point x="355" y="328"/>
      <point x="329" y="352"/>
      <point x="301" y="378" type="curve" smooth="yes"/>
      <point x="254" y="421"/>
      <point x="222" y="444"/>
      <point x="176" y="444" type="curve" smooth="yes"/>
      <point x="81" y="444"/>
      <point x="61" y="346"/>
    </contour>
  </outline>
</glyph>
<glyph name="threesuperior" format="2">
  <advance width="400"/>
  <unicode hex="00B3"/>
  <outline>
    <contour>
      <point x="210" y="380" type="curve" smooth="yes"/>
      <point x="324" y="380"/>
      <point x="404" y="428"/>
      <point x="404" y="518" type="curve" smooth="yes"/>
      <point x="404" y="573"/>
      <point x="364" y="603"/>
      <point x="303" y="610" type="curve"/>
      <point x="304" y="615" type="line"/>
      <point x="377" y="630"/>
      <point x="432" y="663"/>
      <point x="432" y="733" type="curve" smooth="yes"/>
      <point x="432" y="783"/>
      <point x="389" y="824"/>
      <point x="297" y="824" type="curve" smooth="yes"/>
      <point x="201" y="824"/>
      <point x="144" y="786"/>
      <point x="144" y="739" type="curve" smooth="yes"/>
      <point x="144" y="707"/>
      <point x="170" y="697"/>
      <point x="210" y="697" type="curve"/>
      <point x="219" y="743"/>
      <point x="243" y="784"/>
      <point x="294" y="784" type="curve" smooth="yes"/>
      <point x="326" y="784"/>
      <point x="340" y="764"/>
      <point x="340" y="737" type="curve" smooth="yes"/>
      <point x="340" y="669"/>
      <point x="286" y="630"/>
      <point x="229" y="630" type="curve" smooth="yes"/>
      <point x="196" y="630" type="line"/>
      <point x="188" y="589" type="line"/>
      <point x="221" y="589" type="line" smooth="yes"/>
      <point x="284" y="589"/>
      <point x="312" y="554"/>
      <point x="312" y="514" type="curve" smooth="yes"/>
      <point x="312" y="450"/>
      <point x="271" y="425"/>
      <point x="217" y="425" type="curve" smooth="yes"/>
      <point x="159" y="425"/>
      <point x="136" y="472"/>
      <point x="136" y="511" type="curve"/>
      <point x="104" y="511"/>
      <point x="79" y="493"/>
      <point x="79" y="457" type="curve" smooth="yes"/>
      <point x="79" y="410"/>
      <point x="126" y="380"/>
    </contour>
  </outline>
</glyph>
<glyph name="multiply" format="2">
  <advance width="559"/>
  <unicode hex="00D7"/>
  <outline>
    <contour>
      <point x="113" y="150" type="line"/>
      <point x="279" y="316" type="line"/>
      <point x="445" y="150" type="line"/>
      <point x="487" y="192" type="line"/>
      <point x="321" y="358" type="line"/>
      <point x="487" y="524" type="line"/>
      <point x="445" y="567" type="line"/>
      <point x="279" y="400" type="line"/>
      <point x="113" y="566" type="line"/>
      <point x="71" y="524" type="line"/>
      <point x="237" y="359" type="line"/>
      <point x="71" y="193" type="line"/>
    </contour>
  </outline>
</glyph>
<glyph name="divide" format="2">
  <advance width="559"/>
  <unicode hex="00F7"/>
  <outline>
    <contour>
      <point x="65" y="328" type="line"/>
      <point x="494" y="328" type="line"/>
      <point x="494" y="387" type="line"/>
      <point x="65" y="387" type="line"/>
    </contour>
    <contour>
      <point x="280" y="113" type="curve" smooth="yes"/>
      <point x="308" y="113"/>
      <point x="331" y="127"/>
      <point x="331" y="168" type="curve" smooth="yes"/>
      <point x="331" y="210"/>
      <point x="308" y="223"/>
      <point x="280" y="223" type="curve" smooth="yes"/>
      <point x="251" y="223"/>
      <point x="229" y="210"/>
      <point x="229" y="168" type="curve" smooth="yes"/>
      <point x="229" y="127"/>
      <point x="251" y="113"/>
    </contour>
    <contour>
      <point x="280" y="492" type="curve" smooth="yes"/>
      <point x="308" y="492"/>
      <point x="331" y="506"/>
      <point x="331" y="547" type="curve" smooth="yes"/>
      <point x="331" y="589"/>
      <point x="308" y="602"/>
      <point x="280" y="602" type="curve" smooth="yes"/>
      <point x="251" y="602"/>
      <point x="229" y="589"/>
      <point x="229" y="547" type="curve" smooth="yes"/>
      <point x="229" y="506"/>
      <point x="251" y="492"/>
    </contour>
  </outline>
</glyph>
<glyph name="udatta-deva" format="2">
  <unicode hex="0951"/>
  <anchor x="59" y="554" name="_vedic"/>
  <outline>
    <contour>
      <point x="109" y="912" type="line"/>
      <point x="162" y="912" type="line"/>
      <point x="203" y="1107" type="line"/>
      <point x="150" y="1107" type="line"/>
    </contour>
  </outline>
</glyph>
<glyph name="anudatta-deva" format="2">
  <unicode hex="0952"/>
  <anchor x="-59" y="0" name="_bottom"/>
  <outline>
    <contour>
      <point x="-384" y="-547" type="line"/>
      <point x="34" y="-547" type="line"/>
      <point x="48" y="-480" type="line"/>
      <point x="-370" y="-480" type="line"/>
    </contour>
  </outline>
</glyph>
<glyph name="danda-deva" format="2">
  <advance width="299"/>
  <unicode hex="0964"/>
  <outline>
    <contour>
      <point x="44" y="0" type="line"/>
      <point x="137" y="0" type="line"/>
      <point x="255" y="554" type="line"/>
      <point x="162" y="554" type="line"/>
    </contour>
  </outline>
</glyph>
<glyph name="dbldanda-deva" format="2">
  <advance width="535"/>
  <unicode hex="0965"/>
  <outline>
    <contour>
      <point x="280" y="0" type="line"/>
      <point x="373" y="0" type="line"/>
      <point x="491" y="554" type="line"/>
      <point x="398" y="554" type="line"/>
    </contour>
    <contour>
      <point x="44" y="0" type="line"/>
      <point x="137" y="0" type="line"/>
      <point x="255" y="554" type="line"/>
      <point x="162" y="554" type="line"/>
    </contour>
  </outline>
</glyph>
<glyph name="visarga-tamil" format="2">
  <advance width="884"/>
  <unicode hex="0B83"/>
  <note>
uni0B83
</note>
  <outline>
    <contour>
      <point x="178" y="0" type="curve" smooth="yes"/>
      <point x="281" y="0"/>
      <point x="377" y="80"/>
      <point x="377" y="214" type="curve" smooth="yes"/>
      <point x="377" y="321"/>
      <point x="308" y="369"/>
      <point x="223" y="369" type="curve" smooth="yes"/>
      <point x="108" y="369"/>
      <point x="33" y="263"/>
      <point x="33" y="160" type="curve" smooth="yes"/>
      <point x="33" y="70"/>
      <point x="83" y="0"/>
    </contour>
    <contour>
      <point x="170" y="49" type="curve" smooth="yes"/>
      <point x="111" y="49"/>
      <point x="81" y="95"/>
      <point x="81" y="162" type="curve" smooth="yes"/>
      <point x="81" y="238"/>
      <point x="128" y="321"/>
      <point x="212" y="321" type="curve" smooth="yes"/>
      <point x="266" y="321"/>
      <point x="303" y="290"/>
      <point x="303" y="221" type="curve" smooth="yes"/>
      <point x="303" y="120"/>
      <point x="249" y="49"/>
    </contour>
    <contour>
      <point x="611" y="0" type="curve" smooth="yes"/>
      <point x="714" y="0"/>
      <point x="810" y="80"/>
      <point x="810" y="214" type="curve" smooth="yes"/>
      <point x="810" y="321"/>
      <point x="741" y="369"/>
      <point x="656" y="369" type="curve" smooth="yes"/>
      <point x="541" y="369"/>
      <point x="466" y="263"/>
      <point x="466" y="160" type="curve" smooth="yes"/>
      <point x="466" y="70"/>
      <point x="516" y="0"/>
    </contour>
    <contour>
      <point x="603" y="49" type="curve" smooth="yes"/>
      <point x="544" y="49"/>
      <point x="514" y="95"/>
      <point x="514" y="162" type="curve" smooth="yes"/>
      <point x="514" y="238"/>
      <point x="561" y="321"/>
      <point x="645" y="321" type="curve" smooth="yes"/>
      <point x="699" y="321"/>
      <point x="736" y="290"/>
      <point x="736" y="221" type="curve" smooth="yes"/>
      <point x="736" y="120"/>
      <point x="682" y="49"/>
    </contour>
    <contour>
      <point x="479" y="412" type="curve" smooth="yes"/>
      <point x="582" y="412"/>
      <point x="678" y="492"/>
      <point x="678" y="626" type="curve" smooth="yes"/>
      <point x="678" y="733"/>
      <point x="609" y="781"/>
      <point x="524" y="781" type="curve" smooth="yes"/>
      <point x="409" y="781"/>
      <point x="334" y="675"/>
      <point x="334" y="572" type="curve" smooth="yes"/>
      <point x="334" y="482"/>
      <point x="384" y="412"/>
    </contour>
    <contour>
      <point x="471" y="461" type="curve" smooth="yes"/>
      <point x="412" y="461"/>
      <point x="382" y="507"/>
      <point x="382" y="574" type="curve" smooth="yes"/>
      <point x="382" y="650"/>
      <point x="429" y="733"/>
      <point x="513" y="733" type="curve" smooth="yes"/>
      <point x="567" y="733"/>
      <point x="604" y="702"/>
      <point x="604" y="633" type="curve" smooth="yes"/>
      <point x="604" y="532"/>
      <point x="550" y="461"/>
    </contour>
  </outline>
</glyph>
<glyph name="aa-tamil" format="2">
  <advance width="1458"/>
  <unicode hex="0B86"/>
  <note>
uni0B86
</note>
  <anchor x="654" y="0" name="bottom"/>
  <anchor x="361" y="-122" name="nukta"/>
  <anchor x="783" y="554" name="top"/>
  <anchor x="782" y="554" name="vedic"/>
  <outline>
    <contour>
      <point x="886" y="-443" type="curve" smooth="yes"/>
      <point x="1117" y="-443"/>
      <point x="1350" y="-299"/>
      <point x="1350" y="-78" type="curve" smooth="yes"/>
      <point x="1350" y="9"/>
      <point x="1298" y="45"/>
      <point x="1239" y="45" type="curve" smooth="yes"/>
      <point x="1174" y="45"/>
      <point x="1113" y="-14"/>
      <point x="1090" y="-105" type="curve"/>
      <point x="1112" y="-117" type="line"/>
      <point x="1124" y="-61"/>
      <point x="1161" y="-36"/>
      <point x="1195" y="-36" type="curve" smooth="yes"/>
      <point x="1231" y="-36"/>
      <point x="1254" y="-56"/>
      <point x="1254" y="-103" type="curve" smooth="yes"/>
      <point x="1254" y="-262"/>
      <point x="1057" y="-389"/>
      <point x="881" y="-389" type="curve" smooth="yes"/>
      <point x="766" y="-389"/>
      <point x="707" y="-349"/>
      <point x="707" y="-288" type="curve" smooth="yes"/>
      <point x="707" y="-236"/>
      <point x="756" y="-205"/>
      <point x="831" y="-193" type="curve"/>
      <point x="825" y="-140" type="line"/>
      <point x="720" y="-158"/>
      <point x="652" y="-209"/>
      <point x="652" y="-294" type="curve" smooth="yes"/>
      <point x="652" y="-380"/>
      <point x="733" y="-443"/>
    </contour>
    <component base="a-tamil"/>
  </outline>
</glyph>
<glyph name="i-tamil" format="2">
  <advance width="1003"/>
  <unicode hex="0B87"/>
  <note>
uni0B87
</note>
  <anchor x="414" y="0" name="bottom"/>
  <anchor x="365" y="-258" name="nukta"/>
  <anchor x="564" y="829" name="top"/>
  <anchor x="517" y="554" name="vedic"/>
  <outline>
    <contour>
      <point x="130" y="-297" type="curve" smooth="yes"/>
      <point x="461" y="-297"/>
      <point x="761" y="10"/>
      <point x="761" y="325" type="curve" smooth="yes"/>
      <point x="761" y="479"/>
      <point x="665" y="559"/>
      <point x="515" y="559" type="curve" smooth="yes"/>
      <point x="389" y="559"/>
      <point x="281" y="477"/>
      <point x="281" y="364" type="curve" smooth="yes"/>
      <point x="281" y="291"/>
      <point x="338" y="248"/>
      <point x="411" y="248" type="curve" smooth="yes"/>
      <point x="505" y="248"/>
      <point x="573" y="300"/>
      <point x="573" y="393" type="curve" smooth="yes"/>
      <point x="573" y="444"/>
      <point x="545" y="502"/>
      <point x="477" y="517" type="curve"/>
      <point x="424" y="514" type="line"/>
      <point x="470" y="492"/>
      <point x="487" y="457"/>
      <point x="487" y="408" type="curve" smooth="yes"/>
      <point x="487" y="353"/>
      <point x="458" y="302"/>
      <point x="399" y="302" type="curve" smooth="yes"/>
      <point x="363" y="302"/>
      <point x="339" y="327"/>
      <point x="339" y="368" type="curve" smooth="yes"/>
      <point x="339" y="449"/>
      <point x="413" y="505"/>
      <point x="504" y="505" type="curve" smooth="yes"/>
      <point x="604" y="505"/>
      <point x="670" y="440"/>
      <point x="670" y="333" type="curve" smooth="yes"/>
      <point x="670" y="35"/>
      <point x="431" y="-243"/>
      <point x="146" y="-243" type="curve" smooth="yes"/>
      <point x="75" y="-243"/>
      <point x="26" y="-211"/>
      <point x="26" y="-151" type="curve" smooth="yes"/>
      <point x="26" y="-14"/>
      <point x="243" y="57"/>
      <point x="409" y="57" type="curve" smooth="yes"/>
      <point x="562" y="57"/>
      <point x="746" y="5"/>
      <point x="746" y="-119" type="curve" smooth="yes"/>
      <point x="746" y="-209"/>
      <point x="677" y="-243"/>
      <point x="580" y="-243" type="curve" smooth="yes"/>
      <point x="359" y="-243"/>
      <point x="142" y="21"/>
      <point x="142" y="287" type="curve" smooth="yes"/>
      <point x="142" y="547"/>
      <point x="280" y="739"/>
      <point x="550" y="739" type="curve" smooth="yes"/>
      <point x="762" y="739"/>
      <point x="890" y="617"/>
      <point x="890" y="422" type="curve" smooth="yes"/>
      <point x="890" y="385"/>
      <point x="886" y="347"/>
      <point x="877" y="306" type="curve" smooth="yes"/>
      <point x="828" y="86" type="line"/>
      <point x="885" y="86" type="line"/>
      <point x="934" y="306" type="line" smooth="yes"/>
      <point x="946" y="361"/>
      <point x="952" y="412"/>
      <point x="952" y="459" type="curve" smooth="yes"/>
      <point x="952" y="690"/>
      <point x="812" y="829"/>
      <point x="564" y="829" type="curve" smooth="yes"/>
      <point x="258" y="829"/>
      <point x="78" y="602"/>
      <point x="78" y="300" type="curve" smooth="yes"/>
      <point x="78" y="-8"/>
      <point x="321" y="-297"/>
      <point x="597" y="-297" type="curve" smooth="yes"/>
      <point x="715" y="-297"/>
      <point x="812" y="-242"/>
      <point x="812" y="-121" type="curve" smooth="yes"/>
      <point x="812" y="41"/>
      <point x="608" y="110"/>
      <point x="415" y="110" type="curve" smooth="yes"/>
      <point x="196" y="110"/>
      <point x="-42" y="19"/>
      <point x="-42" y="-165" type="curve" smooth="yes"/>
      <point x="-42" y="-249"/>
      <point x="26" y="-297"/>
    </contour>
  </outline>
</glyph>
<glyph name="ii-tamil" format="2">
  <advance width="746"/>
  <unicode hex="0B88"/>
  <note>
uni0B88
</note>
  <anchor x="328" y="0" name="bottom"/>
  <anchor x="328" y="0" name="nukta"/>
  <anchor x="448" y="554" name="top"/>
  <anchor x="448" y="554" name="vedic"/>
  <outline>
    <contour>
      <point x="39" y="0" type="line"/>
      <point x="99" y="0" type="line"/>
      <point x="205" y="500" type="line"/>
      <point x="471" y="500" type="line"/>
      <point x="364" y="0" type="line"/>
      <point x="457" y="0" type="line"/>
      <point x="563" y="500" type="line"/>
      <point x="741" y="500" type="line"/>
      <point x="753" y="554" type="line"/>
      <point x="157" y="554" type="line"/>
    </contour>
    <contour>
      <point x="285" y="211" type="curve" smooth="yes"/>
      <point x="315" y="211"/>
      <point x="338" y="236"/>
      <point x="338" y="264" type="curve" smooth="yes"/>
      <point x="338" y="292"/>
      <point x="315" y="316"/>
      <point x="285" y="316" type="curve" smooth="yes"/>
      <point x="255" y="316"/>
      <point x="232" y="292"/>
      <point x="232" y="264" type="curve" smooth="yes"/>
      <point x="232" y="236"/>
      <point x="255" y="211"/>
    </contour>
    <contour>
      <point x="642" y="211" type="curve" smooth="yes"/>
      <point x="672" y="211"/>
      <point x="695" y="236"/>
      <point x="695" y="264" type="curve" smooth="yes"/>
      <point x="695" y="292"/>
      <point x="672" y="316"/>
      <point x="642" y="316" type="curve" smooth="yes"/>
      <point x="612" y="316"/>
      <point x="589" y="292"/>
      <point x="589" y="264" type="curve" smooth="yes"/>
      <point x="589" y="236"/>
      <point x="612" y="211"/>
    </contour>
  </outline>
</glyph>
<glyph name="u-tamil" format="2">
  <advance width="1007"/>
  <unicode hex="0B89"/>
  <note>
uni0B89
</note>
  <anchor x="476" y="0" name="bottom"/>
  <anchor x="476" y="0" name="nukta"/>
  <anchor x="596" y="554" name="top"/>
  <anchor x="597" y="554" name="vedic"/>
  <outline>
    <contour>
      <point x="98" y="0" type="curve" smooth="yes"/>
      <point x="929" y="0" type="line"/>
      <point x="941" y="54" type="line"/>
      <point x="101" y="54" type="line" smooth="yes"/>
      <point x="81" y="54"/>
      <point x="65" y="65"/>
      <point x="65" y="91" type="curve" smooth="yes"/>
      <point x="65" y="119"/>
      <point x="89" y="135"/>
      <point x="117" y="135" type="curve" smooth="yes"/>
      <point x="363" y="135" type="line" smooth="yes"/>
      <point x="530" y="135"/>
      <point x="661" y="208"/>
      <point x="661" y="360" type="curve" smooth="yes"/>
      <point x="661" y="495"/>
      <point x="550" y="559"/>
      <point x="412" y="559" type="curve" smooth="yes"/>
      <point x="278" y="559"/>
      <point x="156" y="484"/>
      <point x="156" y="375" type="curve" smooth="yes"/>
      <point x="156" y="311"/>
      <point x="198" y="247"/>
      <point x="298" y="247" type="curve" smooth="yes"/>
      <point x="392" y="247"/>
      <point x="460" y="299"/>
      <point x="460" y="385" type="curve" smooth="yes"/>
      <point x="460" y="448"/>
      <point x="416" y="498"/>
      <point x="368" y="519" type="curve"/>
      <point x="315" y="516" type="line"/>
      <point x="352" y="485"/>
      <point x="373" y="447"/>
      <point x="373" y="402" type="curve" smooth="yes"/>
      <point x="373" y="339"/>
      <point x="342" y="301"/>
      <point x="283" y="301" type="curve" smooth="yes"/>
      <point x="233" y="301"/>
      <point x="213" y="338"/>
      <point x="213" y="377" type="curve" smooth="yes"/>
      <point x="213" y="452"/>
      <point x="306" y="505"/>
      <point x="398" y="505" type="curve" smooth="yes"/>
      <point x="496" y="505"/>
      <point x="568" y="459"/>
      <point x="568" y="358" type="curve" smooth="yes"/>
      <point x="568" y="247"/>
      <point x="484" y="188"/>
      <point x="361" y="188" type="curve" smooth="yes"/>
      <point x="125" y="188" type="line" smooth="yes"/>
      <point x="53" y="188"/>
      <point x="7" y="145"/>
      <point x="7" y="83" type="curve" smooth="yes"/>
      <point x="7" y="34"/>
      <point x="46" y="0"/>
    </contour>
  </outline>
</glyph>
<glyph name="e-tamil" format="2">
  <advance width="913"/>
  <unicode hex="0B8E"/>
  <note>
uni0B8E
</note>
  <anchor x="436" y="0" name="bottom"/>
  <anchor x="437" y="0" name="nukta"/>
  <anchor x="555" y="554" name="top"/>
  <anchor x="557" y="554" name="vedic"/>
  <outline>
    <contour>
      <point x="251" y="-5" type="curve" smooth="yes"/>
      <point x="352" y="-5"/>
      <point x="434" y="55"/>
      <point x="434" y="166" type="curve" smooth="yes"/>
      <point x="434" y="239"/>
      <point x="381" y="303"/>
      <point x="289" y="303" type="curve" smooth="yes"/>
      <point x="194" y="303"/>
      <point x="122" y="229"/>
      <point x="98" y="123" type="curve"/>
      <point x="124" y="96" type="line"/>
      <point x="144" y="184"/>
      <point x="197" y="236"/>
      <point x="259" y="236" type="curve" smooth="yes"/>
      <point x="313" y="236"/>
      <point x="340" y="199"/>
      <point x="340" y="154" type="curve" smooth="yes"/>
      <point x="340" y="92"/>
      <point x="303" y="49"/>
      <point x="240" y="49" type="curve" smooth="yes"/>
      <point x="167" y="49"/>
      <point x="108" y="109"/>
      <point x="108" y="218" type="curve" smooth="yes"/>
      <point x="108" y="392"/>
      <point x="237" y="500"/>
      <point x="440" y="500" type="curve" smooth="yes"/>
      <point x="682" y="500" type="line"/>
      <point x="576" y="0" type="line"/>
      <point x="669" y="0" type="line"/>
      <point x="775" y="500" type="line"/>
      <point x="942" y="500" type="line"/>
      <point x="953" y="554" type="line"/>
      <point x="438" y="554" type="line" smooth="yes"/>
      <point x="199" y="554"/>
      <point x="50" y="417"/>
      <point x="50" y="213" type="curve" smooth="yes"/>
      <point x="50" y="81"/>
      <point x="138" y="-5"/>
    </contour>
  </outline>
</glyph>
<glyph name="ai-tamil" format="2">
  <advance width="967"/>
  <unicode hex="0B90"/>
  <note>
uni0B90
</note>
  <anchor x="426" y="0" name="bottom"/>
  <anchor x="354" y="-296" name="nukta"/>
  <anchor x="551" y="554" name="top"/>
  <anchor x="550" y="554" name="vedic"/>
  <outline>
    <contour>
      <point x="182" y="-296" type="curve" smooth="yes"/>
      <point x="279" y="-296"/>
      <point x="363" y="-255"/>
      <point x="407" y="-183" type="curve"/>
      <point x="420" y="-250"/>
      <point x="491" y="-296"/>
      <point x="595" y="-296" type="curve" smooth="yes"/>
      <point x="738" y="-296"/>
      <point x="836" y="-218"/>
      <point x="836" y="-71" type="curve" smooth="yes"/>
      <point x="836" y="-18"/>
      <point x="820" y="32"/>
      <point x="795" y="76" type="curve"/>
      <point x="747" y="47" type="line"/>
      <point x="768" y="12"/>
      <point x="779" y="-33"/>
      <point x="779" y="-72" type="curve" smooth="yes"/>
      <point x="779" y="-183"/>
      <point x="699" y="-235"/>
      <point x="594" y="-235" type="curve" smooth="yes"/>
      <point x="500" y="-235"/>
      <point x="459" y="-180"/>
      <point x="478" y="-82" type="curve" smooth="yes"/>
      <point x="486" y="-41" type="line"/>
      <point x="394" y="-41" type="line"/>
      <point x="385" y="-80" type="line" smooth="yes"/>
      <point x="362" y="-181"/>
      <point x="286" y="-241"/>
      <point x="191" y="-241" type="curve" smooth="yes"/>
      <point x="116" y="-241"/>
      <point x="68" y="-200"/>
      <point x="68" y="-120" type="curve" smooth="yes"/>
      <point x="68" y="44"/>
      <point x="237" y="57"/>
      <point x="474" y="78" type="curve" smooth="yes"/>
      <point x="700" y="98"/>
      <point x="918" y="158"/>
      <point x="918" y="384" type="curve" smooth="yes"/>
      <point x="918" y="506"/>
      <point x="828" y="559"/>
      <point x="733" y="559" type="curve" smooth="yes"/>
      <point x="648" y="559"/>
      <point x="576" y="516"/>
      <point x="532" y="437" type="curve"/>
      <point x="509" y="520"/>
      <point x="429" y="559"/>
      <point x="336" y="559" type="curve" smooth="yes"/>
      <point x="183" y="559"/>
      <point x="68" y="458"/>
      <point x="68" y="311" type="curve" smooth="yes"/>
      <point x="68" y="227"/>
      <point x="125" y="156"/>
      <point x="213" y="156" type="curve" smooth="yes"/>
      <point x="296" y="156"/>
      <point x="373" y="204"/>
      <point x="373" y="298" type="curve" smooth="yes"/>
      <point x="373" y="367"/>
      <point x="323" y="412"/>
      <point x="257" y="412" type="curve" smooth="yes"/>
      <point x="195" y="412"/>
      <point x="130" y="378"/>
      <point x="95" y="262" type="curve"/>
      <point x="113" y="224" type="line"/>
      <point x="143" y="322"/>
      <point x="184" y="352"/>
      <point x="221" y="352" type="curve" smooth="yes"/>
      <point x="258" y="352"/>
      <point x="281" y="328"/>
      <point x="281" y="291" type="curve" smooth="yes"/>
      <point x="281" y="244"/>
      <point x="253" y="210"/>
      <point x="204" y="210" type="curve" smooth="yes"/>
      <point x="162" y="210"/>
      <point x="124" y="245"/>
      <point x="124" y="308" type="curve" smooth="yes"/>
      <point x="124" y="422"/>
      <point x="213" y="505"/>
      <point x="330" y="505" type="curve" smooth="yes"/>
      <point x="439" y="505"/>
      <point x="486" y="434"/>
      <point x="463" y="324" type="curve" smooth="yes"/>
      <point x="440" y="215" type="line"/>
      <point x="532" y="215" type="line"/>
      <point x="562" y="364" type="line" smooth="yes"/>
      <point x="577" y="440"/>
      <point x="631" y="505"/>
      <point x="716" y="505" type="curve" smooth="yes"/>
      <point x="797" y="505"/>
      <point x="826" y="451"/>
      <point x="826" y="385" type="curve" smooth="yes"/>
      <point x="826" y="181"/>
      <point x="650" y="139"/>
      <point x="420" y="120" type="curve" smooth="yes"/>
      <point x="168" y="99"/>
      <point x="-23" y="73"/>
      <point x="-23" y="-120" type="curve" smooth="yes"/>
      <point x="-23" y="-233"/>
      <point x="62" y="-296"/>
    </contour>
  </outline>
</glyph>
<glyph name="o-tamil" format="2">
  <advance width="992"/>
  <unicode hex="0B92"/>
  <note>
uni0B92
</note>
  <anchor x="449" y="0" name="bottom"/>
  <anchor x="376" y="-335" name="nukta"/>
  <anchor x="540" y="554" name="top"/>
  <anchor x="546" y="554" name="vedic"/>
  <outline>
    <contour>
      <point x="247" y="-338" type="curve" smooth="yes"/>
      <point x="437" y="-338"/>
      <point x="505" y="-146"/>
      <point x="677" y="-146" type="curve" smooth="yes"/>
      <point x="709" y="-146" type="line"/>
      <point x="720" y="-93" type="line"/>
      <point x="688" y="-93" type="line" smooth="yes"/>
      <point x="585" y="-93"/>
      <point x="525" y="-26"/>
      <point x="525" y="55" type="curve" smooth="yes"/>
      <point x="525" y="105"/>
      <point x="548" y="160"/>
      <point x="597" y="208" type="curve"/>
      <point x="601" y="204" type="line"/>
      <point x="579" y="172"/>
      <point x="569" y="138"/>
      <point x="569" y="107" type="curve" smooth="yes"/>
      <point x="569" y="45"/>
      <point x="611" y="-5"/>
      <point x="691" y="-5" type="curve" smooth="yes"/>
      <point x="825" y="-5"/>
      <point x="926" y="86"/>
      <point x="926" y="235" type="curve" smooth="yes"/>
      <point x="926" y="470"/>
      <point x="708" y="559"/>
      <point x="506" y="559" type="curve" smooth="yes"/>
      <point x="256" y="559"/>
      <point x="48" y="415"/>
      <point x="48" y="213" type="curve" smooth="yes"/>
      <point x="48" y="81"/>
      <point x="136" y="-5"/>
      <point x="249" y="-5" type="curve" smooth="yes"/>
      <point x="350" y="-5"/>
      <point x="432" y="55"/>
      <point x="432" y="166" type="curve" smooth="yes"/>
      <point x="432" y="239"/>
      <point x="379" y="303"/>
      <point x="287" y="303" type="curve" smooth="yes"/>
      <point x="192" y="303"/>
      <point x="120" y="229"/>
      <point x="96" y="123" type="curve"/>
      <point x="122" y="96" type="line"/>
      <point x="142" y="184"/>
      <point x="195" y="236"/>
      <point x="257" y="236" type="curve" smooth="yes"/>
      <point x="311" y="236"/>
      <point x="338" y="199"/>
      <point x="338" y="154" type="curve" smooth="yes"/>
      <point x="338" y="92"/>
      <point x="301" y="49"/>
      <point x="238" y="49" type="curve" smooth="yes"/>
      <point x="165" y="49"/>
      <point x="106" y="109"/>
      <point x="106" y="218" type="curve" smooth="yes"/>
      <point x="106" y="386"/>
      <point x="282" y="505"/>
      <point x="498" y="505" type="curve" smooth="yes"/>
      <point x="667" y="505"/>
      <point x="835" y="419"/>
      <point x="835" y="245" type="curve" smooth="yes"/>
      <point x="835" y="139"/>
      <point x="781" y="49"/>
      <point x="690" y="49" type="curve" smooth="yes"/>
      <point x="643" y="49"/>
      <point x="622" y="78"/>
      <point x="622" y="117" type="curve" smooth="yes"/>
      <point x="622" y="160"/>
      <point x="646" y="215"/>
      <point x="690" y="260" type="curve"/>
      <point x="645" y="304" type="line"/>
      <point x="535" y="236"/>
      <point x="474" y="130"/>
      <point x="474" y="38" type="curve" smooth="yes"/>
      <point x="474" y="-25"/>
      <point x="503" y="-81"/>
      <point x="564" y="-113" type="curve"/>
      <point x="563" y="-118" type="line"/>
      <point x="425" y="-133"/>
      <point x="358" y="-272"/>
      <point x="236" y="-272" type="curve" smooth="yes"/>
      <point x="190" y="-272"/>
      <point x="162" y="-241"/>
      <point x="162" y="-201" type="curve" smooth="yes"/>
      <point x="162" y="-151"/>
      <point x="188" y="-129"/>
      <point x="234" y="-94" type="curve"/>
      <point x="203" y="-55" type="line"/>
      <point x="142" y="-101"/>
      <point x="103" y="-138"/>
      <point x="103" y="-211" type="curve" smooth="yes"/>
      <point x="103" y="-283"/>
      <point x="157" y="-338"/>
    </contour>
  </outline>
</glyph>
<glyph name="oo-tamil" format="2">
  <advance width="992"/>
  <unicode hex="0B93"/>
  <note>
uni0B93
</note>
  <anchor x="427" y="0" name="bottom"/>
  <anchor x="358" y="-315" name="nukta"/>
  <anchor x="540" y="554" name="top"/>
  <anchor x="546" y="554" name="vedic"/>
  <outline>
    <contour>
      <point x="234" y="-348" type="curve" smooth="yes"/>
      <point x="433" y="-348"/>
      <point x="504" y="-146"/>
      <point x="676" y="-146" type="curve" smooth="yes"/>
      <point x="692" y="-146" type="line"/>
      <point x="703" y="-93" type="line"/>
      <point x="687" y="-93" type="line" smooth="yes"/>
      <point x="584" y="-93"/>
      <point x="524" y="-26"/>
      <point x="524" y="55" type="curve" smooth="yes"/>
      <point x="524" y="105"/>
      <point x="547" y="159"/>
      <point x="596" y="207" type="curve"/>
      <point x="601" y="204" type="line"/>
      <point x="579" y="172"/>
      <point x="569" y="138"/>
      <point x="569" y="107" type="curve" smooth="yes"/>
      <point x="569" y="45"/>
      <point x="611" y="-5"/>
      <point x="691" y="-5" type="curve" smooth="yes"/>
      <point x="825" y="-5"/>
      <point x="926" y="86"/>
      <point x="926" y="235" type="curve" smooth="yes"/>
      <point x="926" y="470"/>
      <point x="708" y="559"/>
      <point x="506" y="559" type="curve" smooth="yes"/>
      <point x="256" y="559"/>
      <point x="48" y="415"/>
      <point x="48" y="213" type="curve" smooth="yes"/>
      <point x="48" y="81"/>
      <point x="136" y="-5"/>
      <point x="249" y="-5" type="curve" smooth="yes"/>
      <point x="350" y="-5"/>
      <point x="432" y="55"/>
      <point x="432" y="166" type="curve" smooth="yes"/>
      <point x="432" y="239"/>
      <point x="379" y="303"/>
      <point x="287" y="303" type="curve" smooth="yes"/>
      <point x="192" y="303"/>
      <point x="120" y="229"/>
      <point x="96" y="123" type="curve"/>
      <point x="122" y="96" type="line"/>
      <point x="142" y="184"/>
      <point x="195" y="236"/>
      <point x="257" y="236" type="curve" smooth="yes"/>
      <point x="311" y="236"/>
      <point x="338" y="199"/>
      <point x="338" y="154" type="curve" smooth="yes"/>
      <point x="338" y="92"/>
      <point x="301" y="49"/>
      <point x="238" y="49" type="curve" smooth="yes"/>
      <point x="165" y="49"/>
      <point x="106" y="109"/>
      <point x="106" y="218" type="curve" smooth="yes"/>
      <point x="106" y="386"/>
      <point x="282" y="505"/>
      <point x="498" y="505" type="curve" smooth="yes"/>
      <point x="667" y="505"/>
      <point x="835" y="419"/>
      <point x="835" y="245" type="curve" smooth="yes"/>
      <point x="835" y="139"/>
      <point x="781" y="49"/>
      <point x="690" y="49" type="curve" smooth="yes"/>
      <point x="643" y="49"/>
      <point x="622" y="78"/>
      <point x="622" y="117" type="curve" smooth="yes"/>
      <point x="622" y="160"/>
      <point x="646" y="215"/>
      <point x="690" y="260" type="curve"/>
      <point x="645" y="304" type="line"/>
      <point x="533" y="237"/>
      <point x="472" y="131"/>
      <point x="472" y="39" type="curve" smooth="yes"/>
      <point x="472" y="-24"/>
      <point x="501" y="-81"/>
      <point x="563" y="-113" type="curve"/>
      <point x="562" y="-118" type="line"/>
      <point x="424" y="-133"/>
      <point x="343" y="-282"/>
      <point x="221" y="-282" type="curve" smooth="yes"/>
      <point x="170" y="-282"/>
      <point x="145" y="-253"/>
      <point x="145" y="-214" type="curve" smooth="yes"/>
      <point x="145" y="-165"/>
      <point x="182" y="-139"/>
      <point x="222" y="-139" type="curve" smooth="yes"/>
      <point x="259" y="-139"/>
      <point x="287" y="-157"/>
      <point x="299" y="-190" type="curve"/>
      <point x="326" y="-179"/>
      <point x="361" y="-156"/>
      <point x="361" y="-119" type="curve" smooth="yes"/>
      <point x="361" y="-77"/>
      <point x="318" y="-57"/>
      <point x="268" y="-57" type="curve" smooth="yes"/>
      <point x="167" y="-57"/>
      <point x="86" y="-125"/>
      <point x="86" y="-222" type="curve" smooth="yes"/>
      <point x="86" y="-297"/>
      <point x="152" y="-348"/>
    </contour>
  </outline>
</glyph>
<glyph name="ka-tamil" format="2">
  <advance width="837"/>
  <unicode hex="0B95"/>
  <note>
uni0B95
</note>
  <anchor x="333" y="0" name="bottom"/>
  <anchor x="587" y="554" name="imatra"/>
  <anchor x="333" y="0" name="nukta"/>
  <anchor x="470" y="554" name="top"/>
  <anchor x="485" y="554" name="vedic"/>
  <outline>
    <contour>
      <point x="225" y="-4" type="curve" smooth="yes"/>
      <point x="355" y="-4"/>
      <point x="430" y="58"/>
      <point x="458" y="188" type="curve" smooth="yes"/>
      <point x="474" y="263" type="line"/>
      <point x="556" y="263" type="line" smooth="yes"/>
      <point x="627" y="263"/>
      <point x="664" y="230"/>
      <point x="664" y="168" type="curve" smooth="yes"/>
      <point x="664" y="96"/>
      <point x="613" y="51"/>
      <point x="537" y="51" type="curve" smooth="yes"/>
      <point x="502" y="51" type="line"/>
      <point x="491" y="-2" type="line"/>
      <point x="544" y="-2" type="line" smooth="yes"/>
      <point x="665" y="-2"/>
      <point x="757" y="61"/>
      <point x="757" y="174" type="curve" smooth="yes"/>
      <point x="757" y="265"/>
      <point x="691" y="317"/>
      <point x="566" y="317" type="curve" smooth="yes"/>
      <point x="485" y="317" type="line"/>
      <point x="524" y="500" type="line"/>
      <point x="696" y="500" type="line"/>
      <point x="707" y="554" type="line"/>
      <point x="223" y="554" type="line"/>
      <point x="166" y="286" type="line"/>
      <point x="226" y="286" type="line"/>
      <point x="271" y="500" type="line"/>
      <point x="431" y="500" type="line"/>
      <point x="392" y="317" type="line"/>
      <point x="249" y="317" type="line" smooth="yes"/>
      <point x="126" y="317"/>
      <point x="34" y="259"/>
      <point x="34" y="148" type="curve" smooth="yes"/>
      <point x="34" y="53"/>
      <point x="115" y="-4"/>
    </contour>
    <contour>
      <point x="221" y="49" type="curve" smooth="yes"/>
      <point x="151" y="49"/>
      <point x="99" y="85"/>
      <point x="99" y="155" type="curve" smooth="yes"/>
      <point x="99" y="229"/>
      <point x="159" y="263"/>
      <point x="245" y="263" type="curve" smooth="yes"/>
      <point x="381" y="263" type="line"/>
      <point x="364" y="181" type="line" smooth="yes"/>
      <point x="344" y="84"/>
      <point x="297" y="49"/>
    </contour>
  </outline>
</glyph>
<glyph name="nga-tamil" format="2">
  <advance width="1003"/>
  <unicode hex="0B99"/>
  <note>
uni0B99
</note>
  <anchor x="442" y="0" name="bottom"/>
  <anchor x="614" y="554" name="imatra"/>
  <anchor x="442" y="0" name="nukta"/>
  <anchor x="560" y="554" name="top"/>
  <anchor x="560" y="554" name="vedic"/>
  <outline>
    <contour>
      <point x="39" y="0" type="line"/>
      <point x="99" y="0" type="line"/>
      <point x="205" y="500" type="line"/>
      <point x="376" y="500" type="line"/>
      <point x="311" y="196" type="line"/>
      <point x="404" y="196" type="line"/>
      <point x="410" y="223" type="line" smooth="yes"/>
      <point x="420" y="270"/>
      <point x="460" y="316"/>
      <point x="510" y="316" type="curve" smooth="yes"/>
      <point x="553" y="316"/>
      <point x="586" y="289"/>
      <point x="586" y="234" type="curve" smooth="yes"/>
      <point x="586" y="127"/>
      <point x="492" y="54"/>
      <point x="394" y="54" type="curve" smooth="yes"/>
      <point x="281" y="54" type="line"/>
      <point x="269" y="0" type="line"/>
      <point x="846" y="0" type="line"/>
      <point x="963" y="554" type="line"/>
      <point x="870" y="554" type="line"/>
      <point x="764" y="54" type="line"/>
      <point x="516" y="54" type="line"/>
      <point x="600" y="83"/>
      <point x="681" y="147"/>
      <point x="681" y="251" type="curve" smooth="yes"/>
      <point x="681" y="337"/>
      <point x="621" y="379"/>
      <point x="553" y="379" type="curve" smooth="yes"/>
      <point x="490" y="379"/>
      <point x="452" y="346"/>
      <point x="429" y="312" type="curve"/>
      <point x="469" y="500" type="line"/>
      <point x="630" y="500" type="line"/>
      <point x="642" y="554" type="line"/>
      <point x="157" y="554" type="line"/>
    </contour>
  </outline>
</glyph>
<glyph name="ja-tamil" format="2">
  <advance width="962"/>
  <unicode hex="0B9C"/>
  <note>
uni0B9C
</note>
  <anchor x="428" y="0" name="bottom"/>
  <anchor x="356" y="-296" name="nukta"/>
  <anchor x="547" y="554" name="top"/>
  <anchor x="546" y="554" name="vedic"/>
  <outline>
    <contour>
      <point x="157" y="-296" type="curve" smooth="yes"/>
      <point x="370" y="-296"/>
      <point x="448" y="-17"/>
      <point x="632" y="-17" type="curve" smooth="yes"/>
      <point x="698" y="-17"/>
      <point x="732" y="-58"/>
      <point x="732" y="-112" type="curve" smooth="yes"/>
      <point x="732" y="-190"/>
      <point x="685" y="-247"/>
      <point x="602" y="-247" type="curve" smooth="yes"/>
      <point x="574" y="-247"/>
      <point x="542" y="-239"/>
      <point x="509" y="-219" type="curve"/>
      <point x="483" y="-258" type="line"/>
      <point x="522" y="-284"/>
      <point x="567" y="-296"/>
      <point x="616" y="-296" type="curve" smooth="yes"/>
      <point x="726" y="-296"/>
      <point x="825" y="-234"/>
      <point x="825" y="-112" type="curve" smooth="yes"/>
      <point x="825" y="-4"/>
      <point x="743" y="37"/>
      <point x="649" y="37" type="curve" smooth="yes"/>
      <point x="425" y="37"/>
      <point x="336" y="-243"/>
      <point x="172" y="-243" type="curve" smooth="yes"/>
      <point x="99" y="-243"/>
      <point x="68" y="-195"/>
      <point x="68" y="-115" type="curve" smooth="yes"/>
      <point x="68" y="35"/>
      <point x="231" y="58"/>
      <point x="468" y="80" type="curve" smooth="yes"/>
      <point x="707" y="102"/>
      <point x="920" y="160"/>
      <point x="920" y="384" type="curve" smooth="yes"/>
      <point x="920" y="506"/>
      <point x="830" y="559"/>
      <point x="735" y="559" type="curve" smooth="yes"/>
      <point x="650" y="559"/>
      <point x="578" y="516"/>
      <point x="534" y="437" type="curve"/>
      <point x="511" y="520"/>
      <point x="431" y="559"/>
      <point x="338" y="559" type="curve" smooth="yes"/>
      <point x="185" y="559"/>
      <point x="70" y="458"/>
      <point x="70" y="311" type="curve" smooth="yes"/>
      <point x="70" y="227"/>
      <point x="127" y="156"/>
      <point x="215" y="156" type="curve" smooth="yes"/>
      <point x="298" y="156"/>
      <point x="375" y="204"/>
      <point x="375" y="298" type="curve" smooth="yes"/>
      <point x="375" y="367"/>
      <point x="325" y="412"/>
      <point x="259" y="412" type="curve" smooth="yes"/>
      <point x="197" y="412"/>
      <point x="132" y="378"/>
      <point x="97" y="262" type="curve"/>
      <point x="115" y="224" type="line"/>
      <point x="145" y="322"/>
      <point x="186" y="352"/>
      <point x="223" y="352" type="curve" smooth="yes"/>
      <point x="260" y="352"/>
      <point x="283" y="328"/>
      <point x="283" y="291" type="curve" smooth="yes"/>
      <point x="283" y="244"/>
      <point x="255" y="210"/>
      <point x="206" y="210" type="curve" smooth="yes"/>
      <point x="164" y="210"/>
      <point x="126" y="245"/>
      <point x="126" y="308" type="curve" smooth="yes"/>
      <point x="126" y="422"/>
      <point x="215" y="505"/>
      <point x="332" y="505" type="curve" smooth="yes"/>
      <point x="441" y="505"/>
      <point x="488" y="434"/>
      <point x="465" y="324" type="curve" smooth="yes"/>
      <point x="442" y="215" type="line"/>
      <point x="534" y="215" type="line"/>
      <point x="564" y="364" type="line" smooth="yes"/>
      <point x="579" y="440"/>
      <point x="633" y="505"/>
      <point x="718" y="505" type="curve" smooth="yes"/>
      <point x="799" y="505"/>
      <point x="828" y="451"/>
      <point x="828" y="385" type="curve" smooth="yes"/>
      <point x="828" y="183"/>
      <point x="657" y="143"/>
      <point x="414" y="122" type="curve" smooth="yes"/>
      <point x="162" y="100"/>
      <point x="-23" y="64"/>
      <point x="-23" y="-115" type="curve" smooth="yes"/>
      <point x="-23" y="-228"/>
      <point x="40" y="-296"/>
    </contour>
  </outline>
</glyph>
<glyph name="tta-tamil" format="2">
  <advance width="888"/>
  <unicode hex="0B9F"/>
  <note>
uni0B9F
</note>
  <anchor x="427" y="0" name="bottom"/>
  <anchor x="427" y="0" name="nukta"/>
  <anchor x="545" y="554" name="top"/>
  <anchor x="545" y="554" name="vedic"/>
  <outline>
    <contour>
      <point x="39" y="0" type="line"/>
      <point x="815" y="0" type="line"/>
      <point x="827" y="54" type="line"/>
      <point x="143" y="54" type="line"/>
      <point x="249" y="554" type="line"/>
      <point x="157" y="554" type="line"/>
    </contour>
  </outline>
</glyph>
<glyph name="nna-tamil" format="2">
  <advance width="1715"/>
  <unicode hex="0BA3"/>
  <note>
uni0BA3
</note>
  <anchor x="859" y="0" name="bottom"/>
  <anchor x="1620" y="554" name="imatra"/>
  <anchor x="859" y="0" name="nukta"/>
  <anchor x="975" y="554" name="top"/>
  <anchor x="938" y="554" name="vedic"/>
  <outline>
    <contour>
      <point x="657" y="-5" type="curve" smooth="yes"/>
      <point x="763" y="-5"/>
      <point x="861" y="71"/>
      <point x="861" y="216" type="curve" smooth="yes"/>
      <point x="861" y="444"/>
      <point x="669" y="559"/>
      <point x="467" y="559" type="curve" smooth="yes"/>
      <point x="246" y="559"/>
      <point x="48" y="415"/>
      <point x="48" y="213" type="curve" smooth="yes"/>
      <point x="48" y="81"/>
      <point x="136" y="-5"/>
      <point x="249" y="-5" type="curve" smooth="yes"/>
      <point x="350" y="-5"/>
      <point x="432" y="55"/>
      <point x="432" y="166" type="curve" smooth="yes"/>
      <point x="432" y="239"/>
      <point x="379" y="303"/>
      <point x="287" y="303" type="curve" smooth="yes"/>
      <point x="192" y="303"/>
      <point x="120" y="229"/>
      <point x="96" y="123" type="curve"/>
      <point x="122" y="96" type="line"/>
      <point x="142" y="184"/>
      <point x="195" y="236"/>
      <point x="257" y="236" type="curve" smooth="yes"/>
      <point x="311" y="236"/>
      <point x="338" y="199"/>
      <point x="338" y="154" type="curve" smooth="yes"/>
      <point x="338" y="92"/>
      <point x="301" y="49"/>
      <point x="238" y="49" type="curve" smooth="yes"/>
      <point x="165" y="49"/>
      <point x="106" y="109"/>
      <point x="106" y="218" type="curve" smooth="yes"/>
      <point x="106" y="386"/>
      <point x="272" y="505"/>
      <point x="459" y="505" type="curve" smooth="yes"/>
      <point x="630" y="505"/>
      <point x="767" y="389"/>
      <point x="767" y="225" type="curve" smooth="yes"/>
      <point x="767" y="116"/>
      <point x="718" y="52"/>
      <point x="642" y="52" type="curve" smooth="yes"/>
      <point x="591" y="52"/>
      <point x="557" y="99"/>
      <point x="557" y="176" type="curve" smooth="yes"/>
      <point x="557" y="343"/>
      <point x="728" y="505"/>
      <point x="924" y="505" type="curve" smooth="yes"/>
      <point x="1101" y="505"/>
      <point x="1207" y="390"/>
      <point x="1207" y="230" type="curve" smooth="yes"/>
      <point x="1207" y="118"/>
      <point x="1156" y="52"/>
      <point x="1079" y="52" type="curve" smooth="yes"/>
      <point x="1027" y="52"/>
      <point x="997" y="94"/>
      <point x="997" y="173" type="curve" smooth="yes"/>
      <point x="997" y="363"/>
      <point x="1179" y="500"/>
      <point x="1373" y="500" type="curve" smooth="yes"/>
      <point x="1744" y="500" type="line"/>
      <point x="1756" y="554" type="line"/>
      <point x="1383" y="554" type="line" smooth="yes"/>
      <point x="1155" y="554"/>
      <point x="941" y="395"/>
      <point x="941" y="170" type="curve" smooth="yes"/>
      <point x="941" y="76"/>
      <point x="987" y="-5"/>
      <point x="1094" y="-5" type="curve" smooth="yes"/>
      <point x="1201" y="-5"/>
      <point x="1301" y="73"/>
      <point x="1301" y="221" type="curve" smooth="yes"/>
      <point x="1301" y="445"/>
      <point x="1140" y="559"/>
      <point x="932" y="559" type="curve" smooth="yes"/>
      <point x="702" y="559"/>
      <point x="501" y="375"/>
      <point x="501" y="173" type="curve" smooth="yes"/>
      <point x="501" y="79"/>
      <point x="550" y="-5"/>
    </contour>
    <contour>
      <point x="1378" y="0" type="line"/>
      <point x="1471" y="0" type="line"/>
      <point x="1584" y="529" type="line"/>
      <point x="1491" y="529" type="line"/>
    </contour>
  </outline>
</glyph>
<glyph name="na-tamil" format="2">
  <advance width="786"/>
  <unicode hex="0BA8"/>
  <note>
uni0BA8
</note>
  <anchor x="331" y="0" name="bottom"/>
  <anchor x="576" y="554" name="imatra"/>
  <anchor x="284" y="-181" name="nukta"/>
  <anchor x="450" y="554" name="top"/>
  <anchor x="460" y="554" name="vedic"/>
  <outline>
    <contour>
      <point x="55" y="-249" type="curve"/>
      <point x="70" y="-180"/>
      <point x="98" y="-140"/>
      <point x="190" y="-140" type="curve" smooth="yes"/>
      <point x="315" y="-140" type="line" smooth="yes"/>
      <point x="528" y="-140"/>
      <point x="708" y="-32"/>
      <point x="708" y="180" type="curve" smooth="yes"/>
      <point x="708" y="282"/>
      <point x="655" y="345"/>
      <point x="563" y="345" type="curve" smooth="yes"/>
      <point x="499" y="345"/>
      <point x="457" y="307"/>
      <point x="437" y="277" type="curve"/>
      <point x="484" y="500" type="line"/>
      <point x="634" y="500" type="line"/>
      <point x="646" y="554" type="line"/>
      <point x="156" y="554" type="line"/>
      <point x="39" y="0" type="line"/>
      <point x="99" y="0" type="line"/>
      <point x="205" y="500" type="line"/>
      <point x="392" y="500" type="line"/>
      <point x="286" y="0" type="line"/>
      <point x="378" y="0" type="line"/>
      <point x="418" y="188" type="line" smooth="yes"/>
      <point x="429" y="241"/>
      <point x="471" y="286"/>
      <point x="526" y="286" type="curve" smooth="yes"/>
      <point x="580" y="286"/>
      <point x="612" y="251"/>
      <point x="612" y="181" type="curve" smooth="yes"/>
      <point x="612" y="-5"/>
      <point x="493" y="-91"/>
      <point x="299" y="-91" type="curve" smooth="yes"/>
      <point x="166" y="-91" type="line" smooth="yes"/>
      <point x="55" y="-91"/>
      <point x="-19" y="-116"/>
      <point x="-19" y="-188" type="curve" smooth="yes"/>
      <point x="-19" y="-229"/>
      <point x="7" y="-249"/>
    </contour>
  </outline>
</glyph>
<glyph name="nnna-tamil" format="2">
  <advance width="1303"/>
  <unicode hex="0BA9"/>
  <note>
uni0BA9
</note>
  <anchor x="595" y="0" name="bottom"/>
  <anchor x="1208" y="554" name="imatra"/>
  <anchor x="595" y="0" name="nukta"/>
  <anchor x="737" y="554" name="top"/>
  <anchor x="732" y="554" name="vedic"/>
  <outline>
    <contour>
      <point x="249" y="-5" type="curve" smooth="yes"/>
      <point x="350" y="-5"/>
      <point x="432" y="55"/>
      <point x="432" y="166" type="curve" smooth="yes"/>
      <point x="432" y="239"/>
      <point x="379" y="303"/>
      <point x="287" y="303" type="curve" smooth="yes"/>
      <point x="192" y="303"/>
      <point x="120" y="229"/>
      <point x="96" y="123" type="curve"/>
      <point x="122" y="96" type="line"/>
      <point x="142" y="184"/>
      <point x="195" y="236"/>
      <point x="257" y="236" type="curve" smooth="yes"/>
      <point x="311" y="236"/>
      <point x="338" y="199"/>
      <point x="338" y="154" type="curve" smooth="yes"/>
      <point x="338" y="92"/>
      <point x="301" y="49"/>
      <point x="238" y="49" type="curve" smooth="yes"/>
      <point x="165" y="49"/>
      <point x="106" y="109"/>
      <point x="106" y="218" type="curve" smooth="yes"/>
      <point x="106" y="386"/>
      <point x="263" y="505"/>
      <point x="450" y="505" type="curve" smooth="yes"/>
      <point x="622" y="505"/>
      <point x="773" y="389"/>
      <point x="773" y="225" type="curve" smooth="yes"/>
      <point x="773" y="116"/>
      <point x="722" y="52"/>
      <point x="645" y="52" type="curve" smooth="yes"/>
      <point x="593" y="52"/>
      <point x="563" y="94"/>
      <point x="563" y="173" type="curve" smooth="yes"/>
      <point x="563" y="363"/>
      <point x="767" y="500"/>
      <point x="961" y="500" type="curve" smooth="yes"/>
      <point x="1332" y="500" type="line"/>
      <point x="1344" y="554" type="line"/>
      <point x="971" y="554" type="line" smooth="yes"/>
      <point x="743" y="554"/>
      <point x="507" y="395"/>
      <point x="507" y="170" type="curve" smooth="yes"/>
      <point x="507" y="76"/>
      <point x="553" y="-5"/>
      <point x="660" y="-5" type="curve" smooth="yes"/>
      <point x="767" y="-5"/>
      <point x="867" y="71"/>
      <point x="867" y="216" type="curve" smooth="yes"/>
      <point x="867" y="444"/>
      <point x="661" y="559"/>
      <point x="458" y="559" type="curve" smooth="yes"/>
      <point x="237" y="559"/>
      <point x="48" y="415"/>
      <point x="48" y="213" type="curve" smooth="yes"/>
      <point x="48" y="81"/>
      <point x="136" y="-5"/>
    </contour>
    <contour>
      <point x="966" y="0" type="line"/>
      <point x="1059" y="0" type="line"/>
      <point x="1172" y="529" type="line"/>
      <point x="1079" y="529" type="line"/>
    </contour>
  </outline>
</glyph>
<glyph name="pa-tamil" format="2">
  <advance width="885"/>
  <unicode hex="0BAA"/>
  <note>
uni0BAA
</note>
  <anchor x="383" y="0" name="bottom"/>
  <anchor x="836" y="554" name="imatra"/>
  <anchor x="383" y="0" name="nukta"/>
  <anchor x="501" y="554" name="top"/>
  <anchor x="501" y="554" name="vedic"/>
  <outline>
    <contour>
      <point x="39" y="0" type="line"/>
      <point x="728" y="0" type="line"/>
      <point x="846" y="554" type="line"/>
      <point x="753" y="554" type="line"/>
      <point x="647" y="54" type="line"/>
      <point x="143" y="54" type="line"/>
      <point x="249" y="554" type="line"/>
      <point x="157" y="554" type="line"/>
    </contour>
  </outline>
</glyph>
<glyph name="ma-tamil" format="2">
  <advance width="908"/>
  <unicode hex="0BAE"/>
  <note>
uni0BAE
</note>
  <anchor x="395" y="0" name="bottom"/>
  <anchor x="836" y="554" name="imatra"/>
  <anchor x="396" y="0" name="nukta"/>
  <anchor x="536" y="554" name="top"/>
  <anchor x="530" y="554" name="vedic"/>
  <outline>
    <contour>
      <point x="39" y="0" type="line"/>
      <point x="613" y="0" type="line" smooth="yes"/>
      <point x="771" y="0"/>
      <point x="840" y="125"/>
      <point x="840" y="316" type="curve" smooth="yes"/>
      <point x="840" y="462"/>
      <point x="772" y="559"/>
      <point x="651" y="559" type="curve" smooth="yes"/>
      <point x="551" y="559"/>
      <point x="485" y="501"/>
      <point x="462" y="392" type="curve" smooth="yes"/>
      <point x="391" y="54" type="line"/>
      <point x="143" y="54" type="line"/>
      <point x="249" y="554" type="line"/>
      <point x="157" y="554" type="line"/>
    </contour>
    <contour>
      <point x="484" y="54" type="line"/>
      <point x="555" y="393" type="line" smooth="yes"/>
      <point x="571" y="469"/>
      <point x="607" y="500"/>
      <point x="664" y="500" type="curve" smooth="yes"/>
      <point x="730" y="500"/>
      <point x="779" y="443"/>
      <point x="779" y="307" type="curve" smooth="yes"/>
      <point x="779" y="161"/>
      <point x="735" y="54"/>
      <point x="616" y="54" type="curve" smooth="yes"/>
    </contour>
  </outline>
</glyph>
<glyph name="ya-tamil" format="2">
  <advance width="960"/>
  <unicode hex="0BAF"/>
  <note>
uni0BAF
</note>
  <anchor x="436" y="0" name="bottom"/>
  <anchor x="911" y="554" name="imatra"/>
  <anchor x="436" y="0" name="nukta"/>
  <anchor x="541" y="554" name="top"/>
  <anchor x="540" y="554" name="vedic"/>
  <outline>
    <contour>
      <point x="187" y="-5" type="curve" smooth="yes"/>
      <point x="259" y="-5"/>
      <point x="303" y="43"/>
      <point x="317" y="65" type="curve"/>
      <point x="303" y="0" type="line"/>
      <point x="803" y="0" type="line"/>
      <point x="920" y="554" type="line"/>
      <point x="827" y="554" type="line"/>
      <point x="721" y="54" type="line"/>
      <point x="400" y="54" type="line"/>
      <point x="506" y="554" type="line"/>
      <point x="415" y="554" type="line"/>
      <point x="331" y="160" type="line" smooth="yes"/>
      <point x="318" y="100"/>
      <point x="283" y="56"/>
      <point x="224" y="56" type="curve" smooth="yes"/>
      <point x="173" y="56"/>
      <point x="144" y="96"/>
      <point x="157" y="157" type="curve" smooth="yes"/>
      <point x="241" y="554" type="line"/>
      <point x="150" y="554" type="line"/>
      <point x="69" y="174" type="line" smooth="yes"/>
      <point x="46" y="68"/>
      <point x="95" y="-5"/>
    </contour>
  </outline>
</glyph>
<glyph name="ra-tamil" format="2">
  <advance width="641"/>
  <unicode hex="0BB0"/>
  <note>
uni0BB0
</note>
  <anchor x="266" y="0" name="bottom"/>
  <anchor x="623" y="554" name="imatra"/>
  <anchor x="223" y="-199" name="nukta"/>
  <anchor x="415" y="554" name="top"/>
  <anchor x="422" y="554" name="vedic"/>
  <outline>
    <contour>
      <point x="116" y="-239" type="line"/>
      <point x="402" y="15" type="line"/>
      <point x="503" y="500" type="line"/>
      <point x="670" y="500" type="line"/>
      <point x="681" y="554" type="line"/>
      <point x="157" y="554" type="line"/>
      <point x="39" y="0" type="line"/>
      <point x="99" y="0" type="line"/>
      <point x="205" y="500" type="line"/>
      <point x="411" y="500" type="line"/>
      <point x="306" y="9" type="line"/>
      <point x="79" y="-195" type="line"/>
    </contour>
  </outline>
</glyph>
<glyph name="rra-tamil" format="2">
  <advance width="846"/>
  <unicode hex="0BB1"/>
  <note>
uni0BB1
</note>
  <anchor x="371" y="0" name="bottom"/>
  <anchor x="312" y="-199" name="nukta"/>
  <anchor x="452" y="554" name="top"/>
  <anchor x="487" y="554" name="vedic"/>
  <outline>
    <contour>
      <point x="60" y="-249" type="curve"/>
      <point x="75" y="-180"/>
      <point x="103" y="-142"/>
      <point x="195" y="-142" type="curve" smooth="yes"/>
      <point x="325" y="-142" type="line" smooth="yes"/>
      <point x="622" y="-142"/>
      <point x="782" y="26"/>
      <point x="782" y="329" type="curve" smooth="yes"/>
      <point x="782" y="470"/>
      <point x="716" y="559"/>
      <point x="589" y="559" type="curve" smooth="yes"/>
      <point x="502" y="559"/>
      <point x="441" y="502"/>
      <point x="418" y="466" type="curve"/>
      <point x="408" y="501"/>
      <point x="370" y="558"/>
      <point x="288" y="558" type="curve" smooth="yes"/>
      <point x="204" y="558"/>
      <point x="144" y="497"/>
      <point x="125" y="407" type="curve" smooth="yes"/>
      <point x="38" y="0" type="line"/>
      <point x="98" y="0" type="line"/>
      <point x="184" y="407" type="line" smooth="yes"/>
      <point x="197" y="470"/>
      <point x="233" y="504"/>
      <point x="283" y="504" type="curve" smooth="yes"/>
      <point x="349" y="504"/>
      <point x="368" y="448"/>
      <point x="355" y="385" type="curve" smooth="yes"/>
      <point x="273" y="0" type="line"/>
      <point x="366" y="0" type="line"/>
      <point x="448" y="384" type="line" smooth="yes"/>
      <point x="464" y="457"/>
      <point x="518" y="505"/>
      <point x="580" y="505" type="curve" smooth="yes"/>
      <point x="652" y="505"/>
      <point x="689" y="452"/>
      <point x="689" y="342" type="curve" smooth="yes"/>
      <point x="689" y="78"/>
      <point x="572" y="-88"/>
      <point x="328" y="-88" type="curve" smooth="yes"/>
      <point x="171" y="-88" type="line" smooth="yes"/>
      <point x="60" y="-88"/>
      <point x="-14" y="-116"/>
      <point x="-14" y="-188" type="curve" smooth="yes"/>
      <point x="-14" y="-229"/>
      <point x="12" y="-249"/>
    </contour>
  </outline>
</glyph>
<glyph name="la-tamil" format="2">
  <advance width="1038"/>
  <unicode hex="0BB2"/>
  <note>
uni0BB2
</note>
  <anchor x="463" y="0" name="bottom"/>
  <anchor x="463" y="0" name="nukta"/>
  <anchor x="603" y="554" name="top"/>
  <anchor x="577" y="554" name="vedic"/>
  <outline>
    <contour>
      <point x="251" y="-5" type="curve" smooth="yes"/>
      <point x="352" y="-5"/>
      <point x="434" y="55"/>
      <point x="434" y="166" type="curve" smooth="yes"/>
      <point x="434" y="239"/>
      <point x="381" y="303"/>
      <point x="289" y="303" type="curve" smooth="yes"/>
      <point x="194" y="303"/>
      <point x="122" y="229"/>
      <point x="98" y="123" type="curve"/>
      <point x="124" y="96" type="line"/>
      <point x="144" y="184"/>
      <point x="197" y="236"/>
      <point x="259" y="236" type="curve" smooth="yes"/>
      <point x="313" y="236"/>
      <point x="340" y="199"/>
      <point x="340" y="154" type="curve" smooth="yes"/>
      <point x="340" y="92"/>
      <point x="303" y="49"/>
      <point x="240" y="49" type="curve" smooth="yes"/>
      <point x="167" y="49"/>
      <point x="108" y="109"/>
      <point x="108" y="218" type="curve" smooth="yes"/>
      <point x="108" y="386"/>
      <point x="225" y="505"/>
      <point x="402" y="505" type="curve" smooth="yes"/>
      <point x="530" y="505"/>
      <point x="604" y="424"/>
      <point x="577" y="301" type="curve" smooth="yes"/>
      <point x="553" y="192" type="line" smooth="yes"/>
      <point x="529" y="85"/>
      <point x="582" y="0"/>
      <point x="701" y="0" type="curve" smooth="yes"/>
      <point x="867" y="0"/>
      <point x="987" y="158"/>
      <point x="987" y="344" type="curve" smooth="yes"/>
      <point x="987" y="431"/>
      <point x="958" y="503"/>
      <point x="916" y="560" type="curve"/>
      <point x="872" y="527" type="line"/>
      <point x="903" y="484"/>
      <point x="935" y="415"/>
      <point x="935" y="343" type="curve" smooth="yes"/>
      <point x="935" y="197"/>
      <point x="843" y="59"/>
      <point x="716" y="59" type="curve" smooth="yes"/>
      <point x="645" y="59"/>
      <point x="630" y="118"/>
      <point x="646" y="191" type="curve" smooth="yes"/>
      <point x="669" y="299" type="line" smooth="yes"/>
      <point x="704" y="463"/>
      <point x="598" y="559"/>
      <point x="410" y="559" type="curve" smooth="yes"/>
      <point x="199" y="559"/>
      <point x="50" y="415"/>
      <point x="50" y="213" type="curve" smooth="yes"/>
      <point x="50" y="81"/>
      <point x="138" y="-5"/>
    </contour>
  </outline>
</glyph>
<glyph name="lla-tamil" format="2">
  <advance width="1234"/>
  <unicode hex="0BB3"/>
  <note>
uni0BB3
</note>
  <anchor x="627" y="0" name="bottom"/>
  <anchor x="1209" y="554" name="imatra"/>
  <anchor x="627" y="0" name="nukta"/>
  <anchor x="745" y="554" name="top"/>
  <anchor x="700" y="554" name="vedic"/>
  <outline>
    <contour>
      <point x="251" y="-5" type="curve" smooth="yes"/>
      <point x="352" y="-5"/>
      <point x="434" y="55"/>
      <point x="434" y="166" type="curve" smooth="yes"/>
      <point x="434" y="239"/>
      <point x="381" y="303"/>
      <point x="289" y="303" type="curve" smooth="yes"/>
      <point x="194" y="303"/>
      <point x="122" y="229"/>
      <point x="98" y="123" type="curve"/>
      <point x="124" y="96" type="line"/>
      <point x="144" y="184"/>
      <point x="197" y="236"/>
      <point x="259" y="236" type="curve" smooth="yes"/>
      <point x="313" y="236"/>
      <point x="340" y="199"/>
      <point x="340" y="154" type="curve" smooth="yes"/>
      <point x="340" y="92"/>
      <point x="303" y="49"/>
      <point x="240" y="49" type="curve" smooth="yes"/>
      <point x="167" y="49"/>
      <point x="108" y="109"/>
      <point x="108" y="218" type="curve" smooth="yes"/>
      <point x="108" y="377"/>
      <point x="224" y="505"/>
      <point x="401" y="505" type="curve" smooth="yes"/>
      <point x="564" y="505"/>
      <point x="668" y="407"/>
      <point x="636" y="256" type="curve"/>
      <point x="692" y="260" type="line"/>
      <point x="726" y="442"/>
      <point x="595" y="559"/>
      <point x="402" y="559" type="curve" smooth="yes"/>
      <point x="188" y="559"/>
      <point x="50" y="406"/>
      <point x="50" y="213" type="curve" smooth="yes"/>
      <point x="50" y="81"/>
      <point x="138" y="-5"/>
    </contour>
    <contour>
      <point x="581" y="0" type="line"/>
      <point x="674" y="0" type="line"/>
      <point x="781" y="500" type="line"/>
      <point x="1004" y="500" type="line"/>
      <point x="898" y="0" type="line"/>
      <point x="990" y="0" type="line"/>
      <point x="1096" y="500" type="line"/>
      <point x="1263" y="500" type="line"/>
      <point x="1274" y="554" type="line"/>
      <point x="704" y="554" type="line"/>
      <point x="666" y="374" type="line"/>
      <point x="660" y="369" type="line"/>
    </contour>
  </outline>
</glyph>
<glyph name="va-tamil" format="2">
  <advance width="1137"/>
  <unicode hex="0BB5"/>
  <note>
uni0BB5
</note>
  <anchor x="564" y="0" name="bottom"/>
  <anchor x="1016" y="554" name="imatra"/>
  <anchor x="564" y="0" name="nukta"/>
  <anchor x="620" y="554" name="top"/>
  <anchor x="609" y="554" name="vedic"/>
  <outline>
    <contour>
      <point x="249" y="-5" type="curve" smooth="yes"/>
      <point x="350" y="-5"/>
      <point x="432" y="55"/>
      <point x="432" y="166" type="curve" smooth="yes"/>
      <point x="432" y="239"/>
      <point x="379" y="303"/>
      <point x="287" y="303" type="curve" smooth="yes"/>
      <point x="192" y="303"/>
      <point x="120" y="229"/>
      <point x="96" y="123" type="curve"/>
      <point x="122" y="96" type="line"/>
      <point x="142" y="184"/>
      <point x="195" y="236"/>
      <point x="257" y="236" type="curve" smooth="yes"/>
      <point x="311" y="236"/>
      <point x="338" y="199"/>
      <point x="338" y="154" type="curve" smooth="yes"/>
      <point x="338" y="92"/>
      <point x="301" y="49"/>
      <point x="238" y="49" type="curve" smooth="yes"/>
      <point x="165" y="49"/>
      <point x="106" y="109"/>
      <point x="106" y="218" type="curve" smooth="yes"/>
      <point x="106" y="376"/>
      <point x="254" y="505"/>
      <point x="423" y="505" type="curve" smooth="yes"/>
      <point x="565" y="505"/>
      <point x="658" y="431"/>
      <point x="658" y="297" type="curve" smooth="yes"/>
      <point x="658" y="195"/>
      <point x="609" y="122"/>
      <point x="532" y="43" type="curve"/>
      <point x="540" y="0" type="line"/>
      <point x="980" y="0" type="line"/>
      <point x="1098" y="554" type="line"/>
      <point x="1005" y="554" type="line"/>
      <point x="898" y="54" type="line"/>
      <point x="620" y="54" type="line"/>
      <point x="689" y="112"/>
      <point x="754" y="191"/>
      <point x="754" y="310" type="curve" smooth="yes"/>
      <point x="754" y="478"/>
      <point x="609" y="559"/>
      <point x="435" y="559" type="curve" smooth="yes"/>
      <point x="224" y="559"/>
      <point x="48" y="400"/>
      <point x="48" y="213" type="curve" smooth="yes"/>
      <point x="48" y="81"/>
      <point x="136" y="-5"/>
    </contour>
  </outline>
</glyph>
<glyph name="sha-tamil" format="2">
  <advance width="1110"/>
  <unicode hex="0BB6"/>
  <note>
uni0BB6
</note>
  <anchor x="502" y="0" name="bottom"/>
  <anchor x="910" y="554" name="imatra"/>
  <anchor x="502" y="0" name="nukta"/>
  <anchor x="622" y="554" name="top"/>
  <anchor x="626" y="554" name="vedic"/>
  <outline>
    <contour>
      <point x="254" y="-5" type="curve" smooth="yes"/>
      <point x="361" y="-5"/>
      <point x="444" y="49"/>
      <point x="475" y="196" type="curve" smooth="yes"/>
      <point x="539" y="500" type="line"/>
      <point x="676" y="500" type="line"/>
      <point x="605" y="163" type="line" smooth="yes"/>
      <point x="584" y="58"/>
      <point x="640" y="-5"/>
      <point x="744" y="-5" type="curve" smooth="yes"/>
      <point x="935" y="-5"/>
      <point x="1066" y="214"/>
      <point x="1066" y="413" type="curve" smooth="yes"/>
      <point x="1066" y="506"/>
      <point x="1019" y="554"/>
      <point x="924" y="554" type="curve" smooth="yes"/>
      <point x="493" y="554" type="line"/>
      <point x="419" y="201" type="line" smooth="yes"/>
      <point x="394" y="81"/>
      <point x="332" y="54"/>
      <point x="270" y="54" type="curve" smooth="yes"/>
      <point x="187" y="54"/>
      <point x="152" y="115"/>
      <point x="169" y="206" type="curve" smooth="yes"/>
      <point x="243" y="554" type="line"/>
      <point x="150" y="554" type="line"/>
      <point x="79" y="213" type="line" smooth="yes"/>
      <point x="51" y="87"/>
      <point x="128" y="-5"/>
    </contour>
    <contour>
      <point x="765" y="54" type="curve" smooth="yes"/>
      <point x="702" y="54"/>
      <point x="684" y="98"/>
      <point x="698" y="162" type="curve" smooth="yes"/>
      <point x="770" y="500" type="line"/>
      <point x="909" y="500" type="line" smooth="yes"/>
      <point x="981" y="500"/>
      <point x="1006" y="468"/>
      <point x="1006" y="408" type="curve" smooth="yes"/>
      <point x="1006" y="257"/>
      <point x="900" y="54"/>
    </contour>
  </outline>
</glyph>
<glyph name="ha-tamil" format="2">
  <advance width="1620"/>
  <unicode hex="0BB9"/>
  <note>
uni0BB9
</note>
  <anchor x="757" y="0" name="bottom"/>
  <anchor x="724" y="-152" name="nukta"/>
  <anchor x="890" y="554" name="top"/>
  <anchor x="871" y="554" name="vedic"/>
  <outline>
    <contour>
      <point x="104" y="-259" type="curve"/>
      <point x="119" y="-190"/>
      <point x="147" y="-152"/>
      <point x="239" y="-152" type="curve" smooth="yes"/>
      <point x="1047" y="-152" type="line" smooth="yes"/>
      <point x="1344" y="-152"/>
      <point x="1559" y="16"/>
      <point x="1559" y="329" type="curve" smooth="yes"/>
      <point x="1559" y="470"/>
      <point x="1493" y="559"/>
      <point x="1366" y="559" type="curve" smooth="yes"/>
      <point x="1279" y="559"/>
      <point x="1218" y="502"/>
      <point x="1195" y="466" type="curve"/>
      <point x="1185" y="501"/>
      <point x="1147" y="558"/>
      <point x="1065" y="558" type="curve" smooth="yes"/>
      <point x="981" y="558"/>
      <point x="922" y="497"/>
      <point x="902" y="407" type="curve" smooth="yes"/>
      <point x="825" y="54" type="line"/>
      <point x="620" y="54" type="line"/>
      <point x="689" y="112"/>
      <point x="754" y="187"/>
      <point x="754" y="306" type="curve" smooth="yes"/>
      <point x="754" y="474"/>
      <point x="616" y="559"/>
      <point x="431" y="559" type="curve" smooth="yes"/>
      <point x="220" y="559"/>
      <point x="48" y="403"/>
      <point x="48" y="213" type="curve" smooth="yes"/>
      <point x="48" y="81"/>
      <point x="136" y="-5"/>
      <point x="249" y="-5" type="curve" smooth="yes"/>
      <point x="350" y="-5"/>
      <point x="432" y="55"/>
      <point x="432" y="166" type="curve" smooth="yes"/>
      <point x="432" y="239"/>
      <point x="379" y="303"/>
      <point x="287" y="303" type="curve" smooth="yes"/>
      <point x="192" y="303"/>
      <point x="120" y="229"/>
      <point x="96" y="123" type="curve"/>
      <point x="122" y="96" type="line"/>
      <point x="142" y="184"/>
      <point x="195" y="236"/>
      <point x="257" y="236" type="curve" smooth="yes"/>
      <point x="311" y="236"/>
      <point x="338" y="199"/>
      <point x="338" y="154" type="curve" smooth="yes"/>
      <point x="338" y="92"/>
      <point x="301" y="49"/>
      <point x="238" y="49" type="curve" smooth="yes"/>
      <point x="165" y="49"/>
      <point x="106" y="109"/>
      <point x="106" y="218" type="curve" smooth="yes"/>
      <point x="106" y="376"/>
      <point x="254" y="505"/>
      <point x="423" y="505" type="curve" smooth="yes"/>
      <point x="555" y="505"/>
      <point x="658" y="427"/>
      <point x="658" y="293" type="curve" smooth="yes"/>
      <point x="658" y="191"/>
      <point x="609" y="122"/>
      <point x="532" y="43" type="curve"/>
      <point x="540" y="0" type="line"/>
      <point x="875" y="0" type="line"/>
      <point x="961" y="407" type="line" smooth="yes"/>
      <point x="974" y="470"/>
      <point x="1010" y="504"/>
      <point x="1060" y="504" type="curve" smooth="yes"/>
      <point x="1126" y="504"/>
      <point x="1145" y="448"/>
      <point x="1132" y="385" type="curve" smooth="yes"/>
      <point x="1050" y="0" type="line"/>
      <point x="1143" y="0" type="line"/>
      <point x="1225" y="384" type="line" smooth="yes"/>
      <point x="1241" y="457"/>
      <point x="1295" y="505"/>
      <point x="1357" y="505" type="curve" smooth="yes"/>
      <point x="1429" y="505"/>
      <point x="1466" y="452"/>
      <point x="1466" y="342" type="curve" smooth="yes"/>
      <point x="1466" y="68"/>
      <point x="1294" y="-98"/>
      <point x="1050" y="-98" type="curve" smooth="yes"/>
      <point x="215" y="-98" type="line" smooth="yes"/>
      <point x="104" y="-98"/>
      <point x="30" y="-126"/>
      <point x="30" y="-198" type="curve" smooth="yes"/>
      <point x="30" y="-239"/>
      <point x="56" y="-259"/>
    </contour>
  </outline>
</glyph>
<glyph name="aaMatra-tamil" format="2">
  <advance width="664"/>
  <unicode hex="0BBE"/>
  <note>
uni0BBE
</note>
  <outline>
    <contour>
      <point x="39" y="0" type="line"/>
      <point x="99" y="0" type="line"/>
      <point x="205" y="500" type="line"/>
      <point x="429" y="500" type="line"/>
      <point x="322" y="0" type="line"/>
      <point x="415" y="0" type="line"/>
      <point x="521" y="500" type="line"/>
      <point x="693" y="500" type="line"/>
      <point x="705" y="554" type="line"/>
      <point x="157" y="554" type="line"/>
    </contour>
  </outline>
</glyph>
<glyph name="iMatra-tamil" format="2">
  <advance width="227"/>
  <unicode hex="0BBF"/>
  <note>
uni0BBF
</note>
  <outline>
    <contour>
      <point x="13" y="0" type="line"/>
      <point x="73" y="0" type="line"/>
      <point x="189" y="544" type="line" smooth="yes"/>
      <point x="195" y="571"/>
      <point x="197" y="596"/>
      <point x="197" y="620" type="curve" smooth="yes"/>
      <point x="197" y="749"/>
      <point x="118" y="834"/>
      <point x="-28" y="834" type="curve" smooth="yes"/>
      <point x="-160" y="834"/>
      <point x="-256" y="748"/>
      <point x="-256" y="638" type="curve" smooth="yes"/>
      <point x="-256" y="555"/>
      <point x="-205" y="500"/>
      <point x="-137" y="500" type="curve" smooth="yes"/>
      <point x="-132" y="500" type="line"/>
      <point x="-121" y="554" type="line"/>
      <point x="-126" y="554" type="line" smooth="yes"/>
      <point x="-168" y="554"/>
      <point x="-193" y="584"/>
      <point x="-193" y="628" type="curve" smooth="yes"/>
      <point x="-193" y="700"/>
      <point x="-120" y="746"/>
      <point x="-34" y="746" type="curve" smooth="yes"/>
      <point x="68" y="746"/>
      <point x="133" y="693"/>
      <point x="133" y="592" type="curve" smooth="yes"/>
      <point x="133" y="573"/>
      <point x="131" y="552"/>
      <point x="126" y="530" type="curve" smooth="yes"/>
    </contour>
  </outline>
</glyph>
<glyph name="iiMatra-tamil" format="2">
  <unicode hex="0BC0"/>
  <note>
uni0BC0
</note>
  <anchor x="59" y="554" name="_imatra"/>
  <outline>
    <contour>
      <point x="33" y="505" type="curve" smooth="yes"/>
      <point x="49" y="505" type="line"/>
      <point x="59" y="554" type="line"/>
      <point x="43" y="554" type="line" smooth="yes"/>
      <point x="-19" y="554"/>
      <point x="-71" y="592"/>
      <point x="-71" y="669" type="curve" smooth="yes"/>
      <point x="-71" y="761"/>
      <point x="3" y="828"/>
      <point x="112" y="828" type="curve" smooth="yes"/>
      <point x="177" y="828"/>
      <point x="222" y="799"/>
      <point x="222" y="740" type="curve" smooth="yes"/>
      <point x="222" y="687"/>
      <point x="185" y="656"/>
      <point x="134" y="656" type="curve" smooth="yes"/>
      <point x="87" y="656"/>
      <point x="65" y="687"/>
      <point x="65" y="730" type="curve" smooth="yes"/>
      <point x="65" y="766"/>
      <point x="81" y="811"/>
      <point x="111" y="851" type="curve"/>
      <point x="70" y="855" type="line"/>
      <point x="32" y="806"/>
      <point x="13" y="756"/>
      <point x="13" y="714" type="curve" smooth="yes"/>
      <point x="13" y="649"/>
      <point x="58" y="602"/>
      <point x="142" y="602" type="curve" smooth="yes"/>
      <point x="235" y="602"/>
      <point x="304" y="656"/>
      <point x="304" y="743" type="curve" smooth="yes"/>
      <point x="304" y="832"/>
      <point x="224" y="882"/>
      <point x="120" y="882" type="curve" smooth="yes"/>
      <point x="-23" y="882"/>
      <point x="-129" y="785"/>
      <point x="-129" y="663" type="curve" smooth="yes"/>
      <point x="-129" y="559"/>
      <point x="-56" y="505"/>
    </contour>
  </outline>
</glyph>
<glyph name="eMatra-tamil" format="2">
  <advance width="860"/>
  <unicode hex="0BC6"/>
  <note>
uni0BC6
</note>
  <outline>
    <contour>
      <point x="309" y="-5" type="curve" smooth="yes"/>
      <point x="410" y="-5"/>
      <point x="494" y="57"/>
      <point x="494" y="168" type="curve" smooth="yes"/>
      <point x="494" y="245"/>
      <point x="441" y="308"/>
      <point x="349" y="308" type="curve" smooth="yes"/>
      <point x="254" y="308"/>
      <point x="182" y="234"/>
      <point x="158" y="128" type="curve"/>
      <point x="182" y="101" type="line"/>
      <point x="202" y="189"/>
      <point x="257" y="241"/>
      <point x="319" y="241" type="curve" smooth="yes"/>
      <point x="373" y="241"/>
      <point x="400" y="201"/>
      <point x="400" y="156" type="curve" smooth="yes"/>
      <point x="400" y="94"/>
      <point x="361" y="49"/>
      <point x="298" y="49" type="curve" smooth="yes"/>
      <point x="225" y="49"/>
      <point x="150" y="113"/>
      <point x="150" y="279" type="curve" smooth="yes"/>
      <point x="150" y="544"/>
      <point x="302" y="739"/>
      <point x="527" y="739" type="curve" smooth="yes"/>
      <point x="661" y="739"/>
      <point x="753" y="670"/>
      <point x="753" y="534" type="curve" smooth="yes"/>
      <point x="753" y="510"/>
      <point x="750" y="484"/>
      <point x="744" y="456" type="curve" smooth="yes"/>
      <point x="646" y="0" type="line"/>
      <point x="706" y="0" type="line"/>
      <point x="803" y="456" type="line" smooth="yes"/>
      <point x="811" y="493"/>
      <point x="815" y="528"/>
      <point x="815" y="560" type="curve" smooth="yes"/>
      <point x="815" y="729"/>
      <point x="710" y="829"/>
      <point x="538" y="829" type="curve" smooth="yes"/>
      <point x="253" y="829"/>
      <point x="92" y="570"/>
      <point x="92" y="274" type="curve" smooth="yes"/>
      <point x="92" y="89"/>
      <point x="196" y="-5"/>
    </contour>
  </outline>
</glyph>
<glyph name="eeMatra-tamil" format="2">
  <advance width="632"/>
  <unicode hex="0BC7"/>
  <note>
uni0BC7
</note>
  <outline>
    <contour>
      <point x="354" y="-5" type="curve" smooth="yes"/>
      <point x="462" y="-5"/>
      <point x="555" y="50"/>
      <point x="555" y="173" type="curve" smooth="yes"/>
      <point x="555" y="257"/>
      <point x="490" y="311"/>
      <point x="411" y="311" type="curve" smooth="yes"/>
      <point x="308" y="311"/>
      <point x="231" y="228"/>
      <point x="198" y="96" type="curve"/>
      <point x="226" y="73" type="line"/>
      <point x="259" y="185"/>
      <point x="306" y="243"/>
      <point x="372" y="243" type="curve" smooth="yes"/>
      <point x="426" y="243"/>
      <point x="461" y="213"/>
      <point x="461" y="157" type="curve" smooth="yes"/>
      <point x="461" y="90"/>
      <point x="411" y="49"/>
      <point x="347" y="49" type="curve" smooth="yes"/>
      <point x="240" y="49"/>
      <point x="138" y="172"/>
      <point x="138" y="350" type="curve" smooth="yes"/>
      <point x="138" y="532"/>
      <point x="274" y="775"/>
      <point x="470" y="775" type="curve" smooth="yes"/>
      <point x="540" y="775"/>
      <point x="574" y="735"/>
      <point x="574" y="684" type="curve" smooth="yes"/>
      <point x="574" y="620"/>
      <point x="534" y="581"/>
      <point x="473" y="581" type="curve" smooth="yes"/>
      <point x="396" y="581"/>
      <point x="369" y="661"/>
      <point x="370" y="771" type="curve"/>
      <point x="335" y="749" type="line"/>
      <point x="327" y="624"/>
      <point x="372" y="514"/>
      <point x="494" y="514" type="curve" smooth="yes"/>
      <point x="586" y="514"/>
      <point x="666" y="576"/>
      <point x="666" y="676" type="curve" smooth="yes"/>
      <point x="666" y="778"/>
      <point x="594" y="829"/>
      <point x="484" y="829" type="curve" smooth="yes"/>
      <point x="247" y="829"/>
      <point x="80" y="569"/>
      <point x="80" y="345" type="curve" smooth="yes"/>
      <point x="80" y="139"/>
      <point x="205" y="-5"/>
    </contour>
  </outline>
</glyph>
<glyph name="aiMatra-tamil" format="2">
  <advance width="1279"/>
  <unicode hex="0BC8"/>
  <note>
uni0BC8
</note>
  <outline>
    <contour>
      <point x="999" y="-4" type="line"/>
      <point x="1134" y="63"/>
      <point x="1226" y="151"/>
      <point x="1226" y="294" type="curve" smooth="yes"/>
      <point x="1226" y="454"/>
      <point x="1107" y="559"/>
      <point x="911" y="559" type="curve" smooth="yes"/>
      <point x="691" y="559"/>
      <point x="501" y="373"/>
      <point x="501" y="179" type="curve" smooth="yes"/>
      <point x="501" y="85"/>
      <point x="540" y="-5"/>
      <point x="652" y="-5" type="curve" smooth="yes"/>
      <point x="755" y="-5"/>
      <point x="865" y="77"/>
      <point x="865" y="222" type="curve" smooth="yes"/>
      <point x="865" y="463"/>
      <point x="676" y="559"/>
      <point x="476" y="559" type="curve" smooth="yes"/>
      <point x="246" y="559"/>
      <point x="48" y="414"/>
      <point x="48" y="213" type="curve" smooth="yes"/>
      <point x="48" y="77"/>
      <point x="129" y="-5"/>
      <point x="242" y="-5" type="curve" smooth="yes"/>
      <point x="343" y="-5"/>
      <point x="432" y="55"/>
      <point x="432" y="166" type="curve" smooth="yes"/>
      <point x="432" y="239"/>
      <point x="379" y="303"/>
      <point x="287" y="303" type="curve" smooth="yes"/>
      <point x="192" y="303"/>
      <point x="120" y="229"/>
      <point x="96" y="123" type="curve"/>
      <point x="122" y="96" type="line"/>
      <point x="142" y="184"/>
      <point x="195" y="236"/>
      <point x="257" y="236" type="curve" smooth="yes"/>
      <point x="311" y="236"/>
      <point x="338" y="199"/>
      <point x="338" y="154" type="curve" smooth="yes"/>
      <point x="338" y="92"/>
      <point x="294" y="49"/>
      <point x="231" y="49" type="curve" smooth="yes"/>
      <point x="158" y="49"/>
      <point x="106" y="105"/>
      <point x="106" y="218" type="curve" smooth="yes"/>
      <point x="106" y="385"/>
      <point x="273" y="505"/>
      <point x="468" y="505" type="curve" smooth="yes"/>
      <point x="637" y="505"/>
      <point x="771" y="408"/>
      <point x="771" y="231" type="curve" smooth="yes"/>
      <point x="771" y="122"/>
      <point x="711" y="52"/>
      <point x="637" y="52" type="curve" smooth="yes"/>
      <point x="581" y="52"/>
      <point x="557" y="105"/>
      <point x="557" y="182" type="curve" smooth="yes"/>
      <point x="557" y="340"/>
      <point x="713" y="505"/>
      <point x="902" y="505" type="curve" smooth="yes"/>
      <point x="1053" y="505"/>
      <point x="1129" y="419"/>
      <point x="1129" y="299" type="curve" smooth="yes"/>
      <point x="1129" y="188"/>
      <point x="1074" y="102"/>
      <point x="979" y="33" type="curve"/>
    </contour>
  </outline>
</glyph>
<glyph name="halant-tamil" format="2">
  <unicode hex="0BCD"/>
  <note>
uni0BCD
</note>
  <anchor x="59" y="554" name="_top"/>
  <anchor x="89" y="696" name="top"/>
  <outline>
    <contour>
      <point x="90" y="637" type="curve" smooth="yes"/>
      <point x="124" y="637"/>
      <point x="151" y="665"/>
      <point x="151" y="697" type="curve" smooth="yes"/>
      <point x="151" y="729"/>
      <point x="124" y="757"/>
      <point x="90" y="757" type="curve" smooth="yes"/>
      <point x="56" y="757"/>
      <point x="29" y="729"/>
      <point x="29" y="697" type="curve" smooth="yes"/>
      <point x="29" y="665"/>
      <point x="56" y="637"/>
    </contour>
  </outline>
</glyph>
<glyph name="om-tamil" format="2">
  <advance width="992"/>
  <unicode hex="0BD0"/>
  <note>
uni0BD0
</note>
  <outline>
    <contour>
      <point x="232" y="-388" type="curve" smooth="yes"/>
      <point x="499" y="-388"/>
      <point x="516" y="-146"/>
      <point x="688" y="-146" type="curve" smooth="yes"/>
      <point x="720" y="-146" type="line"/>
      <point x="731" y="-93" type="line"/>
      <point x="699" y="-93" type="line" smooth="yes"/>
      <point x="594" y="-93"/>
      <point x="530" y="-22"/>
      <point x="530" y="61" type="curve" smooth="yes"/>
      <point x="530" y="110"/>
      <point x="551" y="162"/>
      <point x="598" y="208" type="curve"/>
      <point x="602" y="204" type="line"/>
      <point x="580" y="172"/>
      <point x="570" y="138"/>
      <point x="570" y="107" type="curve" smooth="yes"/>
      <point x="570" y="45"/>
      <point x="612" y="-5"/>
      <point x="692" y="-5" type="curve" smooth="yes"/>
      <point x="826" y="-5"/>
      <point x="927" y="92"/>
      <point x="927" y="241" type="curve" smooth="yes"/>
      <point x="927" y="469"/>
      <point x="713" y="559"/>
      <point x="511" y="559" type="curve" smooth="yes"/>
      <point x="267" y="559"/>
      <point x="49" y="406"/>
      <point x="49" y="223" type="curve" smooth="yes"/>
      <point x="49" y="91"/>
      <point x="129" y="5"/>
      <point x="242" y="5" type="curve" smooth="yes"/>
      <point x="343" y="5"/>
      <point x="430" y="67"/>
      <point x="430" y="178" type="curve" smooth="yes"/>
      <point x="430" y="255"/>
      <point x="377" y="313"/>
      <point x="290" y="313" type="curve" smooth="yes"/>
      <point x="195" y="313"/>
      <point x="116" y="239"/>
      <point x="92" y="133" type="curve"/>
      <point x="118" y="106" type="line"/>
      <point x="138" y="194"/>
      <point x="198" y="246"/>
      <point x="260" y="246" type="curve" smooth="yes"/>
      <point x="312" y="246"/>
      <point x="336" y="213"/>
      <point x="336" y="166" type="curve" smooth="yes"/>
      <point x="336" y="104"/>
      <point x="294" y="59"/>
      <point x="231" y="59" type="curve" smooth="yes"/>
      <point x="158" y="59"/>
      <point x="107" y="119"/>
      <point x="107" y="228" type="curve" smooth="yes"/>
      <point x="107" y="377"/>
      <point x="293" y="505"/>
      <point x="503" y="505" type="curve" smooth="yes"/>
      <point x="672" y="505"/>
      <point x="836" y="415"/>
      <point x="836" y="251" type="curve" smooth="yes"/>
      <point x="836" y="145"/>
      <point x="782" y="49"/>
      <point x="691" y="49" type="curve" smooth="yes"/>
      <point x="644" y="49"/>
      <point x="623" y="78"/>
      <point x="623" y="117" type="curve" smooth="yes"/>
      <point x="623" y="160"/>
      <point x="647" y="215"/>
      <point x="691" y="260" type="curve"/>
      <point x="646" y="304" type="line"/>
      <point x="540" y="241"/>
      <point x="482" y="137"/>
      <point x="482" y="45" type="curve" smooth="yes"/>
      <point x="482" y="-21"/>
      <point x="512" y="-80"/>
      <point x="575" y="-113" type="curve"/>
      <point x="574" y="-118" type="line"/>
      <point x="446" y="-143"/>
      <point x="414" y="-322"/>
      <point x="218" y="-322" type="curve" smooth="yes"/>
      <point x="130" y="-322"/>
      <point x="78" y="-287"/>
      <point x="78" y="-222" type="curve" smooth="yes"/>
      <point x="78" y="-204"/>
      <point x="82" y="-183"/>
      <point x="91" y="-160" type="curve"/>
      <point x="37" y="-150" type="line"/>
      <point x="28" y="-177"/>
      <point x="23" y="-203"/>
      <point x="23" y="-226" type="curve" smooth="yes"/>
      <point x="23" y="-327"/>
      <point x="105" y="-388"/>
    </contour>
    <contour>
      <point x="123" y="-251" type="line"/>
      <point x="166" y="-251" type="line"/>
      <point x="198" y="-99" type="line"/>
      <point x="155" y="-99" type="line"/>
    </contour>
    <contour>
      <point x="142" y="-251" type="line"/>
      <point x="329" y="-251" type="line"/>
      <point x="337" y="-211" type="line"/>
      <point x="150" y="-211" type="line"/>
    </contour>
    <contour>
      <point x="216" y="-251" type="line"/>
      <point x="256" y="-251" type="line"/>
      <point x="275" y="-165" type="line" smooth="yes"/>
      <point x="278" y="-150"/>
      <point x="287" y="-136"/>
      <point x="305" y="-136" type="curve" smooth="yes"/>
      <point x="324" y="-136"/>
      <point x="330" y="-153"/>
      <point x="327" y="-168" type="curve" smooth="yes"/>
      <point x="309" y="-251" type="line"/>
      <point x="352" y="-251" type="line"/>
      <point x="369" y="-175" type="line" smooth="yes"/>
      <point x="380" y="-126"/>
      <point x="357" y="-97"/>
      <point x="310" y="-97" type="curve" smooth="yes"/>
      <point x="279" y="-97"/>
      <point x="245" y="-115"/>
      <point x="234" y="-166" type="curve" smooth="yes"/>
    </contour>
    <contour>
      <point x="274" y="-81" type="curve" smooth="yes"/>
      <point x="293" y="-81"/>
      <point x="308" y="-65"/>
      <point x="308" y="-48" type="curve" smooth="yes"/>
      <point x="308" y="-32"/>
      <point x="293" y="-16"/>
      <point x="274" y="-16" type="curve" smooth="yes"/>
      <point x="255" y="-16"/>
      <point x="240" y="-32"/>
      <point x="240" y="-48" type="curve" smooth="yes"/>
      <point x="240" y="-65"/>
      <point x="255" y="-81"/>
    </contour>
  </outline>
</glyph>
<glyph name="one-tamil" format="2">
  <advance width="841"/>
  <unicode hex="0BE7"/>
  <note>
uni0BE7
</note>
  <outline>
    <contour>
      <point x="225" y="-4" type="curve" smooth="yes"/>
      <point x="355" y="-4"/>
      <point x="430" y="58"/>
      <point x="458" y="188" type="curve" smooth="yes"/>
      <point x="474" y="263" type="line"/>
      <point x="556" y="263" type="line" smooth="yes"/>
      <point x="627" y="263"/>
      <point x="664" y="230"/>
      <point x="664" y="168" type="curve" smooth="yes"/>
      <point x="664" y="96"/>
      <point x="613" y="51"/>
      <point x="537" y="51" type="curve" smooth="yes"/>
      <point x="486" y="51"/>
      <point x="444" y="74"/>
      <point x="416" y="111" type="curve"/>
      <point x="377" y="72" type="line"/>
      <point x="417" y="23"/>
      <point x="472" y="-5"/>
      <point x="542" y="-5" type="curve" smooth="yes"/>
      <point x="660" y="-5"/>
      <point x="757" y="58"/>
      <point x="757" y="171" type="curve" smooth="yes"/>
      <point x="757" y="268"/>
      <point x="691" y="317"/>
      <point x="566" y="317" type="curve" smooth="yes"/>
      <point x="485" y="317" type="line"/>
      <point x="524" y="500" type="line"/>
      <point x="696" y="500" type="line"/>
      <point x="707" y="554" type="line"/>
      <point x="223" y="554" type="line"/>
      <point x="166" y="286" type="line"/>
      <point x="226" y="286" type="line"/>
      <point x="271" y="500" type="line"/>
      <point x="431" y="500" type="line"/>
      <point x="392" y="317" type="line"/>
      <point x="249" y="317" type="line" smooth="yes"/>
      <point x="126" y="317"/>
      <point x="34" y="259"/>
      <point x="34" y="148" type="curve" smooth="yes"/>
      <point x="34" y="53"/>
      <point x="115" y="-4"/>
    </contour>
    <contour>
      <point x="221" y="49" type="curve" smooth="yes"/>
      <point x="151" y="49"/>
      <point x="99" y="85"/>
      <point x="99" y="155" type="curve" smooth="yes"/>
      <point x="99" y="229"/>
      <point x="159" y="263"/>
      <point x="245" y="263" type="curve" smooth="yes"/>
      <point x="381" y="263" type="line"/>
      <point x="364" y="181" type="line" smooth="yes"/>
      <point x="344" y="84"/>
      <point x="297" y="49"/>
    </contour>
  </outline>
</glyph>
<glyph name="two-tamil" format="2">
  <advance width="923"/>
  <unicode hex="0BE8"/>
  <note>
uni0BE8
</note>
  <outline>
    <contour>
      <point x="98" y="0" type="curve" smooth="yes"/>
      <point x="848" y="0" type="line"/>
      <point x="859" y="54" type="line"/>
      <point x="101" y="54" type="line" smooth="yes"/>
      <point x="81" y="54"/>
      <point x="65" y="65"/>
      <point x="65" y="91" type="curve" smooth="yes"/>
      <point x="65" y="119"/>
      <point x="89" y="135"/>
      <point x="117" y="135" type="curve" smooth="yes"/>
      <point x="355" y="135" type="line" smooth="yes"/>
      <point x="530" y="135"/>
      <point x="660" y="216"/>
      <point x="660" y="363" type="curve" smooth="yes"/>
      <point x="660" y="498"/>
      <point x="554" y="559"/>
      <point x="403" y="559" type="curve" smooth="yes"/>
      <point x="246" y="559"/>
      <point x="124" y="456"/>
      <point x="124" y="333" type="curve" smooth="yes"/>
      <point x="124" y="210"/>
      <point x="219" y="149"/>
      <point x="343" y="149" type="curve"/>
      <point x="352" y="188" type="line"/>
      <point x="236" y="188"/>
      <point x="182" y="244"/>
      <point x="182" y="330" type="curve" smooth="yes"/>
      <point x="182" y="434"/>
      <point x="275" y="505"/>
      <point x="395" y="505" type="curve" smooth="yes"/>
      <point x="501" y="505"/>
      <point x="569" y="463"/>
      <point x="569" y="363" type="curve" smooth="yes"/>
      <point x="569" y="249"/>
      <point x="475" y="188"/>
      <point x="353" y="188" type="curve" smooth="yes"/>
      <point x="125" y="188" type="line" smooth="yes"/>
      <point x="53" y="188"/>
      <point x="7" y="145"/>
      <point x="7" y="83" type="curve" smooth="yes"/>
      <point x="7" y="34"/>
      <point x="46" y="0"/>
    </contour>
  </outline>
</glyph>
<glyph name="five-tamil" format="2">
  <advance width="1100"/>
  <unicode hex="0BEB"/>
  <note>
uni0BEB
</note>
  <outline>
    <contour>
      <point x="439" y="-296" type="curve" smooth="yes"/>
      <point x="735" y="-296"/>
      <point x="936" y="-103"/>
      <point x="936" y="166" type="curve" smooth="yes"/>
      <point x="936" y="282"/>
      <point x="878" y="345"/>
      <point x="785" y="345" type="curve" smooth="yes"/>
      <point x="692" y="345"/>
      <point x="642" y="280"/>
      <point x="622" y="185" type="curve" smooth="yes"/>
      <point x="612" y="138" type="line"/>
      <point x="638" y="138" type="line"/>
      <point x="648" y="188" type="line" smooth="yes"/>
      <point x="659" y="241"/>
      <point x="685" y="286"/>
      <point x="749" y="286" type="curve" smooth="yes"/>
      <point x="803" y="286"/>
      <point x="840" y="251"/>
      <point x="840" y="167" type="curve" smooth="yes"/>
      <point x="840" y="-70"/>
      <point x="693" y="-243"/>
      <point x="442" y="-243" type="curve" smooth="yes"/>
      <point x="220" y="-243"/>
      <point x="103" y="-55"/>
      <point x="103" y="152" type="curve" smooth="yes"/>
      <point x="103" y="474"/>
      <point x="294" y="739"/>
      <point x="608" y="739" type="curve" smooth="yes"/>
      <point x="813" y="739"/>
      <point x="1003" y="644"/>
      <point x="993" y="396" type="curve"/>
      <point x="1052" y="396" type="line"/>
      <point x="1071" y="683"/>
      <point x="879" y="829"/>
      <point x="619" y="829" type="curve" smooth="yes"/>
      <point x="248" y="829"/>
      <point x="42" y="507"/>
      <point x="42" y="146" type="curve" smooth="yes"/>
      <point x="42" y="-86"/>
      <point x="188" y="-296"/>
    </contour>
    <contour>
      <point x="269" y="0" type="line"/>
      <point x="329" y="0" type="line"/>
      <point x="436" y="500" type="line"/>
      <point x="622" y="500" type="line"/>
      <point x="515" y="0" type="line"/>
      <point x="609" y="0" type="line"/>
      <point x="715" y="500" type="line"/>
      <point x="863" y="500" type="line"/>
      <point x="875" y="554" type="line"/>
      <point x="386" y="554" type="line"/>
    </contour>
  </outline>
</glyph>
<glyph name="six-tamil" format="2">
  <advance width="1076"/>
  <unicode hex="0BEC"/>
  <note>
uni0BEC
</note>
  <outline>
    <contour>
      <point x="225" y="-4" type="curve" smooth="yes"/>
      <point x="355" y="-4"/>
      <point x="430" y="58"/>
      <point x="458" y="188" type="curve" smooth="yes"/>
      <point x="474" y="263" type="line"/>
      <point x="574" y="263" type="line" smooth="yes"/>
      <point x="607" y="263"/>
      <point x="625" y="248"/>
      <point x="618" y="216" type="curve" smooth="yes"/>
      <point x="571" y="0" type="line"/>
      <point x="661" y="0" type="line"/>
      <point x="706" y="211" type="line" smooth="yes"/>
      <point x="713" y="243"/>
      <point x="732" y="263"/>
      <point x="763" y="263" type="curve" smooth="yes"/>
      <point x="1029" y="263" type="line"/>
      <point x="1040" y="317" type="line"/>
      <point x="765" y="317" type="line" smooth="yes"/>
      <point x="720" y="317"/>
      <point x="686" y="295"/>
      <point x="671" y="256" type="curve"/>
      <point x="667" y="298"/>
      <point x="635" y="317"/>
      <point x="588" y="317" type="curve" smooth="yes"/>
      <point x="485" y="317" type="line"/>
      <point x="524" y="500" type="line"/>
      <point x="696" y="500" type="line"/>
      <point x="707" y="554" type="line"/>
      <point x="223" y="554" type="line"/>
      <point x="166" y="286" type="line"/>
      <point x="226" y="286" type="line"/>
      <point x="271" y="500" type="line"/>
      <point x="431" y="500" type="line"/>
      <point x="392" y="317" type="line"/>
      <point x="249" y="317" type="line" smooth="yes"/>
      <point x="126" y="317"/>
      <point x="34" y="259"/>
      <point x="34" y="148" type="curve" smooth="yes"/>
      <point x="34" y="53"/>
      <point x="115" y="-4"/>
    </contour>
    <contour>
      <point x="221" y="49" type="curve" smooth="yes"/>
      <point x="151" y="49"/>
      <point x="99" y="85"/>
      <point x="99" y="155" type="curve" smooth="yes"/>
      <point x="99" y="229"/>
      <point x="159" y="263"/>
      <point x="245" y="263" type="curve" smooth="yes"/>
      <point x="381" y="263" type="line"/>
      <point x="364" y="181" type="line" smooth="yes"/>
      <point x="344" y="84"/>
      <point x="297" y="49"/>
    </contour>
    <contour>
      <point x="791" y="0" type="line"/>
      <point x="882" y="0" type="line"/>
      <point x="943" y="288" type="line"/>
      <point x="852" y="288" type="line"/>
    </contour>
  </outline>
</glyph>
<glyph name="eight-tamil" format="2">
  <advance width="1296"/>
  <unicode hex="0BEE"/>
  <note>
uni0BEE
</note>
  <outline>
    <contour>
      <point x="1003" y="-203" type="line"/>
      <point x="1096" y="-203" type="line"/>
      <point x="1257" y="554" type="line"/>
      <point x="1164" y="554" type="line"/>
      <point x="1083" y="171" type="line"/>
      <point x="98" y="171" type="line" smooth="yes"/>
      <point x="34" y="171"/>
      <point x="-2" y="137"/>
      <point x="-2" y="80" type="curve" smooth="yes"/>
      <point x="-2" y="-12"/>
      <point x="154" y="-122"/>
      <point x="386" y="-122" type="curve" smooth="yes"/>
      <point x="693" y="-122"/>
      <point x="949" y="15"/>
      <point x="949" y="300" type="curve" smooth="yes"/>
      <point x="949" y="465"/>
      <point x="852" y="559"/>
      <point x="677" y="559" type="curve" smooth="yes"/>
      <point x="498" y="559"/>
      <point x="385" y="428"/>
      <point x="385" y="298" type="curve" smooth="yes"/>
      <point x="385" y="229"/>
      <point x="403" y="180"/>
      <point x="434" y="138" type="curve"/>
      <point x="503" y="138" type="line"/>
      <point x="465" y="183"/>
      <point x="446" y="228"/>
      <point x="446" y="293" type="curve" smooth="yes"/>
      <point x="446" y="403"/>
      <point x="532" y="505"/>
      <point x="664" y="505" type="curve" smooth="yes"/>
      <point x="795" y="505"/>
      <point x="854" y="418"/>
      <point x="854" y="295" type="curve" smooth="yes"/>
      <point x="854" y="49"/>
      <point x="641" y="-68"/>
      <point x="390" y="-68" type="curve" smooth="yes"/>
      <point x="195" y="-68"/>
      <point x="56" y="19"/>
      <point x="56" y="81" type="curve" smooth="yes"/>
      <point x="56" y="103"/>
      <point x="64" y="117"/>
      <point x="95" y="117" type="curve" smooth="yes"/>
      <point x="1072" y="117" type="line"/>
    </contour>
  </outline>
</glyph>
<glyph name="ten-tamil" format="2">
  <advance width="835"/>
  <unicode hex="0BF0"/>
  <note>
uni0BF0
</note>
  <outline>
    <contour>
      <point x="456" y="-5" type="curve" smooth="yes"/>
      <point x="649" y="-5"/>
      <point x="781" y="173"/>
      <point x="781" y="412" type="curve" smooth="yes"/>
      <point x="781" y="635"/>
      <point x="656" y="746"/>
      <point x="430" y="795" type="curve"/>
      <point x="410" y="743" type="line"/>
      <point x="620" y="699"/>
      <point x="721" y="597"/>
      <point x="721" y="405" type="curve" smooth="yes"/>
      <point x="721" y="218"/>
      <point x="621" y="49"/>
      <point x="468" y="49" type="curve" smooth="yes"/>
      <point x="413" y="49"/>
      <point x="396" y="88"/>
      <point x="410" y="154" type="curve" smooth="yes"/>
      <point x="494" y="554" type="line"/>
      <point x="404" y="554" type="line"/>
      <point x="325" y="180" type="line" smooth="yes"/>
      <point x="302" y="69"/>
      <point x="347" y="-5"/>
    </contour>
    <contour>
      <point x="182" y="-5" type="curve" smooth="yes"/>
      <point x="250" y="-5"/>
      <point x="328" y="33"/>
      <point x="356" y="164" type="curve" smooth="yes"/>
      <point x="366" y="211" type="line"/>
      <point x="331" y="211" type="line"/>
      <point x="320" y="160" type="line" smooth="yes"/>
      <point x="307" y="100"/>
      <point x="274" y="56"/>
      <point x="219" y="56" type="curve" smooth="yes"/>
      <point x="171" y="56"/>
      <point x="144" y="96"/>
      <point x="157" y="157" type="curve" smooth="yes"/>
      <point x="241" y="554" type="line"/>
      <point x="150" y="554" type="line"/>
      <point x="69" y="174" type="line" smooth="yes"/>
      <point x="46" y="68"/>
      <point x="93" y="-5"/>
    </contour>
  </outline>
</glyph>
<glyph name="onehundred-tamil" format="2">
  <advance width="867"/>
  <unicode hex="0BF1"/>
  <note>
uni0BF1
</note>
  <outline>
    <contour>
      <point x="245" y="0" type="line"/>
      <point x="304" y="0" type="line"/>
      <point x="410" y="500" type="line"/>
      <point x="631" y="500" type="line"/>
      <point x="525" y="0" type="line"/>
      <point x="617" y="0" type="line"/>
      <point x="724" y="500" type="line"/>
      <point x="896" y="500" type="line"/>
      <point x="908" y="554" type="line"/>
      <point x="363" y="554" type="line"/>
    </contour>
    <contour>
      <point x="12" y="0" type="line"/>
      <point x="72" y="0" type="line"/>
      <point x="159" y="415" type="line" smooth="yes"/>
      <point x="171" y="472"/>
      <point x="205" y="505"/>
      <point x="258" y="505" type="curve" smooth="yes"/>
      <point x="309" y="505"/>
      <point x="345" y="468"/>
      <point x="330" y="396" type="curve"/>
      <point x="361" y="396" type="line"/>
      <point x="383" y="497"/>
      <point x="332" y="559"/>
      <point x="248" y="559" type="curve" smooth="yes"/>
      <point x="171" y="559"/>
      <point x="116" y="500"/>
      <point x="100" y="422" type="curve" smooth="yes"/>
    </contour>
  </outline>
</glyph>
<glyph name="year-tamil" format="2">
  <advance width="2166"/>
  <unicode hex="0BF5"/>
  <note>
uni0BF5
</note>
  <anchor x="868" y="0" name="bottom"/>
  <anchor x="1450" y="554" name="imatra"/>
  <anchor x="868" y="0" name="nukta"/>
  <anchor x="986" y="554" name="top"/>
  <anchor x="941" y="554" name="vedic"/>
  <outline>
    <contour>
      <point x="742" y="-297" type="curve" smooth="yes"/>
      <point x="1149" y="-297"/>
      <point x="1545" y="-149"/>
      <point x="1545" y="174" type="curve" smooth="yes"/>
      <point x="1545" y="280"/>
      <point x="1488" y="345"/>
      <point x="1397" y="345" type="curve" smooth="yes"/>
      <point x="1304" y="345"/>
      <point x="1253" y="280"/>
      <point x="1233" y="185" type="curve" smooth="yes"/>
      <point x="1223" y="138" type="line"/>
      <point x="1250" y="138" type="line"/>
      <point x="1260" y="188" type="line" smooth="yes"/>
      <point x="1271" y="241"/>
      <point x="1297" y="286"/>
      <point x="1361" y="286" type="curve" smooth="yes"/>
      <point x="1415" y="286"/>
      <point x="1449" y="250"/>
      <point x="1449" y="175" type="curve" smooth="yes"/>
      <point x="1449" y="-112"/>
      <point x="1097" y="-243"/>
      <point x="744" y="-243" type="curve" smooth="yes"/>
      <point x="425" y="-243"/>
      <point x="137" y="-110"/>
      <point x="137" y="205" type="curve" smooth="yes"/>
      <point x="137" y="502"/>
      <point x="451" y="775"/>
      <point x="969" y="775" type="curve" smooth="yes"/>
      <point x="1499" y="775"/>
      <point x="1750" y="559"/>
      <point x="1690" y="280" type="curve" smooth="yes"/>
      <point x="1671" y="192" type="line" smooth="yes"/>
      <point x="1648" y="86"/>
      <point x="1700" y="0"/>
      <point x="1819" y="0" type="curve" smooth="yes"/>
      <point x="1985" y="0"/>
      <point x="2105" y="158"/>
      <point x="2105" y="344" type="curve" smooth="yes"/>
      <point x="2105" y="431"/>
      <point x="2081" y="501"/>
      <point x="2041" y="559" type="curve"/>
      <point x="1995" y="528" type="line"/>
      <point x="2025" y="484"/>
      <point x="2053" y="415"/>
      <point x="2053" y="343" type="curve" smooth="yes"/>
      <point x="2053" y="197"/>
      <point x="1961" y="59"/>
      <point x="1834" y="59" type="curve" smooth="yes"/>
      <point x="1763" y="59"/>
      <point x="1748" y="117"/>
      <point x="1764" y="191" type="curve" smooth="yes"/>
      <point x="1783" y="278" type="line" smooth="yes"/>
      <point x="1853" y="598"/>
      <point x="1552" y="829"/>
      <point x="975" y="829" type="curve" smooth="yes"/>
      <point x="401" y="829"/>
      <point x="80" y="526"/>
      <point x="80" y="199" type="curve" smooth="yes"/>
      <point x="80" y="-141"/>
      <point x="391" y="-297"/>
    </contour>
    <component base="lla-tamil" xOffset="241"/>
  </outline>
</glyph>
<glyph name="credit-tamil" format="2">
  <advance width="1516"/>
  <unicode hex="0BF7"/>
  <note>
uni0BF7
</note>
  <anchor x="436" y="0" name="bottom"/>
  <anchor x="437" y="0" name="nukta"/>
  <anchor x="555" y="554" name="top"/>
  <anchor x="557" y="554" name="vedic"/>
  <outline>
    <contour>
      <point x="933" y="-5" type="curve" smooth="yes"/>
      <point x="1042" y="-5"/>
      <point x="1123" y="69"/>
      <point x="1123" y="169" type="curve" smooth="yes"/>
      <point x="1123" y="273"/>
      <point x="1043" y="317"/>
      <point x="935" y="317" type="curve" smooth="yes"/>
      <point x="827" y="317"/>
      <point x="729" y="254"/>
      <point x="651" y="187" type="curve"/>
      <point x="637" y="119" type="line"/>
      <point x="721" y="197"/>
      <point x="809" y="263"/>
      <point x="917" y="263" type="curve" smooth="yes"/>
      <point x="980" y="263"/>
      <point x="1028" y="231"/>
      <point x="1028" y="163" type="curve" smooth="yes"/>
      <point x="1028" y="93"/>
      <point x="983" y="49"/>
      <point x="922" y="49" type="curve" smooth="yes"/>
      <point x="860" y="49"/>
      <point x="837" y="100"/>
      <point x="837" y="149" type="curve" smooth="yes"/>
      <point x="837" y="279"/>
      <point x="967" y="370"/>
      <point x="1096" y="370" type="curve" smooth="yes"/>
      <point x="1176" y="370"/>
      <point x="1277" y="340"/>
      <point x="1277" y="225" type="curve" smooth="yes"/>
      <point x="1277" y="152"/>
      <point x="1245" y="99"/>
      <point x="1183" y="43" type="curve"/>
      <point x="1191" y="0" type="line"/>
      <point x="1441" y="0" type="line"/>
      <point x="1452" y="54" type="line"/>
      <point x="1229" y="54" type="line"/>
      <point x="1238" y="32" type="line"/>
      <point x="1317" y="82"/>
      <point x="1371" y="142"/>
      <point x="1371" y="230" type="curve" smooth="yes"/>
      <point x="1371" y="373"/>
      <point x="1230" y="423"/>
      <point x="1109" y="423" type="curve" smooth="yes"/>
      <point x="943" y="423"/>
      <point x="777" y="311"/>
      <point x="777" y="142" type="curve" smooth="yes"/>
      <point x="777" y="64"/>
      <point x="825" y="-5"/>
    </contour>
    <component base="e-tamil"/>
  </outline>
</glyph>
<glyph name="asabove-tamil" format="2">
  <advance width="1909"/>
  <unicode hex="0BF8"/>
  <note>
uni0BF8
</note>
  <outline>
    <contour>
      <point x="683" y="-5" type="curve" smooth="yes"/>
      <point x="820" y="-5"/>
      <point x="933" y="111"/>
      <point x="933" y="301" type="curve" smooth="yes"/>
      <point x="933" y="550"/>
      <point x="756" y="657"/>
      <point x="528" y="657" type="curve" smooth="yes"/>
      <point x="258" y="657"/>
      <point x="51" y="437"/>
      <point x="51" y="223" type="curve" smooth="yes"/>
      <point x="51" y="85"/>
      <point x="137" y="-5"/>
      <point x="250" y="-5" type="curve" smooth="yes"/>
      <point x="350" y="-5"/>
      <point x="433" y="55"/>
      <point x="433" y="166" type="curve" smooth="yes"/>
      <point x="433" y="239"/>
      <point x="382" y="303"/>
      <point x="290" y="303" type="curve" smooth="yes"/>
      <point x="195" y="303"/>
      <point x="123" y="229"/>
      <point x="99" y="123" type="curve"/>
      <point x="125" y="96" type="line"/>
      <point x="145" y="184"/>
      <point x="198" y="236"/>
      <point x="260" y="236" type="curve" smooth="yes"/>
      <point x="314" y="236"/>
      <point x="339" y="199"/>
      <point x="339" y="154" type="curve" smooth="yes"/>
      <point x="339" y="92"/>
      <point x="301" y="49"/>
      <point x="239" y="49" type="curve" smooth="yes"/>
      <point x="166" y="49"/>
      <point x="109" y="113"/>
      <point x="109" y="228" type="curve" smooth="yes"/>
      <point x="109" y="408"/>
      <point x="286" y="603"/>
      <point x="520" y="603" type="curve" smooth="yes"/>
      <point x="712" y="603"/>
      <point x="843" y="502"/>
      <point x="843" y="314" type="curve" smooth="yes"/>
      <point x="843" y="160"/>
      <point x="773" y="52"/>
      <point x="669" y="52" type="curve" smooth="yes"/>
      <point x="606" y="52"/>
      <point x="571" y="105"/>
      <point x="571" y="182" type="curve" smooth="yes"/>
      <point x="571" y="340"/>
      <point x="719" y="505"/>
      <point x="915" y="505" type="curve" smooth="yes"/>
      <point x="1047" y="505"/>
      <point x="1149" y="439"/>
      <point x="1149" y="295" type="curve" smooth="yes"/>
      <point x="1149" y="198"/>
      <point x="1101" y="119"/>
      <point x="1023" y="43" type="curve"/>
      <point x="1031" y="0" type="line"/>
      <point x="1828" y="0" type="line"/>
      <point x="1841" y="62" type="line"/>
      <point x="1114" y="62" type="line"/>
      <point x="1183" y="119"/>
      <point x="1245" y="201"/>
      <point x="1245" y="308" type="curve" smooth="yes"/>
      <point x="1245" y="476"/>
      <point x="1109" y="559"/>
      <point x="923" y="559" type="curve" smooth="yes"/>
      <point x="693" y="559"/>
      <point x="515" y="371"/>
      <point x="515" y="179" type="curve" smooth="yes"/>
      <point x="515" y="79"/>
      <point x="565" y="-5"/>
    </contour>
    <contour>
      <point x="1521" y="-296" type="line"/>
      <point x="1615" y="-296" type="line"/>
      <point x="1758" y="376" type="line" smooth="yes"/>
      <point x="1780" y="478"/>
      <point x="1735" y="554"/>
      <point x="1615" y="554" type="curve" smooth="yes"/>
      <point x="1466" y="554"/>
      <point x="1353" y="399"/>
      <point x="1353" y="245" type="curve" smooth="yes"/>
      <point x="1353" y="117"/>
      <point x="1424" y="13"/>
      <point x="1567" y="13" type="curve"/>
      <point x="1575" y="54" type="line"/>
      <point x="1472" y="54"/>
      <point x="1410" y="140"/>
      <point x="1410" y="250" type="curve" smooth="yes"/>
      <point x="1410" y="368"/>
      <point x="1492" y="495"/>
      <point x="1601" y="495" type="curve" smooth="yes"/>
      <point x="1666" y="495"/>
      <point x="1680" y="452"/>
      <point x="1667" y="390" type="curve" smooth="yes"/>
    </contour>
  </outline>
</glyph>
<glyph name="rupee-tamil" format="2">
  <advance width="1035"/>
  <unicode hex="0BF9"/>
  <note>
uni0BF9
</note>
  <outline>
    <contour>
      <point x="443" y="-297" type="curve" smooth="yes"/>
      <point x="764" y="-297"/>
      <point x="950" y="-43"/>
      <point x="950" y="171" type="curve" smooth="yes"/>
      <point x="950" y="280"/>
      <point x="895" y="345"/>
      <point x="803" y="345" type="curve" smooth="yes"/>
      <point x="719" y="345"/>
      <point x="655" y="280"/>
      <point x="635" y="185" type="curve" smooth="yes"/>
      <point x="625" y="138" type="line"/>
      <point x="652" y="138" type="line"/>
      <point x="662" y="188" type="line" smooth="yes"/>
      <point x="673" y="241"/>
      <point x="711" y="286"/>
      <point x="766" y="286" type="curve" smooth="yes"/>
      <point x="820" y="286"/>
      <point x="856" y="249"/>
      <point x="856" y="172" type="curve" smooth="yes"/>
      <point x="856" y="-14"/>
      <point x="723" y="-243"/>
      <point x="440" y="-243" type="curve" smooth="yes"/>
      <point x="184" y="-243"/>
      <point x="114" y="-40"/>
      <point x="114" y="171" type="curve" smooth="yes"/>
      <point x="114" y="446"/>
      <point x="284" y="798"/>
      <point x="506" y="798" type="curve" smooth="yes"/>
      <point x="587" y="798"/>
      <point x="606" y="757"/>
      <point x="606" y="726" type="curve" smooth="yes"/>
      <point x="606" y="689"/>
      <point x="583" y="659"/>
      <point x="547" y="659" type="curve" smooth="yes"/>
      <point x="519" y="659"/>
      <point x="504" y="685"/>
      <point x="505" y="716" type="curve" smooth="yes"/>
      <point x="508" y="797"/>
      <point x="575" y="850"/>
      <point x="666" y="850" type="curve" smooth="yes"/>
      <point x="745" y="850"/>
      <point x="778" y="811"/>
      <point x="778" y="763" type="curve" smooth="yes"/>
      <point x="778" y="720"/>
      <point x="753" y="684"/>
      <point x="714" y="651" type="curve"/>
      <point x="720" y="610" type="line"/>
      <point x="900" y="610" type="line"/>
      <point x="912" y="664" type="line"/>
      <point x="762" y="664" type="line"/>
      <point x="740" y="633" type="line"/>
      <point x="810" y="667"/>
      <point x="861" y="713"/>
      <point x="861" y="779" type="curve" smooth="yes"/>
      <point x="861" y="861"/>
      <point x="788" y="904"/>
      <point x="683" y="904" type="curve" smooth="yes"/>
      <point x="563" y="904"/>
      <point x="447" y="812"/>
      <point x="447" y="711" type="curve" smooth="yes"/>
      <point x="447" y="648"/>
      <point x="488" y="605"/>
      <point x="553" y="605" type="curve" smooth="yes"/>
      <point x="629" y="605"/>
      <point x="689" y="654"/>
      <point x="689" y="728" type="curve" smooth="yes"/>
      <point x="689" y="806"/>
      <point x="621" y="852"/>
      <point x="516" y="852" type="curve" smooth="yes"/>
      <point x="252" y="852"/>
      <point x="53" y="502"/>
      <point x="53" y="165" type="curve" smooth="yes"/>
      <point x="53" y="-76"/>
      <point x="149" y="-297"/>
    </contour>
    <contour>
      <point x="283" y="0" type="line"/>
      <point x="343" y="0" type="line"/>
      <point x="449" y="500" type="line"/>
      <point x="636" y="500" type="line"/>
      <point x="530" y="0" type="line"/>
      <point x="622" y="0" type="line"/>
      <point x="729" y="500" type="line"/>
      <point x="877" y="500" type="line"/>
      <point x="889" y="554" type="line"/>
      <point x="401" y="554" type="line"/>
    </contour>
  </outline>
</glyph>
<glyph name="number-tamil" format="2">
  <advance width="935"/>
  <unicode hex="0BFA"/>
  <note>
uni0BFA
</note>
  <anchor x="331" y="0" name="bottom"/>
  <anchor x="576" y="554" name="imatra"/>
  <anchor x="284" y="-181" name="nukta"/>
  <anchor x="450" y="554" name="top"/>
  <anchor x="460" y="554" name="vedic"/>
  <outline>
    <contour>
      <point x="797" y="500" type="line"/>
      <point x="997" y="500" type="line"/>
      <point x="1008" y="554" type="line"/>
      <point x="861" y="554" type="line"/>
      <point x="856" y="528" type="line"/>
      <point x="951" y="592"/>
      <point x="1025" y="670"/>
      <point x="1025" y="781" type="curve" smooth="yes"/>
      <point x="1025" y="897"/>
      <point x="940" y="953"/>
      <point x="830" y="953" type="curve" smooth="yes"/>
      <point x="699" y="953"/>
      <point x="597" y="851"/>
      <point x="597" y="726" type="curve" smooth="yes"/>
      <point x="597" y="654"/>
      <point x="635" y="602"/>
      <point x="714" y="602" type="curve" smooth="yes"/>
      <point x="789" y="602"/>
      <point x="860" y="652"/>
      <point x="860" y="740" type="curve" smooth="yes"/>
      <point x="860" y="824"/>
      <point x="788" y="868"/>
      <point x="691" y="868" type="curve" smooth="yes"/>
      <point x="567" y="868"/>
      <point x="469" y="780"/>
      <point x="469" y="663" type="curve" smooth="yes"/>
      <point x="469" y="585"/>
      <point x="516" y="521"/>
      <point x="603" y="517" type="curve"/>
      <point x="628" y="554" type="line"/>
      <point x="561" y="554"/>
      <point x="526" y="600"/>
      <point x="526" y="665" type="curve" smooth="yes"/>
      <point x="526" y="752"/>
      <point x="586" y="814"/>
      <point x="686" y="814" type="curve" smooth="yes"/>
      <point x="742" y="814"/>
      <point x="783" y="785"/>
      <point x="783" y="735" type="curve" smooth="yes"/>
      <point x="783" y="692"/>
      <point x="755" y="656"/>
      <point x="707" y="656" type="curve" smooth="yes"/>
      <point x="669" y="656"/>
      <point x="651" y="684"/>
      <point x="651" y="729" type="curve" smooth="yes"/>
      <point x="651" y="827"/>
      <point x="718" y="899"/>
      <point x="822" y="899" type="curve" smooth="yes"/>
      <point x="903" y="899"/>
      <point x="948" y="850"/>
      <point x="948" y="774" type="curve" smooth="yes"/>
      <point x="948" y="664"/>
      <point x="883" y="603"/>
      <point x="791" y="542" type="curve"/>
    </contour>
    <component base="na-tamil"/>
  </outline>
</glyph>
<glyph name="doubleSvarita-vedic" format="2">
  <unicode hex="1CDA"/>
  <note>
uni1CDA
</note>
  <anchor x="59" y="554" name="_vedic"/>
  <outline>
    <contour>
      <point x="55" y="912" type="line"/>
      <point x="109" y="912" type="line"/>
      <point x="150" y="1107" type="line"/>
      <point x="96" y="1107" type="line"/>
    </contour>
    <contour>
      <point x="162" y="912" type="line"/>
      <point x="215" y="912" type="line"/>
      <point x="257" y="1107" type="line"/>
      <point x="203" y="1107" type="line"/>
    </contour>
  </outline>
</glyph>
<glyph name="emdash" format="2">
  <advance width="1000"/>
  <unicode hex="2014"/>
  <outline>
    <contour>
      <point x="-12" y="239" type="line"/>
      <point x="999" y="239" type="line"/>
      <point x="1012" y="298" type="line"/>
      <point x="0" y="298" type="line"/>
    </contour>
  </outline>
</glyph>
<glyph name="quotedblleft" format="2">
  <advance width="450"/>
  <unicode hex="201C"/>
  <outline>
    <contour>
      <point x="383" y="440" type="curve" smooth="yes"/>
      <point x="417" y="440"/>
      <point x="445" y="460"/>
      <point x="445" y="499" type="curve" smooth="yes"/>
      <point x="445" y="552"/>
      <point x="380" y="552"/>
      <point x="380" y="588" type="curve" smooth="yes"/>
      <point x="380" y="628"/>
      <point x="415" y="657"/>
      <point x="482" y="672" type="curve"/>
      <point x="486" y="714" type="line"/>
      <point x="362" y="689"/>
      <point x="305" y="613"/>
      <point x="305" y="522" type="curve" smooth="yes"/>
      <point x="305" y="470"/>
      <point x="341" y="440"/>
    </contour>
    <contour>
      <point x="183" y="440" type="curve" smooth="yes"/>
      <point x="217" y="440"/>
      <point x="245" y="460"/>
      <point x="245" y="499" type="curve" smooth="yes"/>
      <point x="245" y="552"/>
      <point x="180" y="552"/>
      <point x="180" y="588" type="curve" smooth="yes"/>
      <point x="180" y="628"/>
      <point x="215" y="657"/>
      <point x="282" y="672" type="curve"/>
      <point x="286" y="714" type="line"/>
      <point x="162" y="689"/>
      <point x="105" y="613"/>
      <point x="105" y="522" type="curve" smooth="yes"/>
      <point x="105" y="470"/>
      <point x="141" y="440"/>
    </contour>
  </outline>
</glyph>
<glyph name="ellipsis" format="2">
  <advance width="858"/>
  <unicode hex="2026"/>
  <outline>
    <contour>
      <point x="679" y="-8" type="curve" smooth="yes"/>
      <point x="711" y="-8"/>
      <point x="745" y="12"/>
      <point x="745" y="69" type="curve" smooth="yes"/>
      <point x="745" y="110"/>
      <point x="718" y="130"/>
      <point x="683" y="130" type="curve" smooth="yes"/>
      <point x="643" y="130"/>
      <point x="617" y="99"/>
      <point x="617" y="53" type="curve" smooth="yes"/>
      <point x="617" y="12"/>
      <point x="642" y="-8"/>
    </contour>
    <contour>
      <point x="106" y="-8" type="curve" smooth="yes"/>
      <point x="138" y="-8"/>
      <point x="172" y="12"/>
      <point x="172" y="69" type="curve" smooth="yes"/>
      <point x="172" y="110"/>
      <point x="145" y="130"/>
      <point x="110" y="130" type="curve" smooth="yes"/>
      <point x="70" y="130"/>
      <point x="44" y="99"/>
      <point x="44" y="53" type="curve" smooth="yes"/>
      <point x="44" y="12"/>
      <point x="69" y="-8"/>
    </contour>
    <contour>
      <point x="390" y="-8" type="curve" smooth="yes"/>
      <point x="422" y="-8"/>
      <point x="456" y="12"/>
      <point x="456" y="69" type="curve" smooth="yes"/>
      <point x="456" y="110"/>
      <point x="429" y="130"/>
      <point x="394" y="130" type="curve" smooth="yes"/>
      <point x="354" y="130"/>
      <point x="328" y="99"/>
      <point x="328" y="53" type="curve" smooth="yes"/>
      <point x="328" y="12"/>
      <point x="353" y="-8"/>
    </contour>
  </outline>
</glyph>
<glyph name="foursuperior" format="2">
  <advance width="400"/>
  <unicode hex="2074"/>
  <outline>
    <contour>
      <point x="132" y="387" type="line"/>
      <point x="352" y="387" type="line"/>
      <point x="359" y="421" type="line"/>
      <point x="339" y="421" type="line" smooth="yes"/>
      <point x="320" y="421"/>
      <point x="304" y="424"/>
      <point x="304" y="446" type="curve" smooth="yes"/>
      <point x="304" y="452"/>
      <point x="306" y="466"/>
      <point x="309" y="478" type="curve" smooth="yes"/>
      <point x="317" y="514" type="line"/>
      <point x="413" y="514" type="line"/>
      <point x="422" y="557" type="line"/>
      <point x="326" y="557" type="line"/>
      <point x="381" y="819" type="line"/>
      <point x="301" y="819" type="line"/>
      <point x="56" y="548" type="line"/>
      <point x="51" y="514" type="line"/>
      <point x="228" y="514" type="line"/>
      <point x="216" y="459" type="line" smooth="yes"/>
      <point x="209" y="425"/>
      <point x="189" y="421"/>
      <point x="167" y="421" type="curve" smooth="yes"/>
      <point x="139" y="421" type="line"/>
    </contour>
    <contour>
      <point x="118" y="557" type="line"/>
      <point x="242" y="695" type="line" smooth="yes"/>
      <point x="257" y="712"/>
      <point x="275" y="735"/>
      <point x="282" y="746" type="curve"/>
      <point x="275" y="722"/>
      <point x="268" y="696"/>
      <point x="261" y="666" type="curve" smooth="yes"/>
      <point x="237" y="557" type="line"/>
    </contour>
  </outline>
</glyph>
<glyph name="dottedCircle" format="2">
  <advance width="594"/>
  <unicode hex="25CC"/>
  <anchor x="299" y="300" name="bottom"/>
  <anchor x="350" y="554" name="imatra"/>
  <anchor x="233" y="0" name="nukta"/>
  <anchor x="340" y="554" name="top"/>
  <anchor x="289" y="304" name="vedic"/>
  <outline>
    <contour>
      <point x="384" y="470" type="curve" smooth="yes"/>
      <point x="398" y="470"/>
      <point x="410" y="482"/>
      <point x="410" y="496" type="curve" smooth="yes"/>
      <point x="410" y="510"/>
      <point x="398" y="522"/>
      <point x="384" y="522" type="curve" smooth="yes"/>
      <point x="370" y="522"/>
      <point x="358" y="510"/>
      <point x="358" y="496" type="curve" smooth="yes"/>
      <point x="358" y="482"/>
      <point x="370" y="470"/>
    </contour>
    <contour>
      <point x="142" y="107" type="curve" smooth="yes"/>
      <point x="156" y="107"/>
      <point x="168" y="119"/>
      <point x="168" y="133" type="curve" smooth="yes"/>
      <point x="168" y="147"/>
      <point x="156" y="159"/>
      <point x="142" y="159" type="curve" smooth="yes"/>
      <point x="128" y="159"/>
      <point x="116" y="147"/>
      <point x="116" y="133" type="curve" smooth="yes"/>
      <point x="116" y="119"/>
      <point x="128" y="107"/>
    </contour>
    <contour>
      <point x="95" y="181" type="curve" smooth="yes"/>
      <point x="109" y="181"/>
      <point x="121" y="193"/>
      <point x="121" y="207" type="curve" smooth="yes"/>
      <point x="121" y="221"/>
      <point x="109" y="233"/>
      <point x="95" y="233" type="curve" smooth="yes"/>
      <point x="81" y="233"/>
      <point x="69" y="221"/>
      <point x="69" y="207" type="curve" smooth="yes"/>
      <point x="69" y="193"/>
      <point x="81" y="181"/>
    </contour>
    <contour>
      <point x="216" y="60" type="curve" smooth="yes"/>
      <point x="230" y="60"/>
      <point x="242" y="72"/>
      <point x="242" y="86" type="curve" smooth="yes"/>
      <point x="242" y="100"/>
      <point x="230" y="112"/>
      <point x="216" y="112" type="curve" smooth="yes"/>
      <point x="202" y="112"/>
      <point x="190" y="100"/>
      <point x="190" y="86" type="curve" smooth="yes"/>
      <point x="190" y="72"/>
      <point x="202" y="60"/>
    </contour>
    <contour>
      <point x="77" y="265" type="curve" smooth="yes"/>
      <point x="91" y="265"/>
      <point x="103" y="277"/>
      <point x="103" y="291" type="curve" smooth="yes"/>
      <point x="103" y="305"/>
      <point x="91" y="317"/>
      <point x="77" y="317" type="curve" smooth="yes"/>
      <point x="63" y="317"/>
      <point x="51" y="305"/>
      <point x="51" y="291" type="curve" smooth="yes"/>
      <point x="51" y="277"/>
      <point x="63" y="265"/>
    </contour>
    <contour>
      <point x="300" y="42" type="curve" smooth="yes"/>
      <point x="314" y="42"/>
      <point x="326" y="54"/>
      <point x="326" y="68" type="curve" smooth="yes"/>
      <point x="326" y="82"/>
      <point x="314" y="94"/>
      <point x="300" y="94" type="curve" smooth="yes"/>
      <point x="286" y="94"/>
      <point x="274" y="82"/>
      <point x="274" y="68" type="curve" smooth="yes"/>
      <point x="274" y="54"/>
      <point x="286" y="42"/>
    </contour>
    <contour>
      <point x="95" y="349" type="curve" smooth="yes"/>
      <point x="109" y="349"/>
      <point x="121" y="361"/>
      <point x="121" y="375" type="curve" smooth="yes"/>
      <point x="121" y="389"/>
      <point x="109" y="401"/>
      <point x="95" y="401" type="curve" smooth="yes"/>
      <point x="81" y="401"/>
      <point x="69" y="389"/>
      <point x="69" y="375" type="curve" smooth="yes"/>
      <point x="69" y="361"/>
      <point x="81" y="349"/>
    </contour>
    <contour>
      <point x="384" y="60" type="curve" smooth="yes"/>
      <point x="398" y="60"/>
      <point x="410" y="72"/>
      <point x="410" y="86" type="curve" smooth="yes"/>
      <point x="410" y="100"/>
      <point x="398" y="112"/>
      <point x="384" y="112" type="curve" smooth="yes"/>
      <point x="370" y="112"/>
      <point x="358" y="100"/>
      <point x="358" y="86" type="curve" smooth="yes"/>
      <point x="358" y="72"/>
      <point x="370" y="60"/>
    </contour>
    <contour>
      <point x="458" y="107" type="curve" smooth="yes"/>
      <point x="472" y="107"/>
      <point x="484" y="119"/>
      <point x="484" y="133" type="curve" smooth="yes"/>
      <point x="484" y="147"/>
      <point x="472" y="159"/>
      <point x="458" y="159" type="curve" smooth="yes"/>
      <point x="444" y="159"/>
      <point x="432" y="147"/>
      <point x="432" y="133" type="curve" smooth="yes"/>
      <point x="432" y="119"/>
      <point x="444" y="107"/>
    </contour>
    <contour>
      <point x="142" y="423" type="curve" smooth="yes"/>
      <point x="156" y="423"/>
      <point x="168" y="435"/>
      <point x="168" y="449" type="curve" smooth="yes"/>
      <point x="168" y="463"/>
      <point x="156" y="475"/>
      <point x="142" y="475" type="curve" smooth="yes"/>
      <point x="128" y="475"/>
      <point x="116" y="463"/>
      <point x="116" y="449" type="curve" smooth="yes"/>
      <point x="116" y="435"/>
      <point x="128" y="423"/>
    </contour>
    <contour>
      <point x="216" y="470" type="curve" smooth="yes"/>
      <point x="230" y="470"/>
      <point x="242" y="482"/>
      <point x="242" y="496" type="curve" smooth="yes"/>
      <point x="242" y="510"/>
      <point x="230" y="522"/>
      <point x="216" y="522" type="curve" smooth="yes"/>
      <point x="202" y="522"/>
      <point x="190" y="510"/>
      <point x="190" y="496" type="curve" smooth="yes"/>
      <point x="190" y="482"/>
      <point x="202" y="470"/>
    </contour>
    <contour>
      <point x="505" y="181" type="curve" smooth="yes"/>
      <point x="519" y="181"/>
      <point x="531" y="193"/>
      <point x="531" y="207" type="curve" smooth="yes"/>
      <point x="531" y="221"/>
      <point x="519" y="233"/>
      <point x="505" y="233" type="curve" smooth="yes"/>
      <point x="491" y="233"/>
      <point x="479" y="221"/>
      <point x="479" y="207" type="curve" smooth="yes"/>
      <point x="479" y="193"/>
      <point x="491" y="181"/>
    </contour>
    <contour>
      <point x="300" y="488" type="curve" smooth="yes"/>
      <point x="314" y="488"/>
      <point x="326" y="500"/>
      <point x="326" y="514" type="curve" smooth="yes"/>
      <point x="326" y="528"/>
      <point x="314" y="540"/>
      <point x="300" y="540" type="curve" smooth="yes"/>
      <point x="286" y="540"/>
      <point x="274" y="528"/>
      <point x="274" y="514" type="curve" smooth="yes"/>
      <point x="274" y="500"/>
      <point x="286" y="488"/>
    </contour>
    <contour>
      <point x="523" y="265" type="curve" smooth="yes"/>
      <point x="537" y="265"/>
      <point x="549" y="277"/>
      <point x="549" y="291" type="curve" smooth="yes"/>
      <point x="549" y="305"/>
      <point x="537" y="317"/>
      <point x="523" y="317" type="curve" smooth="yes"/>
      <point x="509" y="317"/>
      <point x="497" y="305"/>
      <point x="497" y="291" type="curve" smooth="yes"/>
      <point x="497" y="277"/>
      <point x="509" y="265"/>
    </contour>
    <contour>
      <point x="505" y="349" type="curve" smooth="yes"/>
      <point x="519" y="349"/>
      <point x="531" y="361"/>
      <point x="531" y="375" type="curve" smooth="yes"/>
      <point x="531" y="389"/>
      <point x="519" y="401"/>
      <point x="505" y="401" type="curve" smooth="yes"/>
      <point x="491" y="401"/>
      <point x="479" y="389"/>
      <point x="479" y="375" type="curve" smooth="yes"/>
      <point x="479" y="361"/>
      <point x="491" y="349"/>
    </contour>
    <contour>
      <point x="458" y="423" type="curve" smooth="yes"/>
      <point x="472" y="423"/>
      <point x="484" y="435"/>
      <point x="484" y="449" type="curve" smooth="yes"/>
      <point x="484" y="463"/>
      <point x="472" y="475"/>
      <point x="458" y="475" type="curve" smooth="yes"/>
      <point x="444" y="475"/>
      <point x="432" y="463"/>
      <point x="432" y="449" type="curve" smooth="yes"/>
      <point x="432" y="435"/>
      <point x="444" y="423"/>
    </contour>
  </outline>
</glyph>
<glyph name="candrabinduhalant-deva" format="2">
  <advance width="474"/>
  <unicode hex="A8F3"/>
  <note>
uniA8F3
</note>
  <outline>
    <contour>
      <point x="257" y="362" type="curve" smooth="yes"/>
      <point x="346" y="362"/>
      <point x="436" y="414"/>
      <point x="483" y="535" type="curve"/>
      <point x="422" y="557" type="line"/>
      <point x="385" y="461"/>
      <point x="327" y="423"/>
      <point x="259" y="423" type="curve" smooth="yes"/>
      <point x="187" y="423"/>
      <point x="154" y="472"/>
      <point x="144" y="546" type="curve"/>
      <point x="108" y="538" type="line"/>
      <point x="112" y="420"/>
      <point x="169" y="362"/>
    </contour>
    <contour>
      <point x="269" y="478" type="curve" smooth="yes"/>
      <point x="305" y="478"/>
      <point x="321" y="503"/>
      <point x="321" y="536" type="curve" smooth="yes"/>
      <point x="321" y="559"/>
      <point x="303" y="570"/>
      <point x="285" y="570" type="curve" smooth="yes"/>
      <point x="248" y="570"/>
      <point x="233" y="546"/>
      <point x="233" y="512" type="curve" smooth="yes"/>
      <point x="233" y="490"/>
      <point x="250" y="478"/>
    </contour>
    <contour>
      <point x="346" y="67" type="curve"/>
      <point x="380" y="83" type="line"/>
      <point x="290" y="246"/>
      <point x="262" y="277"/>
      <point x="181" y="277" type="curve" smooth="yes"/>
      <point x="159" y="277"/>
      <point x="133" y="273"/>
      <point x="121" y="270" type="curve"/>
      <point x="129" y="200" type="line"/>
      <point x="146" y="205"/>
      <point x="169" y="208"/>
      <point x="190" y="208" type="curve" smooth="yes"/>
      <point x="235" y="208"/>
      <point x="268" y="192"/>
    </contour>
  </outline>
</glyph>
<glyph name="u11301" format="2">
  <unicode hex="11301"/>
  <anchor x="59" y="554" name="_vedic"/>
  <outline>
    <contour>
      <point x="149" y="901" type="curve" smooth="yes"/>
      <point x="260" y="901"/>
      <point x="341" y="959"/>
      <point x="341" y="1050" type="curve" smooth="yes"/>
      <point x="341" y="1075"/>
      <point x="330" y="1095"/>
      <point x="303" y="1095" type="curve" smooth="yes"/>
      <point x="297" y="1095"/>
      <point x="289" y="1094"/>
      <point x="283" y="1092" type="curve"/>
      <point x="285" y="1085"/>
      <point x="286" y="1078"/>
      <point x="286" y="1064" type="curve" smooth="yes"/>
      <point x="286" y="1001"/>
      <point x="232" y="959"/>
      <point x="152" y="959" type="curve" smooth="yes"/>
      <point x="87" y="959"/>
      <point x="59" y="983"/>
      <point x="59" y="1027" type="curve" smooth="yes"/>
      <point x="59" y="1046"/>
      <point x="68" y="1074"/>
      <point x="78" y="1092" type="curve"/>
      <point x="71" y="1095"/>
      <point x="64" y="1096"/>
      <point x="58" y="1096" type="curve" smooth="yes"/>
      <point x="21" y="1096"/>
      <point x="-24" y="1064"/>
      <point x="-24" y="1004" type="curve" smooth="yes"/>
      <point x="-24" y="948"/>
      <point x="23" y="901"/>
    </contour>
    <contour>
      <point x="173" y="1006" type="curve" smooth="yes"/>
      <point x="202" y="1006"/>
      <point x="224" y="1026"/>
      <point x="224" y="1057" type="curve" smooth="yes"/>
      <point x="224" y="1085"/>
      <point x="202" y="1107"/>
      <point x="173" y="1107" type="curve" smooth="yes"/>
      <point x="144" y="1107"/>
      <point x="123" y="1085"/>
      <point x="123" y="1057" type="curve" smooth="yes"/>
      <point x="123" y="1026"/>
      <point x="144" y="1006"/>
    </contour>
  </outline>
</glyph>
<glyph name="visarga-grantha" format="2">
  <advance width="257"/>
  <unicode hex="11303"/>
  <outline>
    <contour>
      <point x="98" y="-4" type="curve" smooth="yes"/>
      <point x="168" y="-4"/>
      <point x="219" y="43"/>
      <point x="219" y="114" type="curve" smooth="yes"/>
      <point x="219" y="185"/>
      <point x="168" y="232"/>
      <point x="98" y="232" type="curve" smooth="yes"/>
      <point x="27" y="232"/>
      <point x="-23" y="185"/>
      <point x="-23" y="114" type="curve" smooth="yes"/>
      <point x="-23" y="43"/>
      <point x="27" y="-4"/>
    </contour>
    <contour>
      <point x="98" y="49" type="curve" smooth="yes"/>
      <point x="61" y="49"/>
      <point x="35" y="76"/>
      <point x="35" y="114" type="curve" smooth="yes"/>
      <point x="35" y="152"/>
      <point x="61" y="178"/>
      <point x="98" y="178" type="curve" smooth="yes"/>
      <point x="134" y="178"/>
      <point x="160" y="152"/>
      <point x="160" y="114" type="curve" smooth="yes"/>
      <point x="160" y="76"/>
      <point x="134" y="49"/>
    </contour>
    <contour>
      <point x="168" y="322" type="curve" smooth="yes"/>
      <point x="238" y="322"/>
      <point x="289" y="369"/>
      <point x="289" y="440" type="curve" smooth="yes"/>
      <point x="289" y="511"/>
      <point x="238" y="558"/>
      <point x="168" y="558" type="curve" smooth="yes"/>
      <point x="97" y="558"/>
      <point x="47" y="511"/>
      <point x="47" y="440" type="curve" smooth="yes"/>
      <point x="47" y="369"/>
      <point x="97" y="322"/>
    </contour>
    <contour>
      <point x="168" y="375" type="curve" smooth="yes"/>
      <point x="131" y="375"/>
      <point x="105" y="402"/>
      <point x="105" y="440" type="curve" smooth="yes"/>
      <point x="105" y="478"/>
      <point x="131" y="504"/>
      <point x="168" y="504" type="curve" smooth="yes"/>
      <point x="204" y="504"/>
      <point x="230" y="478"/>
      <point x="230" y="440" type="curve" smooth="yes"/>
      <point x="230" y="402"/>
      <point x="204" y="375"/>
    </contour>
  </outline>
</glyph>
<glyph name="u1133B" format="2">
  <unicode hex="1133B"/>
  <anchor x="-59" y="0" name="_nukta"/>
  <outline>
    <contour>
      <point x="-86" y="-182" type="curve" smooth="yes"/>
      <point x="-52" y="-182"/>
      <point x="-25" y="-154"/>
      <point x="-25" y="-122" type="curve" smooth="yes"/>
      <point x="-25" y="-90"/>
      <point x="-52" y="-62"/>
      <point x="-86" y="-62" type="curve" smooth="yes"/>
      <point x="-120" y="-62"/>
      <point x="-147" y="-90"/>
      <point x="-147" y="-122" type="curve" smooth="yes"/>
      <point x="-147" y="-154"/>
      <point x="-120" y="-182"/>
    </contour>
  </outline>
</glyph>
<glyph name="nukta-grantha" format="2">
  <unicode hex="1133C"/>
  <anchor x="-59" y="0" name="_nukta"/>
  <outline>
    <contour>
      <point x="-197" y="-182" type="curve" smooth="yes"/>
      <point x="-163" y="-182"/>
      <point x="-136" y="-154"/>
      <point x="-136" y="-122" type="curve" smooth="yes"/>
      <point x="-136" y="-90"/>
      <point x="-163" y="-62"/>
      <point x="-197" y="-62" type="curve" smooth="yes"/>
      <point x="-231" y="-62"/>
      <point x="-258" y="-90"/>
      <point x="-258" y="-122" type="curve" smooth="yes"/>
      <point x="-258" y="-154"/>
      <point x="-231" y="-182"/>
    </contour>
    <contour>
      <point x="26" y="-182" type="curve" smooth="yes"/>
      <point x="60" y="-182"/>
      <point x="87" y="-154"/>
      <point x="87" y="-122" type="curve" smooth="yes"/>
      <point x="87" y="-90"/>
      <point x="60" y="-62"/>
      <point x="26" y="-62" type="curve" smooth="yes"/>
      <point x="-8" y="-62"/>
      <point x="-35" y="-90"/>
      <point x="-35" y="-122" type="curve" smooth="yes"/>
      <point x="-35" y="-154"/>
      <point x="-8" y="-182"/>
    </contour>
  </outline>
</glyph>
<glyph name="anusvara-tamil.alt" format="2">
  <note>
uni0B82
</note>
  <anchor x="31" y="424" name="_top"/>
  <outline>
    <contour>
      <point x="101" y="633" type="curve" smooth="yes"/>
      <point x="171" y="633"/>
      <point x="222" y="681"/>
      <point x="222" y="751" type="curve" smooth="yes"/>
      <point x="222" y="822"/>
      <point x="171" y="870"/>
      <point x="101" y="870" type="curve" smooth="yes"/>
      <point x="31" y="870"/>
      <point x="-20" y="822"/>
      <point x="-20" y="751" type="curve" smooth="yes"/>
      <point x="-20" y="681"/>
      <point x="31" y="633"/>
    </contour>
    <contour>
      <point x="101" y="687" type="curve" smooth="yes"/>
      <point x="64" y="687"/>
      <point x="38" y="713"/>
      <point x="38" y="751" type="curve" smooth="yes"/>
      <point x="38" y="790"/>
      <point x="64" y="816"/>
      <point x="101" y="816" type="curve" smooth="yes"/>
      <point x="138" y="816"/>
      <point x="164" y="790"/>
      <point x="164" y="751" type="curve" smooth="yes"/>
      <point x="164" y="713"/>
      <point x="138" y="687"/>
    </contour>
  </outline>
</glyph>
<glyph name="cu-tamil" format="2">
  <advance width="862"/>
  <note>
g106
</note>
  <anchor x="372" y="0" name="bottom"/>
  <anchor x="372" y="0" name="nukta"/>
  <anchor x="497" y="554" name="top"/>
  <anchor x="512" y="554" name="vedic"/>
  <outline>
    <contour>
      <point x="225" y="-4" type="curve" smooth="yes"/>
      <point x="355" y="-4"/>
      <point x="430" y="58"/>
      <point x="458" y="188" type="curve" smooth="yes"/>
      <point x="474" y="263" type="line"/>
      <point x="626" y="263" type="line"/>
      <point x="570" y="0" type="line"/>
      <point x="660" y="0" type="line"/>
      <point x="716" y="263" type="line"/>
      <point x="834" y="263" type="line"/>
      <point x="844" y="317" type="line"/>
      <point x="485" y="317" type="line"/>
      <point x="524" y="500" type="line"/>
      <point x="696" y="500" type="line"/>
      <point x="707" y="554" type="line"/>
      <point x="223" y="554" type="line"/>
      <point x="166" y="286" type="line"/>
      <point x="226" y="286" type="line"/>
      <point x="271" y="500" type="line"/>
      <point x="431" y="500" type="line"/>
      <point x="392" y="317" type="line"/>
      <point x="249" y="317" type="line" smooth="yes"/>
      <point x="126" y="317"/>
      <point x="34" y="259"/>
      <point x="34" y="148" type="curve" smooth="yes"/>
      <point x="34" y="53"/>
      <point x="115" y="-4"/>
    </contour>
    <contour>
      <point x="221" y="49" type="curve" smooth="yes"/>
      <point x="151" y="49"/>
      <point x="99" y="85"/>
      <point x="99" y="155" type="curve" smooth="yes"/>
      <point x="99" y="229"/>
      <point x="159" y="263"/>
      <point x="245" y="263" type="curve" smooth="yes"/>
      <point x="381" y="263" type="line"/>
      <point x="364" y="181" type="line" smooth="yes"/>
      <point x="344" y="84"/>
      <point x="297" y="49"/>
    </contour>
  </outline>
</glyph>
<glyph name="cuu-tamil" format="2">
  <advance width="1140"/>
  <note>
g107
</note>
  <anchor x="536" y="0" name="bottom"/>
  <anchor x="497" y="-297" name="nukta"/>
  <anchor x="671" y="554" name="top"/>
  <anchor x="624" y="554" name="vedic"/>
  <outline>
    <contour>
      <point x="405" y="-4" type="curve" smooth="yes"/>
      <point x="535" y="-4"/>
      <point x="610" y="58"/>
      <point x="638" y="188" type="curve" smooth="yes"/>
      <point x="654" y="263" type="line"/>
      <point x="979" y="263" type="line"/>
      <point x="990" y="317" type="line"/>
      <point x="665" y="317" type="line"/>
      <point x="704" y="500" type="line"/>
      <point x="876" y="500" type="line"/>
      <point x="887" y="554" type="line"/>
      <point x="403" y="554" type="line"/>
      <point x="346" y="286" type="line"/>
      <point x="406" y="286" type="line"/>
      <point x="451" y="500" type="line"/>
      <point x="611" y="500" type="line"/>
      <point x="572" y="317" type="line"/>
      <point x="429" y="317" type="line" smooth="yes"/>
      <point x="306" y="317"/>
      <point x="214" y="259"/>
      <point x="214" y="148" type="curve" smooth="yes"/>
      <point x="214" y="53"/>
      <point x="295" y="-4"/>
    </contour>
    <contour>
      <point x="401" y="49" type="curve" smooth="yes"/>
      <point x="331" y="49"/>
      <point x="279" y="85"/>
      <point x="279" y="155" type="curve" smooth="yes"/>
      <point x="279" y="229"/>
      <point x="339" y="263"/>
      <point x="425" y="263" type="curve" smooth="yes"/>
      <point x="561" y="263" type="line"/>
      <point x="544" y="181" type="line" smooth="yes"/>
      <point x="524" y="84"/>
      <point x="477" y="49"/>
    </contour>
    <contour>
      <point x="729" y="0" type="line"/>
      <point x="820" y="0" type="line"/>
      <point x="881" y="288" type="line"/>
      <point x="790" y="288" type="line"/>
    </contour>
    <contour>
      <point x="499" y="-297" type="curve" smooth="yes"/>
      <point x="818" y="-297"/>
      <point x="1039" y="-136"/>
      <point x="1039" y="64" type="curve" smooth="yes"/>
      <point x="1039" y="139"/>
      <point x="995" y="181"/>
      <point x="933" y="181" type="curve" smooth="yes"/>
      <point x="876" y="181"/>
      <point x="825" y="142"/>
      <point x="808" y="68" type="curve" smooth="yes"/>
      <point x="805" y="55" type="line"/>
      <point x="832" y="55" type="line"/>
      <point x="835" y="70" type="line" smooth="yes"/>
      <point x="841" y="101"/>
      <point x="869" y="122"/>
      <point x="900" y="122" type="curve" smooth="yes"/>
      <point x="931" y="122"/>
      <point x="949" y="105"/>
      <point x="949" y="67" type="curve" smooth="yes"/>
      <point x="949" y="-105"/>
      <point x="771" y="-236"/>
      <point x="491" y="-236" type="curve" smooth="yes"/>
      <point x="252" y="-236"/>
      <point x="85" y="-100"/>
      <point x="85" y="97" type="curve" smooth="yes"/>
      <point x="85" y="247"/>
      <point x="143" y="334"/>
      <point x="263" y="446" type="curve"/>
      <point x="223" y="487" type="line"/>
      <point x="91" y="364"/>
      <point x="24" y="256"/>
      <point x="24" y="89" type="curve" smooth="yes"/>
      <point x="24" y="-132"/>
      <point x="208" y="-297"/>
    </contour>
  </outline>
</glyph>
<glyph name="iMatra-tamil.alt01" format="2">
  <advance width="228"/>
  <note>
uni0BBF
</note>
  <outline>
    <contour>
      <point x="13" y="0" type="line"/>
      <point x="73" y="0" type="line"/>
      <point x="193" y="561" type="line" smooth="yes"/>
      <point x="198" y="583"/>
      <point x="200" y="604"/>
      <point x="200" y="624" type="curve" smooth="yes"/>
      <point x="200" y="748"/>
      <point x="116" y="834"/>
      <point x="-25" y="834" type="curve" smooth="yes"/>
      <point x="-165" y="834"/>
      <point x="-256" y="741"/>
      <point x="-256" y="627" type="curve" smooth="yes"/>
      <point x="-256" y="571"/>
      <point x="-233" y="533"/>
      <point x="-197" y="504" type="curve"/>
      <point x="-167" y="536" type="line"/>
      <point x="-188" y="554"/>
      <point x="-197" y="581"/>
      <point x="-197" y="607" type="curve" smooth="yes"/>
      <point x="-197" y="689"/>
      <point x="-134" y="746"/>
      <point x="-33" y="746" type="curve" smooth="yes"/>
      <point x="71" y="746"/>
      <point x="133" y="684"/>
      <point x="133" y="587" type="curve" smooth="yes"/>
      <point x="133" y="570"/>
      <point x="131" y="551"/>
      <point x="127" y="531" type="curve" smooth="yes"/>
    </contour>
  </outline>
</glyph>
<glyph name="iMatra-tamil.alt02" format="2">
  <advance width="227"/>
  <note>
uni0BBF
</note>
  <anchor x="-117" y="834" name="top"/>
  <outline>
    <contour>
      <point x="13" y="0" type="line"/>
      <point x="73" y="0" type="line"/>
      <point x="177" y="491" type="line" smooth="yes"/>
      <point x="223" y="708"/>
      <point x="83" y="834"/>
      <point x="-117" y="834" type="curve" smooth="yes"/>
      <point x="-284" y="834"/>
      <point x="-394" y="725"/>
      <point x="-394" y="622" type="curve" smooth="yes"/>
      <point x="-394" y="558"/>
      <point x="-367" y="525"/>
      <point x="-327" y="491" type="curve"/>
      <point x="-291" y="528" type="line"/>
      <point x="-316" y="553"/>
      <point x="-333" y="574"/>
      <point x="-333" y="610" type="curve" smooth="yes"/>
      <point x="-333" y="684"/>
      <point x="-245" y="746"/>
      <point x="-124" y="746" type="curve" smooth="yes"/>
      <point x="29" y="746"/>
      <point x="155" y="669"/>
      <point x="114" y="476" type="curve" smooth="yes"/>
    </contour>
  </outline>
</glyph>
<glyph name="iiMatra-tamil.alt01" format="2">
  <note>
uni0BC0
</note>
  <outline>
    <contour>
      <point x="-196" y="505" type="curve"/>
      <point x="-178" y="546" type="line"/>
      <point x="-222" y="573"/>
      <point x="-242" y="612"/>
      <point x="-242" y="671" type="curve" smooth="yes"/>
      <point x="-242" y="763"/>
      <point x="-170" y="828"/>
      <point x="-61" y="828" type="curve" smooth="yes"/>
      <point x="4" y="828"/>
      <point x="47" y="799"/>
      <point x="47" y="740" type="curve" smooth="yes"/>
      <point x="47" y="687"/>
      <point x="10" y="656"/>
      <point x="-41" y="656" type="curve" smooth="yes"/>
      <point x="-88" y="656"/>
      <point x="-110" y="687"/>
      <point x="-110" y="730" type="curve" smooth="yes"/>
      <point x="-110" y="766"/>
      <point x="-94" y="811"/>
      <point x="-64" y="851" type="curve"/>
      <point x="-105" y="855" type="line"/>
      <point x="-143" y="806"/>
      <point x="-162" y="756"/>
      <point x="-162" y="714" type="curve" smooth="yes"/>
      <point x="-162" y="649"/>
      <point x="-117" y="602"/>
      <point x="-33" y="602" type="curve" smooth="yes"/>
      <point x="60" y="602"/>
      <point x="129" y="656"/>
      <point x="129" y="743" type="curve" smooth="yes"/>
      <point x="129" y="832"/>
      <point x="51" y="882"/>
      <point x="-53" y="882" type="curve" smooth="yes"/>
      <point x="-196" y="882"/>
      <point x="-300" y="791"/>
      <point x="-300" y="665" type="curve" smooth="yes"/>
      <point x="-300" y="586"/>
      <point x="-256" y="534"/>
    </contour>
  </outline>
</glyph>
<glyph name="iiMatra-tamil.alt02" format="2">
  <note>
uni0BC0
</note>
  <outline>
    <contour>
      <point x="-377" y="511" type="curve"/>
      <point x="-359" y="552" type="line"/>
      <point x="-403" y="579"/>
      <point x="-423" y="615"/>
      <point x="-423" y="674" type="curve" smooth="yes"/>
      <point x="-423" y="764"/>
      <point x="-351" y="828"/>
      <point x="-242" y="828" type="curve" smooth="yes"/>
      <point x="-177" y="828"/>
      <point x="-134" y="799"/>
      <point x="-134" y="740" type="curve" smooth="yes"/>
      <point x="-134" y="687"/>
      <point x="-171" y="656"/>
      <point x="-222" y="656" type="curve" smooth="yes"/>
      <point x="-269" y="656"/>
      <point x="-291" y="687"/>
      <point x="-291" y="730" type="curve" smooth="yes"/>
      <point x="-291" y="766"/>
      <point x="-275" y="811"/>
      <point x="-245" y="851" type="curve"/>
      <point x="-286" y="855" type="line"/>
      <point x="-324" y="806"/>
      <point x="-343" y="756"/>
      <point x="-343" y="714" type="curve" smooth="yes"/>
      <point x="-343" y="649"/>
      <point x="-298" y="602"/>
      <point x="-214" y="602" type="curve" smooth="yes"/>
      <point x="-121" y="602"/>
      <point x="-52" y="656"/>
      <point x="-52" y="743" type="curve" smooth="yes"/>
      <point x="-52" y="832"/>
      <point x="-130" y="882"/>
      <point x="-234" y="882" type="curve" smooth="yes"/>
      <point x="-377" y="882"/>
      <point x="-481" y="792"/>
      <point x="-481" y="668" type="curve" smooth="yes"/>
      <point x="-481" y="589"/>
      <point x="-437" y="540"/>
    </contour>
  </outline>
</glyph>
<glyph name="jii-tamil" format="2">
  <advance width="969"/>
  <note>
uni0B9C
</note>
  <anchor x="431" y="0" name="bottom"/>
  <anchor x="359" y="-296" name="nukta"/>
  <anchor x="939" y="882" name="top"/>
  <anchor x="549" y="554" name="vedic"/>
  <outline>
    <contour>
      <point x="157" y="-296" type="curve" smooth="yes"/>
      <point x="370" y="-296"/>
      <point x="448" y="-17"/>
      <point x="632" y="-17" type="curve" smooth="yes"/>
      <point x="698" y="-17"/>
      <point x="732" y="-58"/>
      <point x="732" y="-112" type="curve" smooth="yes"/>
      <point x="732" y="-190"/>
      <point x="685" y="-247"/>
      <point x="602" y="-247" type="curve" smooth="yes"/>
      <point x="574" y="-247"/>
      <point x="542" y="-239"/>
      <point x="509" y="-219" type="curve"/>
      <point x="483" y="-258" type="line"/>
      <point x="522" y="-284"/>
      <point x="567" y="-296"/>
      <point x="616" y="-296" type="curve" smooth="yes"/>
      <point x="726" y="-296"/>
      <point x="825" y="-234"/>
      <point x="825" y="-112" type="curve" smooth="yes"/>
      <point x="825" y="-4"/>
      <point x="743" y="37"/>
      <point x="649" y="37" type="curve" smooth="yes"/>
      <point x="425" y="37"/>
      <point x="336" y="-243"/>
      <point x="172" y="-243" type="curve" smooth="yes"/>
      <point x="99" y="-243"/>
      <point x="68" y="-195"/>
      <point x="68" y="-115" type="curve" smooth="yes"/>
      <point x="68" y="35"/>
      <point x="234" y="61"/>
      <point x="471" y="78" type="curve" smooth="yes"/>
      <point x="710" y="95"/>
      <point x="923" y="154"/>
      <point x="923" y="384" type="curve" smooth="yes"/>
      <point x="923" y="506"/>
      <point x="833" y="559"/>
      <point x="738" y="559" type="curve" smooth="yes"/>
      <point x="653" y="559"/>
      <point x="581" y="516"/>
      <point x="537" y="437" type="curve"/>
      <point x="514" y="520"/>
      <point x="434" y="559"/>
      <point x="341" y="559" type="curve" smooth="yes"/>
      <point x="188" y="559"/>
      <point x="73" y="458"/>
      <point x="73" y="311" type="curve" smooth="yes"/>
      <point x="73" y="227"/>
      <point x="130" y="156"/>
      <point x="218" y="156" type="curve" smooth="yes"/>
      <point x="301" y="156"/>
      <point x="378" y="204"/>
      <point x="378" y="298" type="curve" smooth="yes"/>
      <point x="378" y="367"/>
      <point x="328" y="412"/>
      <point x="262" y="412" type="curve" smooth="yes"/>
      <point x="200" y="412"/>
      <point x="135" y="378"/>
      <point x="100" y="262" type="curve"/>
      <point x="118" y="224" type="line"/>
      <point x="148" y="322"/>
      <point x="189" y="352"/>
      <point x="226" y="352" type="curve" smooth="yes"/>
      <point x="263" y="352"/>
      <point x="286" y="328"/>
      <point x="286" y="291" type="curve" smooth="yes"/>
      <point x="286" y="244"/>
      <point x="258" y="210"/>
      <point x="209" y="210" type="curve" smooth="yes"/>
      <point x="167" y="210"/>
      <point x="129" y="245"/>
      <point x="129" y="308" type="curve" smooth="yes"/>
      <point x="129" y="422"/>
      <point x="218" y="505"/>
      <point x="335" y="505" type="curve" smooth="yes"/>
      <point x="444" y="505"/>
      <point x="491" y="434"/>
      <point x="468" y="324" type="curve" smooth="yes"/>
      <point x="445" y="215" type="line"/>
      <point x="537" y="215" type="line"/>
      <point x="567" y="364" type="line" smooth="yes"/>
      <point x="582" y="440"/>
      <point x="636" y="505"/>
      <point x="721" y="505" type="curve" smooth="yes"/>
      <point x="802" y="505"/>
      <point x="831" y="451"/>
      <point x="831" y="385" type="curve" smooth="yes"/>
      <point x="831" y="177"/>
      <point x="660" y="136"/>
      <point x="417" y="120" type="curve" smooth="yes"/>
      <point x="165" y="103"/>
      <point x="-23" y="64"/>
      <point x="-23" y="-115" type="curve" smooth="yes"/>
      <point x="-23" y="-228"/>
      <point x="40" y="-296"/>
    </contour>
    <component base="iiMatra-tamil.alt01" xOffset="992"/>
  </outline>
</glyph>
<glyph name="kssa-tamil" format="2">
  <advance width="1809"/>
  <note>
g76
</note>
  <anchor x="836" y="0" name="bottom"/>
  <anchor x="789" y="0" name="nukta"/>
  <anchor x="982" y="554" name="top"/>
  <anchor x="968" y="554" name="vedic"/>
  <outline>
    <contour>
      <point x="720" y="-5" type="curve" smooth="yes"/>
      <point x="827" y="-5"/>
      <point x="911" y="66"/>
      <point x="911" y="168" type="curve" smooth="yes"/>
      <point x="911" y="278"/>
      <point x="816" y="317"/>
      <point x="697" y="317" type="curve" smooth="yes"/>
      <point x="485" y="317" type="line"/>
      <point x="524" y="500" type="line"/>
      <point x="696" y="500" type="line"/>
      <point x="707" y="554" type="line"/>
      <point x="223" y="554" type="line"/>
      <point x="166" y="286" type="line"/>
      <point x="226" y="286" type="line"/>
      <point x="271" y="500" type="line"/>
      <point x="431" y="500" type="line"/>
      <point x="392" y="317" type="line"/>
      <point x="249" y="317" type="line" smooth="yes"/>
      <point x="126" y="317"/>
      <point x="34" y="259"/>
      <point x="34" y="148" type="curve" smooth="yes"/>
      <point x="34" y="53"/>
      <point x="115" y="-4"/>
      <point x="225" y="-4" type="curve" smooth="yes"/>
      <point x="355" y="-4"/>
      <point x="430" y="58"/>
      <point x="458" y="188" type="curve" smooth="yes"/>
      <point x="474" y="263" type="line"/>
      <point x="687" y="263" type="line" smooth="yes"/>
      <point x="759" y="263"/>
      <point x="816" y="234"/>
      <point x="816" y="158" type="curve" smooth="yes"/>
      <point x="816" y="88"/>
      <point x="774" y="49"/>
      <point x="710" y="49" type="curve" smooth="yes"/>
      <point x="648" y="49"/>
      <point x="622" y="100"/>
      <point x="622" y="149" type="curve" smooth="yes"/>
      <point x="622" y="279"/>
      <point x="758" y="370"/>
      <point x="877" y="370" type="curve" smooth="yes"/>
      <point x="966" y="370"/>
      <point x="1062" y="334"/>
      <point x="1062" y="221" type="curve" smooth="yes"/>
      <point x="1062" y="141"/>
      <point x="1029" y="95"/>
      <point x="975" y="43" type="curve"/>
      <point x="983" y="0" type="line"/>
      <point x="1689" y="0" type="line"/>
      <point x="1762" y="345" type="line"/>
      <point x="1657" y="294" type="line"/>
      <point x="1606" y="54" type="line"/>
      <point x="1021" y="54" type="line"/>
      <point x="1030" y="32" type="line"/>
      <point x="1103" y="81"/>
      <point x="1156" y="144"/>
      <point x="1156" y="230" type="curve" smooth="yes"/>
      <point x="1156" y="366"/>
      <point x="1024" y="423"/>
      <point x="890" y="423" type="curve" smooth="yes"/>
      <point x="734" y="423"/>
      <point x="562" y="311"/>
      <point x="562" y="142" type="curve" smooth="yes"/>
      <point x="562" y="64"/>
      <point x="612" y="-5"/>
    </contour>
    <contour>
      <point x="221" y="49" type="curve" smooth="yes"/>
      <point x="151" y="49"/>
      <point x="99" y="85"/>
      <point x="99" y="155" type="curve" smooth="yes"/>
      <point x="99" y="229"/>
      <point x="159" y="263"/>
      <point x="245" y="263" type="curve" smooth="yes"/>
      <point x="381" y="263" type="line"/>
      <point x="364" y="181" type="line" smooth="yes"/>
      <point x="344" y="84"/>
      <point x="297" y="49"/>
    </contour>
    <contour>
      <point x="1297" y="-296" type="line"/>
      <point x="1390" y="-296" type="line"/>
      <point x="1543" y="424" type="line" smooth="yes"/>
      <point x="1560" y="505"/>
      <point x="1515" y="559"/>
      <point x="1424" y="559" type="curve" smooth="yes"/>
      <point x="1329" y="559"/>
      <point x="1256" y="491"/>
      <point x="1256" y="390" type="curve" smooth="yes"/>
      <point x="1256" y="286"/>
      <point x="1336" y="218"/>
      <point x="1454" y="218" type="curve" smooth="yes"/>
      <point x="1547" y="218"/>
      <point x="1638" y="242"/>
      <point x="1761" y="340" type="curve"/>
      <point x="1763" y="351" type="line"/>
      <point x="1732" y="379" type="line"/>
      <point x="1639" y="309"/>
      <point x="1557" y="271"/>
      <point x="1458" y="271" type="curve" smooth="yes"/>
      <point x="1366" y="271"/>
      <point x="1310" y="314"/>
      <point x="1310" y="394" type="curve" smooth="yes"/>
      <point x="1310" y="453"/>
      <point x="1345" y="505"/>
      <point x="1403" y="505" type="curve" smooth="yes"/>
      <point x="1441" y="505"/>
      <point x="1462" y="480"/>
      <point x="1453" y="437" type="curve" smooth="yes"/>
    </contour>
  </outline>
</glyph>
<glyph name="ku-tamil" format="2">
  <advance width="1032"/>
  <note>
g101
</note>
  <anchor x="481" y="0" name="bottom"/>
  <anchor x="447" y="-297" name="nukta"/>
  <anchor x="657" y="554" name="top"/>
  <anchor x="639" y="554" name="vedic"/>
  <outline>
    <contour>
      <point x="447" y="-297" type="curve" smooth="yes"/>
      <point x="695" y="-297"/>
      <point x="927" y="-170"/>
      <point x="927" y="93" type="curve" smooth="yes"/>
      <point x="927" y="239"/>
      <point x="837" y="317"/>
      <point x="673" y="317" type="curve" smooth="yes"/>
      <point x="436" y="317" type="line" smooth="yes"/>
      <point x="313" y="317"/>
      <point x="221" y="259"/>
      <point x="221" y="148" type="curve" smooth="yes"/>
      <point x="221" y="53"/>
      <point x="302" y="-4"/>
      <point x="412" y="-4" type="curve" smooth="yes"/>
      <point x="542" y="-4"/>
      <point x="617" y="58"/>
      <point x="645" y="188" type="curve" smooth="yes"/>
      <point x="711" y="500" type="line"/>
      <point x="883" y="500" type="line"/>
      <point x="894" y="554" type="line"/>
      <point x="410" y="554" type="line"/>
      <point x="353" y="286" type="line"/>
      <point x="413" y="286" type="line"/>
      <point x="458" y="500" type="line"/>
      <point x="618" y="500" type="line"/>
      <point x="551" y="181" type="line" smooth="yes"/>
      <point x="531" y="85"/>
      <point x="484" y="49"/>
      <point x="408" y="49" type="curve" smooth="yes"/>
      <point x="338" y="49"/>
      <point x="286" y="85"/>
      <point x="286" y="155" type="curve" smooth="yes"/>
      <point x="286" y="229"/>
      <point x="346" y="263"/>
      <point x="432" y="263" type="curve" smooth="yes"/>
      <point x="663" y="263" type="line" smooth="yes"/>
      <point x="774" y="263"/>
      <point x="834" y="200"/>
      <point x="834" y="87" type="curve" smooth="yes"/>
      <point x="834" y="-122"/>
      <point x="666" y="-243"/>
      <point x="448" y="-243" type="curve" smooth="yes"/>
      <point x="221" y="-243"/>
      <point x="83" y="-99"/>
      <point x="83" y="91" type="curve" smooth="yes"/>
      <point x="83" y="234"/>
      <point x="144" y="344"/>
      <point x="260" y="460" type="curve"/>
      <point x="219" y="499" type="line"/>
      <point x="91" y="369"/>
      <point x="22" y="243"/>
      <point x="22" y="83" type="curve" smooth="yes"/>
      <point x="22" y="-133"/>
      <point x="191" y="-297"/>
    </contour>
  </outline>
</glyph>
<glyph name="kuu-tamil" format="2">
  <advance width="1303"/>
  <note>
g102
</note>
  <anchor x="582" y="0" name="bottom"/>
  <anchor x="582" y="0" name="nukta"/>
  <anchor x="494" y="554" name="top"/>
  <anchor x="721" y="554" name="vedic"/>
  <outline>
    <contour>
      <point x="720" y="-5" type="curve" smooth="yes"/>
      <point x="827" y="-5"/>
      <point x="911" y="66"/>
      <point x="911" y="168" type="curve" smooth="yes"/>
      <point x="911" y="278"/>
      <point x="816" y="317"/>
      <point x="697" y="317" type="curve" smooth="yes"/>
      <point x="485" y="317" type="line"/>
      <point x="524" y="500" type="line"/>
      <point x="696" y="500" type="line"/>
      <point x="707" y="554" type="line"/>
      <point x="223" y="554" type="line"/>
      <point x="166" y="286" type="line"/>
      <point x="226" y="286" type="line"/>
      <point x="271" y="500" type="line"/>
      <point x="431" y="500" type="line"/>
      <point x="392" y="317" type="line"/>
      <point x="249" y="317" type="line" smooth="yes"/>
      <point x="126" y="317"/>
      <point x="34" y="259"/>
      <point x="34" y="148" type="curve" smooth="yes"/>
      <point x="34" y="53"/>
      <point x="115" y="-4"/>
      <point x="225" y="-4" type="curve" smooth="yes"/>
      <point x="355" y="-4"/>
      <point x="430" y="58"/>
      <point x="458" y="188" type="curve" smooth="yes"/>
      <point x="474" y="263" type="line"/>
      <point x="687" y="263" type="line" smooth="yes"/>
      <point x="759" y="263"/>
      <point x="816" y="234"/>
      <point x="816" y="158" type="curve" smooth="yes"/>
      <point x="816" y="88"/>
      <point x="774" y="49"/>
      <point x="710" y="49" type="curve" smooth="yes"/>
      <point x="648" y="49"/>
      <point x="622" y="100"/>
      <point x="622" y="149" type="curve" smooth="yes"/>
      <point x="622" y="271"/>
      <point x="742" y="370"/>
      <point x="881" y="370" type="curve" smooth="yes"/>
      <point x="961" y="370"/>
      <point x="1062" y="336"/>
      <point x="1062" y="221" type="curve" smooth="yes"/>
      <point x="1062" y="141"/>
      <point x="1031" y="98"/>
      <point x="975" y="43" type="curve"/>
      <point x="983" y="0" type="line"/>
      <point x="1226" y="0" type="line"/>
      <point x="1237" y="54" type="line"/>
      <point x="1021" y="54" type="line"/>
      <point x="1030" y="32" type="line"/>
      <point x="1100" y="81"/>
      <point x="1156" y="139"/>
      <point x="1156" y="230" type="curve" smooth="yes"/>
      <point x="1156" y="373"/>
      <point x="1015" y="423"/>
      <point x="894" y="423" type="curve" smooth="yes"/>
      <point x="718" y="423"/>
      <point x="562" y="301"/>
      <point x="562" y="142" type="curve" smooth="yes"/>
      <point x="562" y="64"/>
      <point x="612" y="-5"/>
    </contour>
    <contour>
      <point x="221" y="49" type="curve" smooth="yes"/>
      <point x="151" y="49"/>
      <point x="99" y="85"/>
      <point x="99" y="155" type="curve" smooth="yes"/>
      <point x="99" y="229"/>
      <point x="159" y="263"/>
      <point x="245" y="263" type="curve" smooth="yes"/>
      <point x="381" y="263" type="line"/>
      <point x="364" y="181" type="line" smooth="yes"/>
      <point x="344" y="84"/>
      <point x="297" y="49"/>
    </contour>
  </outline>
</glyph>
<glyph name="li-tamil" format="2">
  <advance width="1266"/>
  <note>
g134
</note>
  <anchor x="473" y="0" name="bottom"/>
  <anchor x="472" y="0" name="nukta"/>
  <anchor x="1058" y="833" name="top"/>
  <anchor x="657" y="554" name="vedic"/>
  <outline>
    <contour>
      <point x="252" y="-5" type="curve" smooth="yes"/>
      <point x="353" y="-5"/>
      <point x="435" y="55"/>
      <point x="435" y="166" type="curve" smooth="yes"/>
      <point x="435" y="239"/>
      <point x="382" y="303"/>
      <point x="290" y="303" type="curve" smooth="yes"/>
      <point x="195" y="303"/>
      <point x="123" y="229"/>
      <point x="99" y="123" type="curve"/>
      <point x="125" y="96" type="line"/>
      <point x="145" y="184"/>
      <point x="198" y="236"/>
      <point x="260" y="236" type="curve" smooth="yes"/>
      <point x="314" y="236"/>
      <point x="341" y="199"/>
      <point x="341" y="154" type="curve" smooth="yes"/>
      <point x="341" y="92"/>
      <point x="304" y="49"/>
      <point x="241" y="49" type="curve" smooth="yes"/>
      <point x="168" y="49"/>
      <point x="109" y="109"/>
      <point x="109" y="218" type="curve" smooth="yes"/>
      <point x="109" y="386"/>
      <point x="219" y="505"/>
      <point x="396" y="505" type="curve" smooth="yes"/>
      <point x="524" y="505"/>
      <point x="605" y="424"/>
      <point x="578" y="301" type="curve" smooth="yes"/>
      <point x="554" y="192" type="line" smooth="yes"/>
      <point x="530" y="85"/>
      <point x="596" y="0"/>
      <point x="718" y="0" type="curve" smooth="yes"/>
      <point x="846" y="0"/>
      <point x="969" y="104"/>
      <point x="969" y="273" type="curve" smooth="yes"/>
      <point x="969" y="422"/>
      <point x="902" y="480"/>
      <point x="902" y="611" type="curve" smooth="yes"/>
      <point x="902" y="685"/>
      <point x="960" y="745"/>
      <point x="1048" y="745" type="curve" smooth="yes"/>
      <point x="1145" y="745"/>
      <point x="1199" y="690"/>
      <point x="1174" y="572" type="curve" smooth="yes"/>
      <point x="1052" y="0" type="line"/>
      <point x="1112" y="0" type="line"/>
      <point x="1237" y="586" type="line" smooth="yes"/>
      <point x="1269" y="736"/>
      <point x="1190" y="833"/>
      <point x="1058" y="833" type="curve" smooth="yes"/>
      <point x="917" y="833"/>
      <point x="843" y="722"/>
      <point x="843" y="607" type="curve" smooth="yes"/>
      <point x="843" y="463"/>
      <point x="911" y="391"/>
      <point x="911" y="265" type="curve" smooth="yes"/>
      <point x="911" y="143"/>
      <point x="822" y="59"/>
      <point x="730" y="59" type="curve" smooth="yes"/>
      <point x="656" y="59"/>
      <point x="631" y="118"/>
      <point x="647" y="191" type="curve" smooth="yes"/>
      <point x="670" y="299" type="line" smooth="yes"/>
      <point x="705" y="463"/>
      <point x="592" y="559"/>
      <point x="404" y="559" type="curve" smooth="yes"/>
      <point x="193" y="559"/>
      <point x="51" y="415"/>
      <point x="51" y="213" type="curve" smooth="yes"/>
      <point x="51" y="81"/>
      <point x="139" y="-5"/>
    </contour>
  </outline>
</glyph>
<glyph name="lii-tamil" format="2">
  <advance width="1035"/>
  <note>
g135
</note>
  <anchor x="473" y="0" name="bottom"/>
  <anchor x="472" y="0" name="nukta"/>
  <anchor x="984" y="882" name="top"/>
  <anchor x="657" y="554" name="vedic"/>
  <outline>
    <contour>
      <point x="252" y="-5" type="curve" smooth="yes"/>
      <point x="353" y="-5"/>
      <point x="435" y="55"/>
      <point x="435" y="166" type="curve" smooth="yes"/>
      <point x="435" y="239"/>
      <point x="382" y="303"/>
      <point x="290" y="303" type="curve" smooth="yes"/>
      <point x="195" y="303"/>
      <point x="123" y="229"/>
      <point x="99" y="123" type="curve"/>
      <point x="125" y="96" type="line"/>
      <point x="145" y="184"/>
      <point x="198" y="236"/>
      <point x="260" y="236" type="curve" smooth="yes"/>
      <point x="314" y="236"/>
      <point x="341" y="199"/>
      <point x="341" y="154" type="curve" smooth="yes"/>
      <point x="341" y="92"/>
      <point x="304" y="49"/>
      <point x="241" y="49" type="curve" smooth="yes"/>
      <point x="168" y="49"/>
      <point x="109" y="109"/>
      <point x="109" y="218" type="curve" smooth="yes"/>
      <point x="109" y="386"/>
      <point x="219" y="505"/>
      <point x="396" y="505" type="curve" smooth="yes"/>
      <point x="524" y="505"/>
      <point x="605" y="424"/>
      <point x="578" y="301" type="curve" smooth="yes"/>
      <point x="554" y="192" type="line" smooth="yes"/>
      <point x="530" y="85"/>
      <point x="591" y="0"/>
      <point x="710" y="0" type="curve" smooth="yes"/>
      <point x="843" y="0"/>
      <point x="973" y="104"/>
      <point x="973" y="279" type="curve" smooth="yes"/>
      <point x="973" y="448"/>
      <point x="800" y="530"/>
      <point x="800" y="665" type="curve" smooth="yes"/>
      <point x="800" y="752"/>
      <point x="872" y="828"/>
      <point x="981" y="828" type="curve" smooth="yes"/>
      <point x="1046" y="828"/>
      <point x="1092" y="791"/>
      <point x="1092" y="728" type="curve" smooth="yes"/>
      <point x="1092" y="672"/>
      <point x="1057" y="636"/>
      <point x="1006" y="636" type="curve" smooth="yes"/>
      <point x="924" y="636"/>
      <point x="923" y="762"/>
      <point x="984" y="851" type="curve"/>
      <point x="945" y="855" type="line"/>
      <point x="852" y="737"/>
      <point x="877" y="587"/>
      <point x="1013" y="587" type="curve" smooth="yes"/>
      <point x="1099" y="587"/>
      <point x="1166" y="641"/>
      <point x="1166" y="732" type="curve" smooth="yes"/>
      <point x="1166" y="828"/>
      <point x="1092" y="882"/>
      <point x="984" y="882" type="curve" smooth="yes"/>
      <point x="842" y="882"/>
      <point x="741" y="786"/>
      <point x="741" y="656" type="curve" smooth="yes"/>
      <point x="741" y="508"/>
      <point x="915" y="417"/>
      <point x="915" y="271" type="curve" smooth="yes"/>
      <point x="915" y="143"/>
      <point x="819" y="59"/>
      <point x="722" y="59" type="curve" smooth="yes"/>
      <point x="651" y="59"/>
      <point x="631" y="118"/>
      <point x="647" y="191" type="curve" smooth="yes"/>
      <point x="670" y="299" type="line" smooth="yes"/>
      <point x="705" y="463"/>
      <point x="592" y="559"/>
      <point x="404" y="559" type="curve" smooth="yes"/>
      <point x="193" y="559"/>
      <point x="51" y="415"/>
      <point x="51" y="213" type="curve" smooth="yes"/>
      <point x="51" y="81"/>
      <point x="139" y="-5"/>
    </contour>
  </outline>
</glyph>
<glyph name="lllii-tamil" format="2">
  <advance width="908"/>
  <note>
uni0BB4
</note>
  <anchor x="394" y="0" name="bottom"/>
  <anchor x="323" y="-335" name="nukta"/>
  <anchor x="847" y="882" name="top"/>
  <anchor x="533" y="554" name="vedic"/>
  <anchor x="836" y="554" name="imatra"/>
  <outline>
    <contour>
      <point x="214" y="-363" type="curve" smooth="yes"/>
      <point x="418" y="-363"/>
      <point x="449" y="-171"/>
      <point x="617" y="-171" type="curve" smooth="yes"/>
      <point x="683" y="-171" type="line"/>
      <point x="695" y="-117" type="line"/>
      <point x="614" y="-117" type="line" smooth="yes"/>
      <point x="512" y="-117"/>
      <point x="457" y="-73"/>
      <point x="475" y="12" type="curve" smooth="yes"/>
      <point x="493" y="96" type="line"/>
      <point x="400" y="96" type="line"/>
      <point x="382" y="12" type="line" smooth="yes"/>
      <point x="366" y="-64"/>
      <point x="429" y="-134"/>
      <point x="512" y="-139" type="curve"/>
      <point x="511" y="-144" type="line"/>
      <point x="359" y="-155"/>
      <point x="336" y="-306"/>
      <point x="204" y="-306" type="curve" smooth="yes"/>
      <point x="145" y="-306"/>
      <point x="106" y="-267"/>
      <point x="106" y="-215" type="curve" smooth="yes"/>
      <point x="106" y="-160"/>
      <point x="142" y="-123"/>
      <point x="202" y="-123" type="curve" smooth="yes"/>
      <point x="235" y="-123"/>
      <point x="270" y="-137"/>
      <point x="295" y="-164" type="curve"/>
      <point x="333" y="-125" type="line"/>
      <point x="297" y="-85"/>
      <point x="252" y="-69"/>
      <point x="200" y="-69" type="curve" smooth="yes"/>
      <point x="112" y="-69"/>
      <point x="48" y="-136"/>
      <point x="48" y="-223" type="curve" smooth="yes"/>
      <point x="48" y="-302"/>
      <point x="117" y="-363"/>
    </contour>
    <component base="ma-tamil"/>
    <component base="iiMatra-tamil.alt01" xOffset="900"/>
  </outline>
</glyph>
<glyph name="lllu-tamil" format="2">
  <advance width="1230"/>
  <note>
g140
</note>
  <anchor x="570" y="0" name="bottom"/>
  <anchor x="543" y="-333" name="nukta"/>
  <anchor x="871" y="554" name="top"/>
  <anchor x="852" y="554" name="vedic"/>
  <outline>
    <contour>
      <point x="361" y="0" type="line"/>
      <point x="935" y="0" type="line" smooth="yes"/>
      <point x="1093" y="0"/>
      <point x="1162" y="125"/>
      <point x="1162" y="316" type="curve" smooth="yes"/>
      <point x="1162" y="462"/>
      <point x="1094" y="559"/>
      <point x="973" y="559" type="curve" smooth="yes"/>
      <point x="873" y="559"/>
      <point x="807" y="501"/>
      <point x="784" y="392" type="curve" smooth="yes"/>
      <point x="660" y="-188" type="line"/>
      <point x="754" y="-188" type="line"/>
      <point x="877" y="393" type="line" smooth="yes"/>
      <point x="893" y="469"/>
      <point x="929" y="500"/>
      <point x="986" y="500" type="curve" smooth="yes"/>
      <point x="1052" y="500"/>
      <point x="1101" y="443"/>
      <point x="1101" y="307" type="curve" smooth="yes"/>
      <point x="1101" y="161"/>
      <point x="1057" y="54"/>
      <point x="938" y="54" type="curve" smooth="yes"/>
      <point x="465" y="54" type="line"/>
      <point x="571" y="554" type="line"/>
      <point x="479" y="554" type="line"/>
    </contour>
    <contour>
      <point x="543" y="-333" type="curve" smooth="yes"/>
      <point x="731" y="-333"/>
      <point x="953" y="-279"/>
      <point x="953" y="-130" type="curve" smooth="yes"/>
      <point x="953" y="-77"/>
      <point x="914" y="-48"/>
      <point x="862" y="-48" type="curve" smooth="yes"/>
      <point x="795" y="-48"/>
      <point x="744" y="-105"/>
      <point x="731" y="-165" type="curve" smooth="yes"/>
      <point x="729" y="-174" type="line"/>
      <point x="757" y="-174" type="line"/>
      <point x="758" y="-167" type="line" smooth="yes"/>
      <point x="760" y="-150"/>
      <point x="786" y="-108"/>
      <point x="825" y="-108" type="curve" smooth="yes"/>
      <point x="846" y="-108"/>
      <point x="861" y="-120"/>
      <point x="861" y="-144" type="curve" smooth="yes"/>
      <point x="861" y="-239"/>
      <point x="690" y="-279"/>
      <point x="548" y="-279" type="curve" smooth="yes"/>
      <point x="251" y="-279"/>
      <point x="88" y="-101"/>
      <point x="88" y="120" type="curve" smooth="yes"/>
      <point x="88" y="270"/>
      <point x="172" y="409"/>
      <point x="284" y="538" type="curve"/>
      <point x="239" y="573" type="line"/>
      <point x="117" y="428"/>
      <point x="27" y="279"/>
      <point x="27" y="112" type="curve" smooth="yes"/>
      <point x="27" y="-138"/>
      <point x="213" y="-333"/>
    </contour>
  </outline>
</glyph>
